<svg height="512pt" viewBox="-46 0 511 512" width="512pt" xmlns="http://www.w3.org/2000/svg"><path d="m250.546875 47.355469h-86.585937v61.304687h86.585937c3.324219 0 6.023437-2.699218 6.023437-6.027344v-49.253906c0-3.324218-2.699218-6.023437-6.023437-6.023437zm0 0" fill="#ff6b6b"/><path d="m163.960938 47.355469h37.730468v61.304687h-37.730468zm0 0" fill="#ee5253"/><path d="m182.296875 25.847656c0 10.128906-8.210937 18.339844-18.335937 18.339844-10.128907 0-18.339844-8.210938-18.339844-18.339844 0-10.125 8.210937-18.335937 18.339844-18.335937 10.125 0 18.335937 8.210937 18.335937 18.335937zm0 0" fill="#feca57"/><path d="m171.59375 25.847656c0-5.050781 2.046875-9.625 5.351562-12.941406-3.320312-3.332031-7.910156-5.394531-12.984374-5.394531-10.125 0-18.335938 8.210937-18.335938 18.335937 0 10.128906 8.207031 18.339844 18.335938 18.339844 5.074218 0 9.664062-2.0625 12.984374-5.394531-3.304687-3.316407-5.351562-7.890625-5.351562-12.945313zm0 0" fill="#f4b537"/><path d="m169.417969 176.585938c-2.1875-4.597657-8.726563-4.597657-10.914063 0l-149.15625 313.820312c-3.113281 6.550781 1.664063 14.105469 8.914063 14.105469h152.457031l77.277344-162.59375zm0 0" fill="#ce7132"/><path d="m39.347656 490.40625 139.613282-293.738281-9.542969-20.082031c-2.1875-4.597657-8.726563-4.597657-10.914063 0l-149.15625 313.820312c-3.113281 6.550781 1.664063 14.105469 8.914063 14.105469h30c-7.25 0-12.023438-7.554688-8.914063-14.105469zm0 0" fill="#bf6122"/><path d="m180.664062 251.789062 8.265626 8.265626c1.589843 1.589843 4.164062 1.589843 5.753906 0l9.761718-9.761719-35.027343-73.707031c-2.1875-4.597657-8.726563-4.597657-10.914063 0l-35.03125 73.707031 9.761719 9.761719c1.589844 1.589843 4.167969 1.589843 5.757813 0l8.265624-8.265626c1.535157-1.535156 4.023438-1.535156 5.558594 0l8.265625 8.265626c1.589844 1.589843 4.164063 1.589843 5.753907 0l8.265624-8.265626c1.539063-1.535156 4.027344-1.535156 5.5625 0zm0 0" fill="#b2581b"/><path d="m159.203125 175.46875c-.257813.339844-.5.703125-.699219 1.117188-8.203125 17.265624-28.117187 59.15625-35.03125 73.703124l9.761719 9.765626c1.589844 1.585937 4.167969 1.585937 5.757813 0l8.265624-8.269532c1.523438-1.523437 3.984376-1.527344 5.519532-.03125l26.183594-55.085937-3.257813-6.851563-6.289063-13.230468c-1.089843-2.300782-3.273437-3.449219-5.457031-3.449219-.015625 0-.035156.003906-.050781.003906-.527344.003906-1.054688.074219-1.566406.210937-1.203125.328126-2.308594 1.046876-3.136719 2.117188zm0 0" fill="#a04a10"/><path d="m411.769531 490.40625-114.851562-235.078125c-2.246094-4.597656-8.96875-4.597656-11.214844 0l-42.304687 86.589844-79.4375 162.59375h238.648437c7.453125 0 12.359375-7.554688 9.160156-14.105469zm0 0" fill="#ce7132"/><path d="m306.3125 274.550781-9.394531-19.222656c-2.246094-4.597656-8.96875-4.597656-11.214844 0l-42.304687 86.589844-79.4375 162.59375h30l79.4375-162.59375zm0 0" fill="#bf6122"/><path d="m296.917969 255.328125c-2.246094-4.597656-8.96875-4.597656-11.214844 0l-35.820313 73.316406 9.242188 8.988281c1.632812 1.589844 4.28125 1.589844 5.914062 0l8.5-8.265624c1.578126-1.535157 4.132813-1.535157 5.710938 0l8.496094 8.265624c1.636718 1.589844 4.285156 1.589844 5.917968 0l8.496094-8.265624c1.578125-1.535157 4.136719-1.535157 5.714844 0l8.496094 8.265624c1.632812 1.589844 4.28125 1.589844 5.917968 0l10.058594-9.785156zm0 0" fill="#b2581b"/><path d="m296.917969 255.328125c-2.246094-4.597656-8.96875-4.597656-11.214844 0l-.679687 1.382813-35.140626 71.933593 9.242188 8.988281c1.632812 1.589844 4.28125 1.589844 5.914062 0l8.5-8.265624c1.578126-1.535157 4.132813-1.535157 5.710938 0l.191406.183593 26.871094-55c-3.78125-7.738281-5.503906-11.261719-9.394531-19.222656zm0 0" fill="#a04a10"/><path d="m17.890625 512h74.925781c4.144532 0 7.5-3.359375 7.5-7.5 0-4.144531-3.355468-7.5-7.5-7.5h-74.925781c-1.746094 0-2.886719-1.808594-2.140625-3.382812l109.566406-230.519532 2.246094 2.246094c4.519531 4.523438 11.839844 4.527344 16.363281.003906l5.742188-5.742187 5.742187 5.738281c4.515625 4.523438 11.839844 4.527344 16.359375.003906l5.742188-5.742187c5.683593 5.679687 8.066406 9.128906 13.925781 9.128906 3.089844 0 5.996094-1.203125 8.179688-3.390625l2.25-2.246094 37.457031 78.808594-73.714844 155.09375h-37.789063c-4.144531 0-7.503906 3.355469-7.503906 7.5 0 4.140625 3.359375 7.5 7.503906 7.5h274.695313c12.769531 0 21.160156-13.3125 15.6875-24.824219l-35.035156-73.714843c-1.777344-3.742188-6.253907-5.332032-9.996094-3.554688-3.738281 1.777344-5.332031 6.25-3.550781 9.996094l35.035156 73.710937c.746094 1.578125-.394531 3.386719-2.140625 3.386719h-220.296875l73.929688-155.550781 1.476562 1.472656c2.253906 2.257813 5.21875 3.386719 8.183594 3.386719 5.867187-.003906 8.25-3.457032 13.921875-9.128906l5.742187 5.746093c4.511719 4.507813 11.851563 4.507813 16.363282-.003906l5.738281-5.742187 5.742187 5.742187c4.511719 4.511719 11.851563 4.511719 16.363282 0l2.273437-2.269531 22.640625 47.632812c1.777344 3.742188 6.253906 5.332032 9.992188 3.554688 3.742187-1.777344 5.332031-6.25 3.554687-9.992188l-61.671875-129.753906c-4.308594-9.070312-16.375-10.289062-22.550781-2.957031-1.648438 1.957031.769531-2.679688-36.292969 75.296875-3.566406-7.507813-69.386719-145.992188-71.804688-151.078125-1.0625-2.234375-2.660156-4.0625-4.59375-5.386719v-51.820312h78.949219c7.457031 0 13.523438-6.070313 13.523438-13.527344v-49.25c0-7.460938-6.066407-13.527344-13.523438-13.527344h-64.894531c2.617188-4.039062 4.144531-8.847656 4.144531-14.003906 0-14.25-11.589843-25.839844-25.835937-25.839844s-25.835938 11.589844-25.835938 25.835938c0 11.640624 7.738282 21.5 18.335938 24.722656 0 96.734375.136718 40.054687.136718 117.226562-2.058593 1.332032-3.753906 3.230469-4.867187 5.566406l-149.15625 313.824219c-5.480469 11.53125 2.941406 24.824219 15.6875 24.824219zm276.351563-250.691406 30.875 64.964844-3.617188 3.617187-5.84375-5.839844c-4.464844-4.46875-11.695312-4.46875-16.164062 0l-5.839844 5.839844-5.839844-5.839844c-4.464844-4.464843-11.699219-4.46875-16.164062 0l-5.84375 5.839844-2.820313-2.820313zm-45.542969-206.464844v46.300781h-77.472657v-46.300781zm-95.945313-29.007812c0-5.976563 4.863282-10.835938 10.835938-10.835938 5.976562 0 10.835937 4.863281 10.835937 10.835938 0 5.976562-4.859375 10.835937-10.835937 10.835937-5.972656 0-10.835938-4.859375-10.835938-10.835937zm10.835938 156.734374 31.441406 66.148438-3.59375 3.59375-5.839844-5.839844c-4.46875-4.464844-11.699218-4.46875-16.164062 0l-5.84375 5.839844-5.839844-5.839844c-4.457031-4.457031-11.707031-4.453125-16.164062 0l-5.84375 5.839844-3.59375-3.59375zm0 0"/></svg>