<svg height="512pt" viewBox="-46 0 512 512.00094" width="512pt" xmlns="http://www.w3.org/2000/svg"><path d="m412.789062 100.324219c-1.179687-17.515625-15.621093-31.554688-33.164062-32.285157-4.023438-.164062-7.902344.355469-11.53125 1.453126-3.847656 1.167968-7.953125-.980469-9.136719-4.820313-10.210937-33.125-41.0625-57.199219-77.535156-57.199219-29.355469 0-55.054687 15.597656-69.296875 38.949219 34.558594 10.542969 61.851562 37.75 72.488281 72.269531 1.59375 5.171875 7.125 8.0625 12.308594 6.492188 4.882813-1.480469 10.105469-2.179688 15.523437-1.957032 12.285157.511719 23.4375 5.878907 31.539063 14.222657h34.164063c19.972656 0 36.003906-16.859375 34.640624-37.125zm0 0" fill="#54a0ff"/><path d="m354.863281 105.347656c-11.632812-8.035156-24.949219-12.578125-38.597656-13.402344-4.859375-.296874-9.195313-3.058593-11.484375-7.351562-9.511719-17.839844-22.933594-33.625-39.167969-45.796875-9.371093-7.027344-19.445312-12.742187-30.027343-17.125-9.457032 6.492187-17.472657 14.933594-23.460938 24.75 34.558594 10.542969 61.851562 37.75 72.488281 72.269531 1.59375 5.171875 7.125 8.0625 12.308594 6.492188 4.882813-1.480469 10.105469-2.179688 15.523437-1.957032 12.285157.511719 23.4375 5.878907 31.539063 14.222657h34.164063c1.097656 0 2.179687-.058594 3.253906-.160157-5.609375-12.6875-14.6875-23.75-26.539063-31.941406zm0 0" fill="#338def"/><path d="m357.753906 164.855469c-1.949218-28.910157-30.6875-49.761719-59.488281-41.035157-5.121094 1.550782-10.589844-1.308593-12.164063-6.421874-13.589843-44.085938-54.648437-76.128907-103.195312-76.128907-48.550781 0-89.609375 32.042969-103.199219 76.128907-1.574219 5.113281-7.042969 7.972656-12.164062 6.421874-28.742188-8.710937-57.535157 12.066407-59.484375 41.03125-1.820313 26.972657 19.519531 49.414063 46.101562 49.414063h257.488282c26.582031 0 47.921874-22.441406 46.105468-49.410156zm0 0" fill="#8ac2ff"/><path d="m96.765625 123.820312c5.121094 1.550782 10.585937-1.308593 12.164063-6.421874 12.199218-39.585938 46.554687-69.441407 88.585937-75.128907-4.78125-.648437-9.652344-1-14.609375-1-48.546875 0-89.609375 32.042969-103.195312 76.128907-.652344 2.109374-1.972657 3.828124-3.648438 5.019531 6.640625-1.085938 13.671875-.730469 20.703125 1.402343zm0 0" fill="#54a0ff"/><path d="m37.277344 164.851562c1.304687-19.335937 14.574218-35.007812 31.796875-40.710937-.507813-.070313-1.019531-.167969-1.527344-.324219-28.746094-8.710937-57.535156 12.070313-59.488281 41.035156-1.816406 26.96875 19.523437 49.414063 46.101562 49.414063h29.21875c-26.578125 0-47.917968-22.441406-46.101562-49.414063zm0 0" fill="#54a0ff"/><path d="m122.871094 504.511719c-8.914063 0-16.136719-7.226563-16.136719-16.136719v-279.636719c0-8.914062 7.222656-16.136719 16.136719-16.136719 8.910156 0 16.136718 7.222657 16.136718 16.136719v279.636719c0 8.910156-7.226562 16.136719-16.136718 16.136719zm0 0" fill="#576574"/><path d="m242.941406 504.511719c-8.910156 0-16.136718-7.226563-16.136718-16.136719v-279.636719c0-8.914062 7.222656-16.136719 16.136718-16.136719 8.910156 0 16.136719 7.222657 16.136719 16.136719v279.636719c0 8.910156-7.226563 16.136719-16.136719 16.136719zm0 0" fill="#576574"/><path d="m127.738281 488.375v-279.636719c0-4.898437 2.1875-9.277343 5.632813-12.238281-2.824219-2.421875-6.488282-3.898438-10.5-3.898438-8.914063 0-16.136719 7.222657-16.136719 16.136719v279.636719c0 8.910156 7.222656 16.136719 16.136719 16.136719 4.011718 0 7.675781-1.476563 10.5-3.898438-3.445313-2.960937-5.632813-7.339843-5.632813-12.238281zm0 0" fill="#3e4b5a"/><path d="m247.808594 488.375v-279.636719c0-4.898437 2.1875-9.277343 5.632812-12.238281-2.824218-2.421875-6.484375-3.898438-10.5-3.898438-8.910156 0-16.136718 7.222657-16.136718 16.136719v279.636719c0 8.910156 7.222656 16.136719 16.136718 16.136719 4.015625 0 7.675782-1.476563 10.5-3.898438-3.445312-2.960937-5.632812-7.339843-5.632812-12.238281zm0 0" fill="#3e4b5a"/><path d="m140.824219 126.410156c-2.929688 2.929688-2.929688 7.679688 0 10.609375l28.085937 28.085938c1.40625 1.40625 3.316406 2.195312 5.304688 2.195312 1.992187 0 3.898437-.789062 5.304687-2.195312l44.730469-44.730469c2.929688-2.925781 2.929688-7.675781 0-10.605469-2.933594-2.929687-7.679688-2.929687-10.609375 0l-39.425781 39.421875-22.777344-22.78125c-2.933594-2.929687-7.679688-2.929687-10.613281 0zm0 0"/><path d="m163.828125 35.273438c-42.875 6.988281-78.851563 38.351562-91.65625 79.90625-1.203125 3.898437-5.628906-1.417969-20.652344-.800782-44.988281 1.871094-68.695312 56.398438-36.972656 90.339844 10.125 10.828125 24.429687 17.039062 39.246094 17.039062h45.070312v266.605469c0 13.035157 10.605469 23.636719 23.636719 23.636719s23.636719-10.601562 23.636719-23.636719v-18.238281h72.796875v18.238281c0 13.035157 10.605468 23.636719 23.636718 23.636719 13.035157 0 23.636719-10.601562 23.636719-23.636719v-122.316406c0-4.144531-3.355469-7.5-7.5-7.5s-7.5 3.355469-7.5 7.5v122.316406c0 4.761719-3.875 8.632813-8.636719 8.632813-4.761718 0-8.632812-3.871094-8.632812-8.632813 0-15.441406 0-264.734375 0-279.640625 0-4.761718 3.871094-8.632812 8.632812-8.632812 4.761719 0 8.636719 3.871094 8.636719 8.632812v122.316406c0 4.144532 3.355469 7.503907 7.5 7.503907s7.5-3.359375 7.5-7.503907v-109.285156h45.074219c14.8125 0 29.117188-6.207031 39.242188-17.035156 10.261718-10.980469 15.355468-25.320312 14.34375-40.378906-.496094-7.351563-2.515626-14.453125-5.871094-20.910156h19.1875c23.683594 0 43.386718-19.941407 41.722656-44.695313-1.808594-26.816406-28.03125-44.808594-53.609375-37.21875-21.554687-69.101563-113.710937-83.921875-155.496094-24.238281-3.144531-.796875-6.328125-1.480469-9.554687-2.003906-4.105469-.667969-7.945313 2.105468-8.609375 6.195312-.667969 4.089844 2.105469 7.941406 6.195312 8.609375 37.285157 6.078125 68.59375 33.375 79.730469 69.519531 2.785156 9.03125 12.433594 14.140625 21.507812 11.390625 24.152344-7.316406 48.214844 10.40625 49.828126 34.359375.730468 10.867188-2.9375 21.210938-10.335938 29.125-7.402344 7.917969-17.449219 12.28125-28.28125 12.28125h-45.152344c-1.039062-12.246094-11.3125-21.664062-23.558594-21.664062-12.257812 0-22.519531 9.4375-23.554687 21.664062h-72.960937c-1.03125-12.21875-11.289063-21.664062-23.554688-21.664062-12.257812 0-22.519531 9.433594-23.554688 21.664062h-45.152343c-22.398438 0-40.140625-18.859375-38.621094-41.410156 1.605469-23.828125 25.550781-41.71875 49.828125-34.355469 9.070312 2.746094 18.722656-2.359375 21.507812-11.390625 11.140626-36.152344 42.4375-63.441406 79.734376-69.519531 4.085937-.667969 6.859374-4.519531 6.195312-8.609375-.667969-4.089844-4.507812-6.863281-8.609375-6.195312zm183.621094 93.15625c-8.613281-7.871094-19.445313-12.746094-31.070313-13.851563-7-.660156-14.003906.035156-20.660156 2.050781-1.175781.355469-2.464844-.308594-2.820312-1.449218-10.148438-32.925782-34.570313-59.894532-67.03125-73.003907 35.777343-44.828125 108.769531-32.445312 126.175781 24.027344 2.378906 7.71875 10.621093 12.085937 18.375 9.738281 16.820312-5.097656 33.40625 7.292969 34.519531 23.796875 1.050781 15.652344-11.261719 28.691407-26.753906 28.691407zm-201.3125 93.324218h72.796875v12.484375h-72.796875zm0 27.484375h72.796875v29.175781h-72.796875zm0 44.179688h72.796875v29.171875h-72.796875zm0 44.175781h72.796875v29.175781h-72.796875zm0 44.175781h72.796875v29.175781h-72.796875zm0 44.179688h72.796875v29.171875h-72.796875zm-32.269531-217.226563c0-4.761718 3.871093-8.632812 8.632812-8.632812s8.636719 3.871094 8.636719 8.632812v279.640625c0 4.761719-3.875 8.632813-8.636719 8.632813s-8.632812-3.871094-8.632812-8.632813c0-15.441406 0-264.734375 0-279.640625zm0 0"/></svg>