<svg height="512pt" viewBox="-9 0 512 512" width="512pt" xmlns="http://www.w3.org/2000/svg"><path d="m14.832031 31.714844h465.9375v341.019531h-465.9375zm0 0" fill="#e4eaf8"/><path d="m14.832031 31.714844h30.003907v341.019531h-30.003907zm0 0" fill="#c7d2e5"/><path d="m74.324219 504.511719h19.191406c3.574219 0 6.472656-2.984375 6.472656-6.664063v-103.613281h-32.136719v103.613281c0 3.679688 2.898438 6.664063 6.472657 6.664063zm0 0" fill="#576574"/><path d="m395.613281 394.234375v103.613281c0 3.679688 2.898438 6.664063 6.472657 6.664063h19.191406c3.574218 0 6.472656-2.984375 6.472656-6.664063v-103.613281zm0 0" fill="#576574"/><path d="m88.855469 497.847656v-103.613281h-21.003907v103.613281c0 3.679688 2.898438 6.664063 6.472657 6.664063h19.191406c.308594 0 .609375-.03125.90625-.074219-3.144531-.453125-5.566406-3.226562-5.566406-6.589844zm0 0" fill="#3e4b5a"/><path d="m416.617188 497.847656v-103.613281h-21.003907v103.613281c0 3.679688 2.898438 6.664063 6.472657 6.664063h19.191406c.308594 0 .609375-.03125.90625-.074219-3.144532-.453125-5.566406-3.226562-5.566406-6.589844zm0 0" fill="#3e4b5a"/><path d="m481.261719 7.511719h-466.917969c-3.574219 0-6.472656 2.898437-6.472656 6.472656v19.191406c0 3.574219 2.898437 6.46875 6.472656 6.46875h466.917969c3.570312 0 6.46875-2.894531 6.46875-6.46875v-19.191406c0-3.574219-2.894531-6.472656-6.46875-6.472656zm0 0" fill="#bf6122"/><path d="m481.261719 20.464844h-466.917969c-3.574219 0-6.472656-2.898438-6.472656-6.472656v19.183593c0 3.574219 2.898437 6.46875 6.472656 6.46875h466.917969c3.570312 0 6.46875-2.894531 6.46875-6.46875v-19.183593c0 3.574218-2.894531 6.472656-6.46875 6.472656zm0 0" fill="#b2581b"/><path d="m481.261719 365.265625h-466.917969c-3.574219 0-6.472656 2.898437-6.472656 6.472656v19.191407c0 3.570312 2.898437 6.46875 6.472656 6.46875h466.917969c3.570312 0 6.46875-2.894532 6.46875-6.46875v-19.191407c0-3.574219-2.894531-6.472656-6.46875-6.472656zm0 0" fill="#bf6122"/><path d="m481.261719 378.21875h-466.917969c-3.574219 0-6.472656-2.898438-6.472656-6.472656v19.183594c0 3.570312 2.898437 6.46875 6.472656 6.46875h466.917969c3.570312 0 6.46875-2.894532 6.46875-6.46875v-19.183594c0 3.574218-2.894531 6.472656-6.46875 6.472656zm0 0" fill="#b2581b"/><path d="m74.769531 256.824219c-2.5625 0-4.640625 2.078125-4.640625 4.640625v20.148437c0 2.5625 2.078125 4.640625 4.640625 4.640625h44.3125v-29.429687zm0 0" fill="#fcd486"/><path d="m100.128906 281.613281v-20.148437c0-2.5625 2.078125-4.640625 4.640625-4.640625h-30c-2.5625 0-4.640625 2.078125-4.640625 4.640625v20.148437c0 2.5625 2.078125 4.640625 4.640625 4.640625h30c-2.5625 0-4.640625-2.078125-4.640625-4.640625zm0 0" fill="#feca57"/><path d="m122.621094 210.769531c-2.5625 0-4.640625 2.078125-4.640625 4.640625v70.84375h48.953125v-75.484375zm0 0" fill="#feca57"/><path d="m152.625 210.769531h-30.003906c-2.5625 0-4.640625 2.078125-4.640625 4.640625v70.84375h30.003906v-70.84375c0-2.5625 2.074219-4.640625 4.640625-4.640625zm0 0" fill="#f4b537"/><path d="m170.472656 164.714844c-2.5625 0-4.640625 2.078125-4.640625 4.640625v116.898437h48.953125v-121.539062zm0 0" fill="#f4b537"/><path d="m200.476562 164.714844h-30.003906c-2.5625 0-4.640625 2.078125-4.640625 4.640625v116.898437h30.003907v-116.898437c0-2.5625 2.074218-4.640625 4.640624-4.640625zm0 0" fill="#e59d1f"/><path d="m256.894531 118.660156h-38.570312c-2.5625 0-4.640625 2.078125-4.640625 4.640625v162.953125h43.214844c2.5625 0 4.636718-2.078125 4.636718-4.640625v-158.3125c0-2.5625-2.078125-4.640625-4.640625-4.640625zm0 0" fill="#e59d1f"/><path d="m248.328125 118.660156h-30.003906c-2.5625 0-4.640625 2.078125-4.640625 4.640625v162.953125h30.003906v-162.953125c0-2.566406 2.078125-4.640625 4.640625-4.640625zm0 0" fill="#dd8e10"/><path d="m218.128906 110.875c-6.703125 0-12.15625 5.453125-12.15625 12.15625v34.046875h-35.851562c-6.703125 0-12.15625 5.453125-12.15625 12.15625v34.046875h-35.851563c-6.707031 0-12.160156 5.453125-12.160156 12.15625v34.050781h-35.851563c-6.703124 0-12.15625 5.453125-12.15625 12.15625v20.210938c0 6.703125 5.453126 12.15625 12.15625 12.15625h182.722657c6.703125 0 12.15625-5.453125 12.15625-12.15625v-158.824219c0-6.707031-5.453125-12.15625-12.15625-12.15625zm-108.175781 168.140625h-33.003906v-14.527344h33.003906zm48.007813 0h-33.007813c0-6.207031 0-53.835937 0-60.730469h33.007813zm48.007812 0h-33.003906c0-12.160156 0-96.171875 0-106.9375h33.003906zm48.007812 0h-33.003906c0-7.464844 0-145.738281 0-153.140625h33.003906zm0 0"/><path d="m425.414062 144.273438h-117.929687c-4.144531 0-7.5 3.355468-7.5 7.5 0 4.140624 3.355469 7.5 7.5 7.5h117.929687c4.144532 0 7.503907-3.359376 7.503907-7.5 0-4.144532-3.359375-7.5-7.503907-7.5zm0 0"/><path d="m425.414062 183.613281h-117.929687c-4.144531 0-7.5 3.359375-7.5 7.5s3.355469 7.5 7.5 7.5h117.929687c4.144532 0 7.503907-3.359375 7.503907-7.5s-3.359375-7.5-7.503907-7.5zm0 0"/><path d="m425.414062 222.953125h-117.929687c-4.144531 0-7.5 3.359375-7.5 7.5 0 4.144531 3.355469 7.5 7.5 7.5h117.929687c4.144532 0 7.503907-3.355469 7.503907-7.5 0-4.140625-3.359375-7.5-7.503907-7.5zm0 0"/><path d="m425.414062 262.292969h-117.929687c-4.144531 0-7.5 3.359375-7.5 7.5 0 4.144531 3.355469 7.5 7.5 7.5h117.929687c4.144532 0 7.503907-3.355469 7.503907-7.5 0-4.140625-3.359375-7.5-7.503907-7.5zm0 0"/><path d="m13.972656 404.886719h46.011719v93.140625c0 7.707031 6.269531 13.972656 13.972656 13.972656h19.1875c7.703125 0 13.972657-6.265625 13.972657-13.972656v-23.890625l61.316406-69.25h61.496094c4.144531 0 7.5-3.355469 7.5-7.5 0-4.140625-3.355469-7.5-7.5-7.5-3.144532 0-203.03125 0-214.929688 0v-17.132813h464.859375v17.132813c-8.835937 0-206.078125 0-214.925781 0-4.144532 0-7.503906 3.359375-7.503906 7.5 0 4.144531 3.359374 7.5 7.503906 7.5h61.496094l61.316406 69.25v23.890625c0 7.707031 6.269531 13.972656 13.972656 13.972656h19.1875c7.707031 0 13.972656-6.265625 13.972656-13.972656v-93.140625h46.011719c7.703125 0 13.972656-6.265625 13.972656-13.972657v-19.191406c0-5.144531-2.804687-9.640625-6.960937-12.066406v-131.371094c0-4.144531-3.359375-7.5-7.503906-7.5-4.140626 0-7.5 3.355469-7.5 7.5v129.46875h-450.933594v-310.617187h450.933594v146.144531c0 4.144531 3.355468 7.5 7.5 7.5 4.144531 0 7.5-3.355469 7.5-7.5v-148.050781c4.15625-2.425781 6.964843-6.917969 6.964843-12.066407v-19.191406c0-7.707031-6.269531-13.972656-13.972656-13.972656h-466.917969c-7.703125 0-13.972656 6.265625-13.972656 13.972656v19.191406c0 5.148438 2.804688 9.640626 6.960938 12.066407v314.429687c-4.15625 2.421875-6.960938 6.917969-6.960938 12.066406v19.191407c0 7.703125 6.269531 13.96875 13.972656 13.96875zm93.144532 0h41.28125l-41.28125 46.621093zm-32.132813 0h17.132813v92.113281h-17.132813zm312.761719 46.621093-41.28125-46.621093h41.28125zm32.132812 45.492188h-17.132812v-92.113281h17.132812zm-404.878906-482h464.859375v17.132812h-464.859375zm0 0"/></svg>