<svg height="512pt" viewBox="-24 0 512 512.00013" width="512pt" xmlns="http://www.w3.org/2000/svg"><path d="m353.617188 398.101562c.398437-12.261718-9.519532-22.445312-21.722657-22.445312h-.046875v-.007812c.589844-.003907 1.191406-.003907 1.816406-.003907 11.84375-.007812 21.441407-9.621093 21.433594-21.464843-.011718-11.847657-9.621094-21.382813-21.46875-21.375-9.875 0-78.746094 0-89.242187 0-2.488281 0-4.25-2.429688-3.476563-4.792969l7.824219-23.875c6.65625-20.320313 5.472656-34.15625 5.472656-57.957031 0-14-11.347656-25.347657-25.347656-25.347657-12.71875 0-23.464844 9.421875-25.128906 22.027344-1.84375 13.949219-3.085938 38.753906-26.144531 60.960937l-16.277344 15.671876c-9.066406 8.730468-21.160156 13.605468-33.75 13.605468h-21.378906v140.699219c5.816406-.003906 17.503906-.003906 17.511718-.003906 31.074219-.019531 28.230469 30.753906 66.878906 30.71875h131.527344c11.828125 0 21.421875-9.59375 21.421875-21.425781 0-11.832032-9.59375-21.421876-21.421875-21.421876h3.769532c11.644531 0 21.585937-9.054687 21.972656-20.691406.40625-12.167968-9.335938-22.15625-21.410156-22.15625h5.210937c11.652344 0 21.601563-9.066406 21.976563-20.714844zm0 0" fill="#ffcdbf"/><path d="m322.09375 479.511719h-131.527344c-38.644531.035156-35.804687-30.738281-66.878906-30.71875-.007812 0-11.695312 0-17.507812.003906v25c5.8125 0 17.5-.003906 17.507812-.003906 31.074219-.019531 28.234375 30.753906 66.878906 30.71875h131.527344c11.832031 0 21.421875-9.589844 21.421875-21.421875v-.003906c0-4.671876-1.511719-8.976563-4.046875-12.5-3.890625 5.398437-10.214844 8.925781-17.375 8.925781zm0 0" fill="#ffbeab"/><path d="m100.09375 320.457031h-81.140625c-6.121094 0-11.082031 4.960938-11.082031 11.082031v146.574219c0 6.121094 4.960937 11.082031 11.082031 11.082031h81.140625c6.121094 0 11.085938-4.960937 11.085938-11.082031v-146.574219c0-6.121093-4.964844-11.082031-11.085938-11.082031zm0 0" fill="#54a0ff"/><path d="m37.871094 478.113281v-146.574219c0-6.121093 4.964844-11.082031 11.085937-11.082031h-30.003906c-6.121094 0-11.082031 4.960938-11.082031 11.082031v146.574219c0 6.121094 4.960937 11.082031 11.082031 11.082031h30.003906c-6.121093 0-11.085937-4.960937-11.085937-11.082031zm0 0" fill="#338def"/><path d="m124.753906 123.5625c3.027344-2.890625 1.355469-7.925781-2.828125-8.519531l-32.304687-4.597657c-1.660156-.238281-3.097656-1.257812-3.839844-2.734374l-14.449219-28.675782c-1.871093-3.714844-7.277343-3.714844-9.144531 0l-14.449219 28.675782c-.742187 1.472656-2.179687 2.496093-3.839843 2.734374l-32.308594 4.597657c-4.183594.59375-5.851563 5.628906-2.824219 8.519531l23.375 22.324219c1.203125 1.148437 1.75 2.800781 1.46875 4.421875l-5.519531 31.515625c-.714844 4.082031 3.660156 7.195312 7.402344 5.269531l28.894531-14.882812c1.488281-.765626 3.261719-.765626 4.746093 0l28.898438 14.882812c3.742188 1.925781 8.113281-1.1875 7.398438-5.269531l-5.519532-31.515625c-.28125-1.621094.265625-3.277344 1.46875-4.421875zm0 0" fill="#feca57"/><path d="m68.890625 144.539062c.285156-1.621093-.265625-3.273437-1.46875-4.421874l-23.375-22.324219c-2.320313-2.210938-1.875-5.675781.332031-7.449219-.15625.039062-.316406.074219-.480468.097656l-32.308594 4.601563c-4.179688.59375-5.851563 5.628906-2.824219 8.519531l23.375 22.320312c1.203125 1.148438 1.75 2.800782 1.46875 4.421876l-5.519531 31.519531c-.710938 4.078125 3.660156 7.191406 7.402344 5.265625l28.519531-14.6875zm0 0" fill="#f4b537"/><path d="m46.871094 109.273438 32.308594-4.597657c1.609374-.230469 3-1.199219 3.761718-2.597656l-11.609375-23.042969c-1.871093-3.714844-7.277343-3.714844-9.144531 0l-14.449219 28.675782c-.332031.660156-.8125 1.226562-1.382812 1.675781.171875-.042969.335937-.085938.515625-.113281zm0 0" fill="#f4b537"/><path d="m457.511719 123.5625c3.027343-2.890625 1.355469-7.925781-2.824219-8.519531l-32.308594-4.597657c-1.660156-.238281-3.097656-1.257812-3.839844-2.734374l-14.449218-28.675782c-1.871094-3.714844-7.273438-3.714844-9.144532 0l-14.449218 28.675782c-.742188 1.472656-2.179688 2.496093-3.839844 2.734374l-32.308594 4.597657c-4.183594.59375-5.851562 5.628906-2.824218 8.519531l23.378906 22.324219c1.199218 1.148437 1.75 2.800781 1.464844 4.421875l-5.519532 31.515625c-.714844 4.082031 3.660156 7.195312 7.402344 5.269531l28.894531-14.882812c1.488281-.765626 3.261719-.765626 4.746094 0l28.898437 14.882812c3.742188 1.925781 8.113282-1.1875 7.398438-5.269531l-5.515625-31.515625c-.285156-1.621094.261719-3.277344 1.464844-4.421875zm0 0" fill="#feca57"/><path d="m401.648438 144.539062c.285156-1.621093-.265626-3.273437-1.46875-4.421874l-23.375-22.324219c-2.316407-2.210938-1.875-5.675781.332031-7.449219-.15625.039062-.316407.074219-.480469.097656l-32.308594 4.601563c-4.179687.59375-5.851562 5.628906-2.824218 8.519531l23.378906 22.320312c1.199218 1.148438 1.75 2.800782 1.464844 4.421876l-5.519532 31.519531c-.710937 4.078125 3.660156 7.191406 7.402344 5.265625l28.519531-14.6875zm0 0" fill="#f4b537"/><path d="m379.628906 109.273438 32.308594-4.597657c1.609375-.230469 3-1.199219 3.761719-2.597656l-11.609375-23.042969c-1.871094-3.714844-7.273438-3.714844-9.144532 0l-14.449218 28.675782c-.332032.660156-.8125 1.226562-1.378906 1.675781.167968-.042969.335937-.085938.511718-.113281zm0 0" fill="#f4b537"/><path d="m326.910156 84.011719c4.894532-4.675781 2.195313-12.816407-4.570312-13.777344l-52.238282-7.4375c-2.6875-.378906-5.007812-2.035156-6.207031-4.417969l-23.363281-46.367187c-3.023438-6.003907-11.761719-6.003907-14.789062 0l-23.359376 46.367187c-1.203124 2.386719-3.523437 4.039063-6.207031 4.417969l-52.242187 7.4375c-6.761719.960937-9.460938 9.101563-4.570313 13.777344l37.800781 36.09375c1.945313 1.851562 2.832032 4.527343 2.371094 7.148437l-8.921875 50.964844c-1.15625 6.597656 5.914063 11.628906 11.960938 8.511719l46.726562-24.058594c2.402344-1.238281 5.269531-1.238281 7.671875 0l46.722656 24.058594c6.050782 3.117187 13.121094-1.914063 11.964844-8.511719l-8.925781-50.964844c-.457031-2.621094.429687-5.292968 2.371094-7.148437zm0 0" fill="#feca57"/><path d="m231.457031 57.027344c2.683594-.378906 5.003907-2.035156 6.207031-4.417969l11.660157-23.144531-8.792969-17.453125c-3.023438-6.003907-11.761719-6.003907-14.789062 0l-23.359376 46.367187c-.671874 1.332032-1.703124 2.425782-2.941406 3.207032zm0 0" fill="#f4b537"/><path d="m205.894531 172.449219 8.921875-50.964844c.460938-2.621094-.425781-5.292969-2.371094-7.148437l-37.796874-36.09375c-3.980469-3.800782-2.9375-9.894532 1.226562-12.554688l-31.9375 4.546875c-6.765625.960937-9.464844 9.101563-4.570312 13.777344l37.796874 36.089843c1.945313 1.855469 2.832032 4.53125 2.371094 7.152344l-8.921875 50.960938c-1.15625 6.597656 5.914063 11.628906 11.964844 8.515625l23.246094-11.972657c-.082031-.738281-.070313-1.511718.070312-2.308593zm0 0" fill="#f4b537"/><path d="m454.265625 107.609375-30.34375-4.410156-13.570313-27.496094c-4.578124-9.285156-17.828124-9.28125-22.410156 0l-13.570312 27.496094-30.34375 4.410156c-10.242188 1.488281-14.335938 14.085937-6.925782 21.3125l21.957032 21.402344-5.183594 30.222656c-1.753906 10.242187 9.007812 17.96875 18.132812 13.171875l27.140626-14.269531 27.140624 14.269531c9.15625 4.816406 19.878907-2.964844 18.128907-13.171875l-5.183594-30.222656 21.957031-21.402344c7.414063-7.226563 3.320313-19.824219-6.925781-21.3125zm-26.445313 32.894531c-2.945312 2.871094-4.285156 7.003906-3.59375 11.058594l4.550782 26.515625-23.816406-12.519531c-3.636719-1.914063-7.988282-1.914063-11.628907 0l-23.8125 12.519531 4.546875-26.519531c.695313-4.050782-.648437-8.183594-3.59375-11.054688l-19.265625-18.78125 26.625-3.867187c4.070313-.59375 7.585938-3.148438 9.40625-6.835938l11.90625-24.125 11.90625 24.125c1.820313 3.6875 5.339844 6.242188 9.410157 6.835938l26.625 3.867187zm0 0"/><path d="m55.183594 75.703125-13.570313 27.496094-30.34375 4.410156c-10.246093 1.488281-14.335937 14.085937-6.925781 21.3125l21.957031 21.402344-5.183593 30.21875c-1.757813 10.242187 9.007812 17.972656 18.128906 13.175781l27.144531-14.269531 27.140625 14.269531c9.15625 4.820312 19.878906-2.972656 18.128906-13.171875l-5.183594-30.222656 21.957032-21.402344c7.414062-7.226563 3.316406-19.828125-6.925782-21.316406l-30.34375-4.410157-13.570312-27.496093c-4.582031-9.28125-17.828125-9.277344-22.410156.003906zm23.113281 35.316406c1.820313 3.6875 5.339844 6.242188 9.410156 6.835938l26.621094 3.867187-19.261719 18.777344c-2.949218 2.875-4.292968 7.007812-3.597656 11.0625l4.546875 26.515625-23.8125-12.515625c-3.640625-1.914062-7.988281-1.917969-11.628906 0l-23.816407 12.519531 4.550782-26.515625c.695312-4.054687-.648438-8.1875-3.59375-11.0625l-19.265625-18.777344 26.621093-3.871093c4.070313-.589844 7.589844-3.144531 9.410157-6.835938l11.90625-24.125zm0 0"/><path d="m103.308594 478.097656c0 1.976563-1.605469 3.585938-3.582032 3.585938h-23.070312c-4.144531 0-7.5 3.355468-7.5 7.5 0 4.140625 3.355469 7.5 7.5 7.5h23.070312c9.15625 0 16.773438-6.667969 18.289063-15.398438l5.308594-.003906h.015625c26.183594 0 25.425781 30.722656 66.785156 30.71875h.070312 131.527344c15.949219 0 28.925782-12.976562 28.925782-28.925781 0-7.570313-2.921876-14.46875-7.699219-19.628907 7.019531-5.105468 11.714843-13.171874 12.019531-22.234374.246094-7.417969-2.273438-14.464844-7.113281-20 7.507812-5.066407 12.585937-13.433594 12.890625-22.875.273437-8.394532-2.984375-16.203126-8.910156-21.949219 20.625-17.269531 8.46875-51.089844-18.554688-51.089844-.003906 0-.015625 0-.019531 0h-83.9375c12.390625-37.832031 12.015625-34.761719 12.015625-79.125 0-18.113281-14.738282-32.851563-32.851563-32.851563-16.414062 0-30.414062 12.273438-32.5625 28.546876-5.390625 40.746093-11.90625 44.976562-40.1875 72.210937-7.707031 7.421875-17.847656 11.511719-28.546875 11.511719h-9.871094c-2.484374-7.339844-9.425781-12.644532-17.59375-12.644532h-81.140624c-10.25 0-18.585938 8.335938-18.585938 18.585938v146.570312c0 10.246094 8.335938 18.582032 18.585938 18.582032h23.066406c4.144531 0 7.5-3.355469 7.5-7.5 0-4.140625-3.355469-7.5-7.5-7.5h-23.066406c-1.976563 0-3.585938-1.605469-3.585938-3.582032v-146.574218c0-1.976563 1.609375-3.582032 3.585938-3.582032h81.140624c1.976563 0 3.582032 1.605469 3.582032 3.582032zm15-137.511718h8.878906c14.601562 0 28.4375-5.578126 38.953125-15.703126 29.871094-28.761718 38.65625-35.671874 44.652344-81.050781 1.167969-8.84375 8.773437-15.511719 17.695312-15.511719 9.839844 0 17.847657 8.007813 17.847657 17.847657 0 43.765625.757812 37.738281-12.921876 79.496093-2.359374 7.203126 3.019532 14.628907 10.601563 14.628907h89.25.011719c7.6875 0 13.941406 6.222656 13.949218 13.878906.003907 7.691406-6.25 13.957031-13.933593 13.960937-13.347657.011719 20.160156.007813-35.890625.007813-4.140625 0-7.5 3.359375-7.5 7.5 0 4.144531 3.359375 7.5 7.5 7.5h34.078125.019531.015625c8 0 14.496094 6.683594 14.234375 14.707031-.238281 7.417969-6.734375 13.457032-14.484375 13.457032-17.308594 0 5.210937.007812-33.863281.007812-4.140625 0-7.5 3.359375-7.5 7.5s3.359375 7.5 7.5 7.5c51.859375 0 9.636718-.007812 28.65625-.007812 7.796875 0 14.179687 6.425781 13.914062 14.40625-.246094 7.410156-6.742187 13.441406-14.476562 13.441406 0 0-.949219.007812-28.09375.007812-4.144532 0-7.5 3.359375-7.5 7.5 0 4.144532 3.355468 7.5 7.5 7.5h24.492187c7.597657.09375 13.75 6.296875 13.75 13.917969 0 7.675781-6.246093 13.921875-13.921875 13.921875h-131.53125c-.023437 0-.042968 0-.0625 0-34.859375 0-31.710937-30.71875-66.777344-30.71875-.011718 0-.023437 0-.03125 0l-5.011718.003906zm0 0"/><path d="m292.832031 104.511719c-2.964843 2.890625-3.023437 7.640625-.132812 10.605469 2.894531 2.96875 7.640625 3.027343 10.605469.136718l26.554687-25.882812c9.242187-9.011719 4.136719-24.71875-8.632813-26.574219l-51.171874-7.433594c-.1875-.027343-.351563-.144531-.433594-.316406l-22.882813-46.367187c-5.710937-11.574219-22.230469-11.570313-27.9375 0l-22.886719 46.367187c-.082031.171875-.246093.289063-.433593.316406l-51.171875 7.433594c-12.769532 1.859375-17.871094 17.566406-8.632813 26.574219l37.027344 36.089844c.136719.132812.199219.324218.167969.511718l-8.742188 50.964844c-2.191406 12.765625 11.226563 22.402344 22.601563 16.421875l45.769531-24.0625c.167969-.085937.367188-.089844.535156 0l45.769532 24.0625c11.417968 6.003906 24.785156-3.703125 22.601562-16.421875l-5.714844-33.316406c-.699218-4.085938-4.582031-6.832032-8.65625-6.128906-4.085937.703124-6.828125 4.578124-6.125 8.664062l5.714844 33.316406c.023438.148438.058594.355469-.230469.566406-.289062.207032-.472656.113282-.605469.042969l-45.769531-24.0625c-4.539062-2.386719-9.960937-2.386719-14.5 0l-45.769531 24.0625c-.132812.070313-.316406.164063-.605469-.042969-.289062-.210937-.253906-.417968-.230469-.566406l8.742188-50.960937c.867188-5.054688-.804688-10.210938-4.480469-13.789063l-37.027343-36.09375c-.105469-.105468-.257813-.25-.144532-.589844.109375-.34375.316406-.371093.464844-.394531l51.171875-7.433593c5.074219-.738282 9.457031-3.925782 11.730469-8.523438l22.882812-46.371094c.066406-.132812.160156-.320312.515625-.320312.359375 0 .449219.1875.519531.320312l22.882813 46.367188c2.269531 4.601562 6.652344 7.789062 11.730469 8.523437l51.171875 7.4375c.148437.019531.351562.050781.464843.390625.109376.34375-.039062.488282-.144531.59375zm0 0"/></svg>