<svg height="512pt" viewBox="-120 0 512 512.00181" width="512pt" xmlns="http://www.w3.org/2000/svg"><path d="m193.71875 7.511719h-155.558594c-16.660156 0-30.289062 13.632812-30.289062 30.289062v155.558594c0 16.660156 13.628906 30.289063 30.289062 30.289063h42.234375c2.253907 0 4.414063.894531 6.007813 2.488281l27.867187 27.867187c.917969.917969 2.421875.917969 3.339844 0l27.867187-27.867187c1.59375-1.59375 3.753907-2.488281 6.003907-2.488281 11.480469 0 3.371093.167968 45.15625 0 15.304687-1.480469 27.371093-14.613282 27.371093-30.289063v-155.558594c0-16.65625-13.628906-30.289062-30.289062-30.289062zm0 0" fill="#e4eaf8"/><g fill="#c7d2e5"><path d="m181.484375 223.652344c-.3125 0-.621094.019531-.929687.054687 2.316406-.007812 4.902343-.015625 7.796874-.023437-1.777343-.019532-3.457031-.03125-6.867187-.03125zm0 0"/><path d="m37.871094 193.359375v-155.558594c0-16.65625 13.632812-30.289062 30.289062-30.289062h-30c-16.660156 0-30.289062 13.632812-30.289062 30.289062v155.558594c0 16.660156 13.628906 30.289063 30.289062 30.289063h30c-16.65625.003906-30.289062-13.628907-30.289062-30.289063zm0 0"/><path d="m116.402344 226.136719c-1.59375-1.59375-3.75-2.484375-6.003906-2.484375h-30.003907c2.253907 0 4.414063.894531 6.007813 2.484375l27.867187 27.867187c.917969.917969 2.421875.917969 3.339844 0l13.332031-13.332031zm0 0"/></g><path d="m165.316406 106.835938c2.578125-2.511719 1.15625-6.886719-2.40625-7.40625l-27.507812-3.996094c-1.414063-.207032-2.636719-1.09375-3.265625-2.375l-12.304688-24.925782c-1.589843-3.226562-6.191406-3.226562-7.785156 0l-12.300781 24.925782c-.632813 1.28125-1.855469 2.171875-3.269532 2.375l-27.507812 4c-3.5625.515625-4.984375 4.894531-2.40625 7.40625l19.902344 19.402344c1.023437.996093 1.492187 2.433593 1.25 3.839843l-4.699219 27.398438c-.605469 3.546875 3.117187 6.253906 6.300781 4.578125l24.601563-12.9375c1.265625-.664063 2.777343-.664063 4.042969 0l24.601562 12.9375c3.1875 1.675781 6.910156-1.03125 6.300781-4.578125l-4.699219-27.398438c-.242187-1.40625.226563-2.84375 1.25-3.839843zm0 0" fill="#feca57"/><path d="m117.714844 124.417969c.242187-1.410157-.226563-2.847657-1.246094-3.84375l-19.90625-19.402344c-1.675781-1.632813-1.652344-4.046875-.460938-5.683594l-27.132812 3.945313c-3.5625.515625-4.984375 4.894531-2.40625 7.40625l19.902344 19.402344c1.023437.996093 1.492187 2.433593 1.25 3.839843l-4.699219 27.398438c-.605469 3.546875 3.117187 6.25 6.300781 4.578125l24.121094-12.683594zm0 0" fill="#f4b537"/><path d="m126.476562 89.769531c1.269532-.1875 2.378907-.921875 3.050782-1.996093l-9.695313-19.640626c-1.589843-3.226562-6.191406-3.226562-7.785156 0l-12.300781 24.925782c-.117188.230468-.257813.449218-.40625.652344zm0 0" fill="#f4b537"/><path d="m230.839844 319.765625-28.722656 37.707031c-1.78125 2.339844-5.523438 1.078125-5.523438-1.867187v-143.035157c.007812-9.953124-8.003906-18.03125-17.960938-18.039062-9.953124-.007812-18.035156 8.058594-18.042968 18.015625-.007813 15.84375-.007813 102.515625-.007813 102.515625v-17.46875c0-9.941406-8.324219-18.003906-18.269531-18.003906s-18.003906 8.0625-18.003906 18.003906v4.859375c0-9.945313-8.0625-18.007813-18.007813-18.007813-9.945312 0-18.003906 8.0625-18.003906 18.007813v3.644531c0-9.945312-8.0625-18.007812-18.007813-18.007812-9.945312 0-18.003906 8.0625-18.003906 18.007812v28.109375h.054688l-.054688 76.066407c-.03125 32.480468 25.832032 30.09375 25.816406 56.210937 0 .015625-.011718 20.460937-.011718 20.460937 0 13.71875 8.492187 16.933594 14.097656 17.5625h87.414062c19.351563 0 16.738282-17.191406 16.738282-28.878906.105468-12.035156 1.195312-22.070312 7.191406-28.011718 0 0 11.378906-11.269532 11.46875-11.355469v-.003907c7.917969-7.84375 13-18.605468 13.058594-18.738281l35.523437-81.292969c8.792969-19.074218-17.835937-37.324218-32.742187-16.460937zm0 0" fill="#ffcdbf"/><path d="m102.046875 486.945312s.007813-20.445312.007813-20.464843c.019531-26.117188-25.847657-23.726563-25.816407-56.207031l.054688-76.066407h-.054688c0-7.417969 0 15.34375 0-28.113281 0-5.34375 2.332031-10.140625 6.027344-13.441406-3.179687-2.835938-7.375-4.5625-11.976563-4.5625-9.945312 0-18.007812 8.058594-18.007812 18.003906v28.113281h.058594l-.058594 76.066407c-.027344 32.480468 25.835938 30.089843 25.820312 56.207031 0 .015625-.011718 20.464843-.011718 20.464843 0 13.714844 8.492187 16.929688 14.09375 17.5625h23.957031c-5.605469-.632812-14.09375-3.847656-14.09375-17.5625zm0 0" fill="#ffbeab"/><path d="m254.410156 312.144531c-.011718-.003906-.023437-.007812-.035156-.015625-7.851562-3.570312-17.0625-1.410156-23.527344 7.628906-.003906.003907-.003906.003907-.007812.007813l-28.722656 37.707031c-1.546876 2.03125-4.5625 1.347656-5.332032-.789062l.019532.117187c.226562 1.273438 2.621093 13.183594 12.007812 13.183594 5.296875 0 9.425781-3.019531 12.222656-5.960937l33.757813-44.257813c1.324219-1.851563 2.742187-3.390625 4.214843-4.652344-1.378906-1.199219-2.929687-2.207031-4.597656-2.96875zm0 0" fill="#ffbeab"/><path d="m170.183594 112.195312c7.023437-6.847656 3.140625-18.789062-6.5625-20.199218l-25.863282-3.757813-11.566406-23.4375c-4.34375-8.796875-16.898437-8.796875-21.238281 0l-11.566406 23.4375-25.867188 3.757813c-9.707031 1.410156-13.585937 13.351562-6.5625 20.199218l18.71875 18.246094-4.417969 25.757813c-1.667968 9.703125 8.535157 17.03125 17.179688 12.484375l23.136719-12.164063 23.132812 12.164063c8.683594 4.566406 18.84375-2.816406 17.183594-12.484375l-4.417969-25.761719zm-30.375 8.664063c-2.792969 2.722656-4.066406 6.640625-3.40625 10.480469l3.617187 21.089844-18.9375-9.960938c-3.445312-1.808594-7.566406-1.816406-11.023437 0l-18.9375 9.957031 3.617187-21.089843c.65625-3.84375-.617187-7.761719-3.40625-10.480469l-15.320312-14.933594 21.171875-3.078125c3.859375-.558594 7.191406-2.980469 8.917968-6.476562l9.46875-19.1875 9.472657 19.1875c1.726562 3.496093 5.058593 5.917968 8.914062 6.476562l21.175781 3.078125zm0 0"/><path d="m234.542969 420.644531c.023437-.054687.050781-.105469.070312-.160156l35.507813-81.25c12.457031-27.214844-25.460938-52.042969-45.632813-23.992187l-20.71875 27.203124v-112.792968c15.792969-4.605469 27.371094-19.40625 27.371094-36.304688v-61.722656c0-4.140625-3.359375-7.5-7.5-7.5-4.144531 0-7.503906 3.359375-7.503906 7.5v61.722656c0 8.648438-5.023438 16.386719-12.367188 20.226563 0-16.3125-12.378906-26.476563-25.464843-26.488281-.003907 0-.007813 0-.015626 0-14.179687 0-25.796874 11.398437-25.808593 25.519531v3.53125c-4.429688 0-8.675781.683593-12.675781 4.6875l-24.234376 24.234375-24.234374-24.238282c-3.019532-3.019531-7.039063-4.683593-11.308594-4.683593h-42.238282c-12.5625 0-22.789062-10.222657-22.789062-22.789063v-155.558594c0-12.566406 10.226562-22.789062 22.789062-22.789062h155.558594c12.566406 0 22.792969 10.222656 22.792969 22.789062v58.835938c0 4.144531 3.355469 7.5 7.5 7.5 4.140625 0 7.5-3.355469 7.5-7.5v-58.835938c0-20.835937-16.953125-37.789062-37.792969-37.789062h-155.558594c-20.835937 0-37.789062 16.953125-37.789062 37.789062v155.558594c0 20.835938 16.953125 37.789063 37.789062 37.789063h42.238282c.261718 0 .519531.109375.699218.292969l27.871094 27.867187c3.84375 3.84375 10.101563 3.84375 13.945313 0 31.355469-31.355469 27.433593-28.15625 29.933593-28.15625l-.003906 43.152344c-10.777344-4.917969-23.648437-1.71875-30.90625 7.933593-10.910156-8.476562-26.648437-6.730468-35.4375 4.109376-16.59375-13.679688-41.714844-1.796876-41.714844 19.691406v104.199218c-.035156 35.261719 25.835938 35.015626 25.824219 56.230469l-.011719 20.472657c0 14.199218 7.757813 23.550781 20.757813 25.019531.648437.074219-1.199219.046875 27.773437.046875 4.140626 0 7.5-3.355469 7.5-7.5 0-4.140625-3.359374-7.5-7.5-7.5h-26.476562c-3.710938-.496094-7.054688-2.1875-7.054688-10.0625l.011719-20.46875c.015625-30.144532-25.851562-27.464844-25.828125-56.230469v-104.207031c0-5.796875 4.71875-10.511719 10.511719-10.511719 5.796875 0 10.511719 4.714844 10.511719 10.511719v35.386718c0 4.140626 3.359375 7.5 7.5 7.5 4.144531 0 7.503906-3.359374 7.503906-7.5 0-15.105468 0-23.730468 0-39.03125 0-5.796874 4.714844-10.511718 10.507812-10.511718 5.796876 0 10.511719 4.714844 10.511719 10.511718v39.03125c0 4.140626 3.359375 7.5 7.5 7.5 4.144531 0 7.5-3.359374 7.5-7.5 0-20.375 0-19.410156 0-43.890624 0-5.796876 4.71875-10.511719 10.511719-10.511719 5.71875 0 10.425781 4.652343 10.5 10.371093v44.03125c0 4.140626 3.359375 7.5 7.5 7.5 4.144531 0 7.503906-3.359374 7.503906-7.5 0-62.855468.007813-128.804687.007813-128.804687.007812-5.707031 4.953125-10.523437 10.808593-10.523437h.007813c5.777344.003906 10.476563 4.734374 10.472656 10.546874v152.035157c0 7.15625 9.128907 10.238281 13.464844 4.546875l34.253906-44.96875c.046875-.0625.09375-.121094.136719-.183594 9.566406-13.390625 24.890625-1.992188 19.839844 8.964844-.019532.042968-.042969.089844-.0625.136718l-35.480469 81.199219c-5.960937 12.308594-13.007813 18.007813-22.992187 27.894531-8.496094 8.414063-9.316407 21.589844-9.417969 33.285157 0 .097656 0 .191406.003906.285156.035156 15.203125 1.191406 21.167969-9.246094 21.167969h-25.507812c-4.144531 0-7.5 3.359375-7.5 7.5 0 4.144531 3.355469 7.5 7.5 7.5h25.507812c7.546875 0 13.488281-2.164063 17.664063-6.433594 8.128906-8.308594 6.582031-21.113281 6.582031-29.953125 0-.046875 0-.09375 0-.140625.089844-9.273438.769531-18.394531 4.96875-22.550781 10.277344-10.183594 19.320313-17.746094 26.058594-32.273438zm0 0"/></svg>