<svg height="512pt" viewBox="-82 0 512 512" width="512pt" xmlns="http://www.w3.org/2000/svg"><path d="m331.839844 56.574219c-9.898438 0-303.253906 0-314.269532 0-5.335937 0-9.699218 4.363281-9.699218 9.699219v428.535156c0 5.335937 4.363281 9.703125 9.699218 9.703125h314.269532c5.335937 0 9.703125-4.367188 9.703125-9.703125v-428.535156c0-5.335938-4.367188-9.699219-9.703125-9.699219zm0 0" fill="#bf6122"/><path d="m41.371094 494.808594v-428.535156c0-5.335938 4.367187-9.699219 9.703125-9.699219-18.886719 0-31.390625 0-33.503907 0-5.335937 0-9.699218 4.363281-9.699218 9.699219v428.535156c0 5.335937 4.363281 9.703125 9.699218 9.703125h33.503907c-5.335938 0-9.703125-4.367188-9.703125-9.703125zm0 0" fill="#b2581b"/><path d="m44.257812 105.425781c-2.082031 0-3.769531 1.691407-3.769531 3.773438v358.921875c0 2.085937 1.6875 3.773437 3.769531 3.773437h260.894532c2.085937 0 3.773437-1.6875 3.773437-3.773437v-313.5l-49.195312-49.195313zm0 0" fill="#fff6e9"/><path d="m70.820312 468.121094v-358.921875c0-2.082031 1.691407-3.773438 3.773438-3.773438h-30.335938c-2.082031 0-3.769531 1.691407-3.769531 3.773438v358.921875c0 2.082031 1.6875 3.773437 3.769531 3.773437h30.335938c-2.082031 0-3.773438-1.6875-3.773438-3.773437zm0 0" fill="#f9e4c7"/><path d="m263.503906 154.621094h45.421875l-49.195312-49.195313v45.421875c0 2.085938 1.691406 3.773438 3.773437 3.773438zm0 0" fill="#f9e4c7"/><path d="m289.734375 150.847656v-15.417968l-30.003906-30.003907v45.421875c0 2.085938 1.691406 3.773438 3.773437 3.773438h30.003906c-2.085937 0-3.773437-1.6875-3.773437-3.773438zm0 0" fill="#f2d5b1"/><path d="m183.335938 336.050781c-3.015626 3.019531-7.109376 4.710938-11.375 4.710938-4.269532 0-8.359376-1.691407-11.378907-4.710938l-44.742187-44.746093c-6.285156-6.28125-6.285156-16.46875 0-22.753907 6.28125-6.28125 16.46875-6.28125 22.75 0l30.292968 30.292969c1.699219 1.699219 4.457032 1.699219 6.15625 0l55.167969-55.167969c-15.042969-18.355469-37.890625-30.078125-63.476562-30.078125-45.308594 0-82.035157 36.730469-82.035157 82.035156 0 45.308594 36.726563 82.035157 82.035157 82.035157 45.304687 0 82.03125-36.726563 82.03125-82.035157 0-7.625-1.0625-14.996093-3.007813-22zm0 0" fill="#e4eaf8"/><path d="m114.695312 295.632812c0-1.808593.082032-3.597656.195313-5.375-5.308594-6.320312-5-15.761718.949219-21.707031 1.386718-1.386719 2.976562-2.453125 4.664062-3.226562 10.277344-25.824219 33.277344-45.179688 61.269532-50.339844-4.875-.90625-9.902344-1.382813-15.042969-1.382813-45.308594 0-82.035157 36.726563-82.035157 82.035157 0 45.304687 36.726563 82.03125 82.035157 82.03125 5.125 0 10.132812-.492188 15-1.390625-38.140625-7.054688-67.035157-40.464844-67.035157-80.644532zm0 0" fill="#c7d2e5"/><path d="m188.464844 40.332031c2.921875-3.488281 4.703125-8.085937 4.703125-13.101562 0-10.84375-8.308594-19.71875-18.460938-19.71875-10.15625 0-18.464843 8.875-18.464843 19.71875 0 5.015625 1.785156 9.613281 4.703124 13.101562zm0 0" fill="#c7d2e5"/><path d="m187.207031 12.78125c-3.296875-3.253906-7.683593-5.269531-12.5-5.269531-10.15625 0-18.460937 8.871093-18.460937 19.714843 0 5.019532 1.78125 9.617188 4.699218 13.105469h25.003907c-2.921875-3.492187-4.703125-8.085937-4.703125-13.105469 0-5.699218 2.308594-10.835937 5.960937-14.445312zm0 0" fill="#bac7db"/><path d="m223.75 38.246094h-98.085938c-3.28125 0-5.941406 2.660156-5.941406 5.9375v30.707031c0 3.277344 2.660156 5.9375 5.941406 5.9375h98.085938c3.277344 0 5.9375-2.660156 5.9375-5.9375v-30.707031c0-3.277344-2.660156-5.9375-5.9375-5.9375zm0 0" fill="#e4eaf8"/><path d="m223.75 54.472656h-98.085938c-3.28125 0-5.941406-2.660156-5.941406-5.941406v26.359375c0 3.277344 2.660156 5.9375 5.941406 5.9375h98.085938c3.277344 0 5.9375-2.660156 5.9375-5.9375v-26.359375c0 3.28125-2.660156 5.941406-5.9375 5.941406zm0 0" fill="#c7d2e5"/><path d="m263.59375 233.042969c-6.480469-6.484375-16.976562-6.484375-23.460938 0l-65.449218 65.445312c-1.503906 1.503907-3.949219 1.503907-5.449219 0l-30.292969-30.289062c-6.480468-6.484375-16.972656-6.484375-23.457031 0-6.484375 6.480469-6.484375 16.976562 0 23.457031l44.746094 44.75c6.46875 6.472656 16.980469 6.476562 23.457031 0l79.90625-79.90625c6.484375-6.480469 6.484375-16.976562 0-23.457031zm0 0" fill="#54a0ff"/><path d="m146.484375 291.65625c-5.160156-5.160156-6.199219-12.859375-3.140625-19.058594l-4.402344-4.398437c-6.480468-6.484375-16.972656-6.484375-23.457031 0-6.484375 6.480469-6.484375 16.976562 0 23.457031l44.746094 44.75c6.46875 6.472656 16.980469 6.476562 23.457031 0l3.773438-3.773438zm0 0" fill="#338def"/><path d="m76.824219 295.621094c0 42.65625 29.992187 78.679687 70.441406 87.472656 4.050781.882812 8.042969-1.6875 8.921875-5.734375.882812-4.046875-1.6875-8.042969-5.734375-8.921875-33.972656-7.382812-58.625-38.007812-58.625-72.816406 0-41.097656 33.433594-74.53125 74.53125-74.53125 20.152344 0 39.179687 8.046875 53.15625 22.289062l-47.925781 47.925782-28.0625-28.066407c-9.179688-9.1875-24.105469-9.253906-33.359375 0-9.222657 9.21875-9.222657 24.140625-.003907 33.359375l44.746094 44.746094c9.207032 9.210938 24.144532 9.21875 33.359375 0l52.328125-52.328125c3.355469 37.546875-22.289062 71.585937-58.328125 79.421875-4.050781.878906-6.617187 4.875-5.738281 8.921875.882812 4.054687 4.882812 6.617187 8.921875 5.734375 47.804687-10.390625 79.304687-58.042969 68.230469-107.164062l14.492187-14.488282c9.21875-9.21875 9.222657-24.140625 0-33.359375 0-.003906 0 0 0 0-9.21875-9.222656-24.136719-9.222656-33.359375 0l-4.699218 4.695313c-16.777344-17.050782-39.585938-26.6875-63.757813-26.6875-49.371094-.003906-89.535156 40.160156-89.535156 89.53125zm158.316406-46.652344 10.28125-10.28125c3.355469-3.355469 8.789063-3.359375 12.144531-.003906l.003906.003906c3.351563 3.351562 3.355469 8.785156-.003906 12.144531l-79.902344 79.902344c-3.355468 3.355469-8.789062 3.359375-12.144531 0l-44.746093-44.746094c-3.386719-3.382812-3.328126-8.820312 0-12.144531 3.355468-3.355469 8.789062-3.359375 12.144531 0l30.289062 30.292969c4.625 4.621093 12.140625 4.621093 16.769531 0-.003906 0 55.164063-55.167969 55.164063-55.167969zm0 0"/><path d="m17.203125 512h314.269531c9.484375 0 17.203125-7.71875 17.203125-17.203125v-192.585937c0-4.140626-3.359375-7.5-7.503906-7.5-4.140625 0-7.5 3.359374-7.5 7.5v192.585937c0 1.191406-1.007813 2.203125-2.199219 2.203125h-314.269531c-1.191406 0-2.203125-1.011719-2.203125-2.203125v-428.535156c0-1.191407 1.011719-2.199219 2.203125-2.199219h86.292969v10.816406c0 7.410156 6.027344 13.4375 13.4375 13.4375h10.214844v9.597656h-83.257813c-6.21875 0-11.273437 5.058594-11.273437 11.273438v358.921875c0 6.214844 5.058593 11.273437 11.273437 11.273437h260.894531c6.214844 0 11.273438-5.058593 11.273438-11.273437v-313.5c0-2.0625-.867188-3.972656-2.199219-5.304687l-49.191406-49.195313c-1.4375-1.433594-3.394531-2.195313-5.304688-2.195313h-37.839843v-9.597656h1.855468c7.410156 0 13.4375-6.027344 13.4375-13.4375v-10.816406h94.652344c1.195312 0 2.203125 1.007812 2.203125 2.199219v200.949219c0 4.140624 3.355469 7.5 7.5 7.5s7.5-3.359376 7.5-7.5v-200.949219c0-9.484375-7.71875-17.203125-17.203125-17.203125h-94.652344v-4.886719c0-7.410156-6.027344-13.4375-13.4375-13.4375h-23.527344c.292969-1.566406.445313-3.160156.445313-4.773437.003906-14.3125-11.644531-25.960938-25.960937-25.960938-14.3125 0-25.960938 11.648438-25.960938 25.960938 0 1.613281.152344 3.207031.445312 4.773437h-23.527343c-7.410157 0-13.4375 6.027344-13.4375 13.4375v4.941406c-.28125-.03125-.566407-.054687-.859375-.054687h-93.792969c-9.484375 0-17.203125 7.71875-17.203125 17.203125v428.535156c0 9.484375 7.71875 17.203125 17.203125 17.203125zm249.660156-388.476562c8.535157 8.535156 15.050781 15.050781 23.585938 23.585937h-23.585938zm-15.003906-10.609376v37.921876c0 6.214843 5.058594 11.273437 11.273437 11.273437h37.921876v302.273437h-253.4375v-351.46875h79.53125v8.160157c0 8.617187 7.011718 15.628906 15.632812 15.628906h63.113281c8.617188 0 15.628907-7.011719 15.628907-15.628906v-8.160157zm-45.335937 0v8.160157c0 .347656-.28125.628906-.628907.628906h-63.113281c-.351562 0-.632812-.28125-.632812-.628906v-8.160157zm-64.375-15v-9.597656h64.375v9.597656zm32.1875-82.914062c6.046874 0 10.960937 4.917969 10.960937 10.960938 0 1.664062-.382813 3.292968-1.105469 4.773437h-19.707031c-.722656-1.480469-1.109375-3.109375-1.109375-4.773437 0-6.042969 4.917969-10.960938 10.960938-10.960938zm-47.480469 30.734375h94.960937v27.582031c-9.53125 0-85.269531 0-94.960937 0zm0 0"/></svg>