<svg height="512pt" viewBox="0 -28 512.00053 512" width="512pt" xmlns="http://www.w3.org/2000/svg"><path d="m352.707031 161.75c-3.835937 3.835938-9.039062 5.992188-14.464843 5.992188-5.425782 0-10.628907-2.15625-14.464844-5.992188l-56.894532-56.898438c-7.992187-7.988281-7.992187-20.941406 0-28.929687 7.988282-7.988281 20.941407-7.988281 28.929688 0l38.515625 38.515625c2.160156 2.164062 5.667969 2.164062 7.828125 0l70.148438-70.144531c-19.128907-23.347657-48.179688-38.246094-80.714844-38.246094-57.605469 0-104.308594 46.699219-104.308594 104.308594s46.699219 104.308593 104.308594 104.308593 104.308594-46.699218 104.308594-104.308593c0-9.695313-1.347657-19.066407-3.824219-27.972657zm0 0" fill="#54a0ff"/><path d="m257.585938 110.355469c0-52.464844 38.738281-95.878907 89.167968-103.210938-4.949218-.722656-10.011718-1.097656-15.164062-1.097656-57.609375 0-104.308594 46.699219-104.308594 104.308594s46.699219 104.308593 104.308594 104.308593c5.148437 0 10.207031-.378906 15.152344-1.097656-50.425782-7.339844-89.15625-50.75-89.15625-103.210937zm0 0" fill="#338def"/><path d="m454.660156 30.863281c-8.1875-8.191406-21.445312-8.191406-29.636718 0l-83.222657 83.21875c-1.960937 1.964844-5.15625 1.964844-7.121093 0l-38.515626-38.515625c-8.1875-8.191406-21.445312-8.191406-29.636718 0s-8.191406 21.445313 0 29.636719l56.894531 56.898437c8.175781 8.179688 21.453125 8.1875 29.636719 0l101.601562-101.601562c8.191406-8.1875 8.191406-21.445312 0-29.636719zm0 0" fill="#feca57"/><path d="m351.671875 162.101562-56.894531-56.898437c-8.191406-8.191406-8.191406-21.445313 0-29.636719.222656-.222656.464844-.414062.691406-.625-8.226562-7.535156-20.972656-7.34375-28.941406.625-8.191406 8.191406-8.191406 21.445313 0 29.636719l56.894531 56.898437c7.953125 7.957032 20.71875 8.15625 28.945313.625-.230469-.210937-.472657-.402343-.695313-.625zm0 0" fill="#f4b537"/><g fill="#ffbeab"><path d="m467.707031 323.285156-95.402343 6.636719c2.039062-2.6875 4.605468-5.046875 7.6875-6.871094l66.726562-39.613281c12.765625-7.578125 29.261719-3.375 36.84375 9.394531 5.800781 9.773438 4.675781 21.71875-1.886719 30.191407-6.929687-.988282-12.941406.121093-13.96875.261718zm0 0"/><path d="m478.703125 302.28125-72.183594 5.019531-26.527343 15.75c-3.082032 1.828125-5.648438 4.183594-7.6875 6.871094l95.402343-6.632813c1.027344-.144531 7.039063-1.253906 13.964844-.265624 4.691406-6.046876 6.585937-13.871094 5.183594-21.410157-4.238281-.007812-7.429688.566407-8.152344.667969zm0 0"/><path d="m168.417969 359.167969-15.160157 6.242187-42.867187-104.097656c22.214844-9.042969 45.1875-16.128906 68.691406-20.910156 26.289063-5.34375 35.585938-3.695313 84.273438 6.933594 15.835937 3.777343 22.378906 9.671874 79.609375 48.660156 20.648437 14.0625 8.292968 34.386718 8.292968 34.386718l116.445313-8.101562c2.339844-.328125 30.527344-5.660156 36.535156 20.171875 4.785157 24.078125-19.617187 32.222656-24.386719 33.46875l-155.320312 31.203125s-.007812.003906-.019531.003906c-23.511719 6.140625-42.804688-3.125-50.984375-8.140625l-45.855469-31.238281c-17.578125-11.972656-39.808594-16.589844-59.253906-8.582031zm0 0"/><path d="m168.417969 359.167969-15.160157 6.242187-42.867187-104.097656c22.214844-9.042969 45.1875-16.128906 68.691406-20.910156 26.289063-5.34375 35.585938-3.695313 84.273438 6.933594 15.835937 3.777343 22.378906 9.671874 79.609375 48.660156 20.648437 14.0625 8.292968 34.386718 8.292968 34.386718l116.445313-8.101562c2.339844-.328125 30.527344-5.660156 36.535156 20.171875 4.785157 24.078125-19.617187 32.222656-24.386719 33.46875l-155.320312 31.203125s-.007812.003906-.019531.003906c-23.511719 6.140625-42.804688-3.125-50.984375-8.140625l-45.855469-31.238281c-17.578125-11.972656-39.808594-16.589844-59.253906-8.582031zm0 0"/><path d="m134.417969 252.421875c-8.097657 2.707031-16.109375 5.671875-24.023438 8.894531l42.863281 104.09375 15.160157-6.242187c1.351562-.558594 2.722656-1.050781 4.109375-1.492188zm0 0"/><path d="m292.699219 397.175781c-51.757813-38.640625-53.171875-41.816406-73.574219-46.613281-17.847656-4.199219-29.453125 1.257812-42.53125 5.992188 15.113281-3.53125 34.0625-.394532 51.078125 11.195312l45.855469 31.242188c7.640625 4.683593 24.984375 13.074218 46.402344 9.152343-12.5-2.125-22.105469-7.511719-27.230469-10.96875zm0 0"/><path d="m340.441406 351.332031c12.898438 0 21.953125-9.375 25.554688-15.890625.035156-.058594.066406-.117187.097656-.175781l3.183594-6.136719-17.886719 1.242188c-2.664063 3.359375-8.761719 8.710937-18.3125 3.996094-19.070313-9.410157-64.546875-31.632813-65.003906-31.855469-3.71875-1.816407-8.210938-.277344-10.027344 3.445312-1.820313 3.71875-.277344 8.210938 3.441406 10.027344.457031.222656 45.910157 22.433594 64.953125 31.832031 5.050782 2.492188 9.734375 3.515625 14 3.515625zm0 0"/></g><path d="m160.265625 378.273438-53.789063-130.628907c-2.25-5.464843-8.507812-8.074219-13.976562-5.820312l-77.765625 32.023437c-4.152344 1.707032-6.863281 5.757813-6.863281 10.25v156.03125c0 5.871094 5.953125 9.863282 11.382812 7.632813l135.191406-55.511719c5.464844-2.25 8.074219-8.507812 5.820313-13.976562zm0 0" fill="#54a0ff"/><path d="m27.863281 439.53125v-167.378906c0-1.390625.25-2.738282.703125-4l-13.832031 5.695312c-4.152344 1.707032-6.863281 5.757813-6.863281 10.25v156.03125c0 5.871094 5.957031 9.863282 11.382812 7.632813l9.691406-3.976563c-.6875-1.246094-1.082031-2.6875-1.082031-4.253906zm0 0" fill="#54a0ff"/><path d="m467.707031 323.285156-95.402343 6.636719c2.039062-2.6875 4.605468-5.046875 7.6875-6.871094l66.726562-39.613281c12.765625-7.578125 29.261719-3.375 36.84375 9.394531 5.800781 9.773438 4.675781 21.71875-1.886719 30.191407-6.929687-.988282-12.941406.121093-13.96875.261718zm0 0" fill="#ffcdbf"/><path d="m478.703125 302.28125-72.183594 5.019531-26.527343 15.75c-3.082032 1.828125-5.648438 4.183594-7.6875 6.871094l95.402343-6.632813c1.027344-.144531 7.039063-1.253906 13.964844-.265624 4.691406-6.046876 6.585937-13.871094 5.183594-21.410157-4.238281-.007812-7.429688.566407-8.152344.667969zm0 0" fill="#ffbeab"/><path d="m168.417969 359.167969-15.160157 6.242187-42.867187-104.097656c22.214844-9.042969 45.1875-16.128906 68.691406-20.910156 26.289063-5.34375 35.585938-3.695313 84.273438 6.933594 15.835937 3.777343 22.378906 9.671874 79.609375 48.660156 20.648437 14.0625 8.292968 34.386718 8.292968 34.386718l116.445313-8.101562c2.339844-.328125 30.527344-5.660156 36.535156 20.171875 4.785157 24.078125-19.617187 32.222656-24.386719 33.46875l-155.320312 31.203125s-.007812.003906-.019531.003906c-23.511719 6.140625-42.804688-3.125-50.984375-8.140625l-45.855469-31.238281c-17.578125-11.972656-39.808594-16.589844-59.253906-8.582031zm0 0" fill="#ffbeab"/><path d="m168.417969 359.167969-15.160157 6.242187-42.867187-104.097656c22.214844-9.042969 45.1875-16.128906 68.691406-20.910156 26.289063-5.34375 35.585938-3.695313 84.273438 6.933594 15.835937 3.777343 22.378906 9.671874 79.609375 48.660156 20.648437 14.0625 8.292968 34.386718 8.292968 34.386718l116.445313-8.101562c2.339844-.328125 30.527344-5.660156 36.535156 20.171875 4.785157 24.078125-19.617187 32.222656-24.386719 33.46875l-155.320312 31.203125s-.007812.003906-.019531.003906c-23.511719 6.140625-42.804688-3.125-50.984375-8.140625l-45.855469-31.238281c-17.578125-11.972656-39.808594-16.589844-59.253906-8.582031zm0 0" fill="#ffcdbf"/><path d="m134.417969 252.421875c-8.097657 2.707031-16.109375 5.671875-24.023438 8.894531l42.863281 104.09375 15.160157-6.242187c1.351562-.558594 2.722656-1.050781 4.109375-1.492188zm0 0" fill="#ffbeab"/><path d="m292.699219 397.175781c-51.757813-38.640625-53.171875-41.816406-73.574219-46.613281-17.847656-4.199219-29.453125 1.257812-42.53125 5.992188 15.113281-3.53125 34.0625-.394532 51.078125 11.195312l45.855469 31.242188c7.640625 4.683593 24.984375 13.074218 46.402344 9.152343-12.5-2.125-22.105469-7.511719-27.230469-10.96875zm0 0" fill="#ffbeab"/><path d="m160.265625 378.273438-53.789063-130.628907c-2.25-5.464843-8.507812-8.074219-13.976562-5.820312l-77.765625 32.023437c-4.152344 1.707032-6.863281 5.757813-6.863281 10.25v156.03125c0 5.871094 5.953125 9.863282 11.382812 7.632813l135.191406-55.511719c5.464844-2.25 8.074219-8.507812 5.820313-13.976562zm0 0" fill="#54a0ff"/><path d="m27.863281 439.53125v-167.378906c0-1.390625.25-2.738282.703125-4l-13.832031 5.695312c-4.152344 1.707032-6.863281 5.757813-6.863281 10.25v156.03125c0 5.871094 5.957031 9.863282 11.382812 7.632813l9.691406-3.976563c-.6875-1.246094-1.082031-2.6875-1.082031-4.253906zm0 0" fill="#338def"/><path d="m459.242188 25.902344c-.003907-.003906-.003907 0 0 0-10.925782-10.925782-28.609376-10.929688-39.539063 0l-7.449219 7.449218c-16.628906-17.5-38.449218-29.21875-62.28125-33.246093-4.085937-.691407-7.957031 2.0625-8.648437 6.144531-.6875 4.085938 2.0625 7.957031 6.148437 8.648438 20.75 3.503906 39.757813 13.738281 54.1875 29.046874l-63.789062 63.789063-37.125-37.128906c-10.925782-10.925781-28.609375-10.925781-39.539063 0-10.925781 10.925781-10.929687 28.609375 0 39.539062l56.894531 56.894531c10.925782 10.925782 28.613282 10.929688 39.539063 0l69.53125-69.527343c7.808594 58.1875-37.730469 109.640625-95.953125 109.640625-53.378906 0-96.808594-43.425782-96.808594-96.808594 0-47.417969 33.878906-87.554688 80.558594-95.441406 4.085938-.691406 6.835938-4.5625 6.148438-8.648438-.691407-4.082031-4.566407-6.839844-8.648438-6.144531-25.742188 4.347656-49.300781 17.738281-66.339844 37.703125-61.414062 71.96875-10.46875 184.34375 85.089844 184.34375 71.628906 0 125.441406-66.980469 108.804688-137.5l19.21875-19.214844c10.925781-10.925781 10.925781-28.609375 0-39.539062zm-10.609376 28.929687-101.601562 101.601563c-5.0625 5.0625-13.257812 5.0625-18.320312 0l-56.898438-56.898438c-5.0625-5.0625-5.066406-13.257812 0-18.320312 5.0625-5.066406 13.257812-5.066406 18.324219 0l38.515625 38.515625c5.082031 5.082031 13.351562 5.082031 18.4375 0 2.304687-2.304688 77.464844-77.464844 83.222656-83.21875 5.0625-5.0625 13.257812-5.070313 18.320312-.003907l.003907.003907c5.0625 5.058593 5.0625 13.253906-.003907 18.320312zm0 0"/><path d="m511.175781 340.257812c-2.582031-11.117187-9.238281-19.109374-18.722656-23.269531 3.507813-9.5 2.664063-20.195312-2.71875-29.265625-9.644531-16.246094-30.714844-21.617187-46.960937-11.972656l-66.433594 39.4375c-2.785156 1.652344-5.292969 3.675781-7.492188 6.027344l-6.511718.453125c1.621093-10-.769532-22.601563-14.8125-32.164063-55.089844-37.53125-64.933594-45.855468-81.886719-49.578125-49.128907-10.722656-59.253907-12.5625-86.996094-6.925781-20.976563 4.269531-42.058594 10.488281-62.769531 18.484375l-2.792969-6.78125c-3.832031-9.304687-14.464844-13.738281-23.773437-9.90625l-77.792969 32.035156c-6.992188 2.882813-11.511719 9.628907-11.511719 17.191407v156.089843c0 11.242188 11.421875 18.8125 21.738281 14.578125l135.246094-55.539062c9.285156-3.824219 13.726563-14.484375 9.90625-23.773438 0 0 0 0-.003906 0l-2.671875-6.488281 8.164062-3.359375c17.097656-7.042969 36.667969-2.570312 51.914063 7.808594l45.65625 31.105468c4.089843 2.792969 8.921875 1.777344 11.195312-2.007812 2.132813-3.550781.984375-8.160156-2.566406-10.292969l-45.84375-31.203125c-19.324219-13.160156-44.070313-18.34375-66.070313-9.28125l-8.160156 3.359375-36.925781-89.675781c19.832031-7.636719 40-13.5625 60.054687-17.640625 29.777344-6.054687 39.964844-1.292969 80.667969 6.847656 14.226563 3.394531 20.363281 8.917969 76.777344 47.351563 8.480469 5.777344 11.398437 14.480468 5.917969 24.402344-.625 1.128906-6.417969 10.863281-17.414063 5.441406-17.539062-8.65625-59.363281-29.09375-59.78125-29.300782-3.726562-1.816406-8.214843-.273437-10.03125 3.445313-1.820312 3.722656-.277343 8.214844 3.445313 10.03125.421875.207031 42.21875 20.632813 59.730468 29.273437 13.777344 6.796876 26.90625 2.042969 34.773438-8.027343 155.972656-10.851563 113.421875-8.164063 125.625-8.054688 6.875 1.210938 12.988281 5.121094 15.191406 14.421875 3.378906 17.429688-14.488281 23.3125-18.644531 24.4375-171.335937 34.417969-161.289063 32.839844-168.226563 32.890625-4.144531.03125-7.476562 3.414063-7.445312 7.558594.03125 4.125 3.382812 7.441406 7.5 7.441406h.054688c8.523437-.0625-3.261719 1.835938 171.296874-33.230469 8.882813-1.789062 35.8125-13.671874 30.15625-42.136718-.015624-.078125-.03125-.160156-.050781-.238282zm-358.15625 40.835938c.671875 1.632812-.109375 3.515625-1.738281 4.183594l-135.242188 55.535156c-.101562.042969-.371093.152344-.703124-.070312-.335938-.222657-.335938-.515626-.335938-.628907v-156.089843c0-1.460938.871094-2.761719 2.222656-3.316407l77.796875-32.035156c1.636719-.675781 3.515625.105469 4.1875 1.746094 1.539063 3.734375 51.21875 124.375 53.8125 130.675781zm324.515625-67.351562c-5.148437-.195313 4.394532-.390626-78.417968 5.367187l51.3125-30.460937c9.140624-5.425782 20.980468-2.402344 26.402343 6.734374 3.394531 5.710938 3.578125 12.578126.703125 18.359376zm0 0"/></svg>