<svg height="512pt" viewBox="0 -11 512.00135 512" width="512pt" xmlns="http://www.w3.org/2000/svg"><path d="m498.800781 207.835938c11.878907-11.578126 5.324219-31.75-11.089843-34.132813l-137.042969-19.914063c-6.515625-.945312-12.152344-5.039062-15.066407-10.945312l-61.285156-124.183594c-7.339844-14.875-28.550781-14.875-35.890625 0l-61.289062 124.183594c-2.914063 5.90625-8.546875 10-15.066407 10.945312l-137.042968 19.914063c-16.414063 2.386719-22.96875 22.554687-11.089844 34.132813l99.164062 96.664062c4.714844 4.597656 6.867188 11.21875 5.753907 17.710938l-23.40625 136.488281c-2.804688 16.347656 14.351562 28.8125 29.035156 21.097656l122.570313-64.441406c5.832031-3.066407 12.796874-3.066407 18.628906 0l122.574218 64.441406c14.679688 7.71875 31.839844-4.75 29.035157-21.097656l-23.410157-136.488281c-1.113281-6.492188 1.039063-13.117188 5.753907-17.710938zm0 0" fill="#feca57"/><path d="m192.070312 148.789062c6.519532-.949218 12.152344-5.039062 15.070313-10.945312l61.285156-124.183594c.257813-.519531.535157-1.015625.824219-1.5-9.367188-7.894531-24.785156-5.734375-30.824219 6.5l-61.289062 124.183594c-2.160157 4.378906-5.820313 7.761719-10.226563 9.601562zm0 0" fill="#f4b537"/><path d="m125.449219 453.699219 23.410156-136.488281c1.113281-6.492188-1.039063-13.117188-5.757813-17.710938l-99.164062-96.664062c-10.605469-10.335938-6.503906-27.519532 6.179688-32.777344l-25.089844 3.644531c-16.414063 2.386719-22.96875 22.558594-11.089844 34.132813l99.164062 96.664062c4.714844 4.597656 6.867188 11.21875 5.753907 17.710938l-23.40625 136.488281c-2.804688 16.347656 14.351562 28.8125 29.035156 21.097656l10.480469-5.511719c-6.664063-3.976562-11.039063-11.703125-9.515625-20.585937zm0 0" fill="#f4b537"/><path d="m376.136719 281.363281c.355469-11.042969-8.574219-20.210937-19.5625-20.210937h-.039063v-.007813h1.632813c10.664062-.007812 19.304687-8.664062 19.296875-19.328125-.007813-10.671875-8.660156-19.253906-19.328125-19.246094-8.890625 0-70.90625 0-80.355469 0-2.242188 0-3.824219-2.1875-3.128906-4.316406l7.042968-21.5c5.992188-18.292968 4.925782-30.753906 4.925782-52.183594 0-12.605468-10.21875-22.824218-22.824219-22.824218-11.449219 0-21.125 8.484375-22.625 19.835937-1.660156 12.558594-2.777344 34.894531-23.539063 54.886719l-14.65625 14.113281c-8.164062 7.859375-19.054687 12.25-30.390624 12.25h-19.25v126.691407c5.234374-.003907 15.757812-.003907 15.765624-.003907 27.980469-.019531 25.421876 27.691407 60.21875 27.65625h118.429688c10.652344 0 19.289062-8.636719 19.289062-19.289062 0-10.652344-8.636718-19.289063-19.289062-19.289063h3.394531c10.488281 0 19.4375-8.152344 19.785157-18.632812.367187-10.953125-8.40625-19.949219-19.277344-19.949219h4.691406c10.492188 0 19.453125-8.164063 19.792969-18.652344zm0 0" fill="#ffcdbf"/><path d="m347.75 354.667969h-118.429688c-34.796874.03125-32.238281-27.679688-60.21875-27.660157-.003906 0-10.527343 0-15.765624.003907v22.511719c5.238281 0 15.761718-.003907 15.765624-.003907 27.980469-.019531 25.421876 27.691407 60.21875 27.660157h118.429688c10.652344 0 19.289062-8.636719 19.289062-19.292969 0-4.207031-1.359374-8.085938-3.644531-11.253907-3.503906 4.855469-9.195312 8.035157-15.644531 8.035157zm0 0" fill="#ffbeab"/><path d="m111.796875 363.386719h36.0625c5.511719 0 9.980469-4.46875 9.980469-9.980469v-131.976562c0-5.511719-4.46875-9.980469-9.980469-9.980469h-130.214844l95.457031 93.046875c4.714844 4.597656 6.867188 11.222656 5.753907 17.714844zm0 0" fill="#54a0ff"/><path d="m143.101562 299.496094-90.328124-88.046875h-35.128907l95.457031 93.046875c4.71875 4.597656 6.867188 11.222656 5.757813 17.714844l-7.0625 41.175781h29.140625l7.921875-46.175781c1.113281-6.492188-1.039063-13.117188-5.757813-17.714844zm0 0" fill="#338def"/><path d="m8.332031 213.195312c2.671875 2.605469 81.859375 79.792969 99.164063 96.660157 2.949218 2.875 4.296875 7.015625 3.597656 11.074219l-23.40625 136.488281c-3.855469 22.46875 19.746094 39.605469 39.917969 29.003906l122.574219-64.441406c3.644531-1.917969 7.996093-1.917969 11.644531 0l122.570312 64.441406c20.183594 10.605469 43.769531-6.558594 39.921875-29.003906l-10.980468-64.019531c-.703126-4.082032-4.582032-6.828126-8.660157-6.125-4.082031.699218-6.824219 4.578124-6.125 8.660156l10.980469 64.019531c1.753906 10.238281-8.949219 18.03125-18.152344 13.191406l-122.574218-64.441406c-8.019532-4.214844-17.59375-4.214844-25.605469 0l-122.574219 64.441406c-9.1875 4.835938-19.914062-2.9375-18.152344-13.191406l15.277344-89.078125h29.738281c8.402344 0 15.433594-5.957031 17.101563-13.867188h4.148437.023438c10.175781 0 14.773437 4.445313 21.140625 10.59375 7.867187 7.605469 17.652344 17.0625 38.980468 17.0625h.070313 16.597656c4.144531 0 7.5-3.359374 7.5-7.5 0-4.140624-3.355469-7.5-7.5-7.5h-16.605469c-.019531 0-.035156 0-.054687 0-15.269531 0-21.433594-5.953124-28.566406-12.847656-7.183594-6.941406-15.320313-14.8125-31.558594-14.8125-.011719 0-.023437 0-.03125 0l-3.765625.003906v-111.683593c7.945312 0 26.296875 1.574219 42.839844-14.351563 26.007812-25.039062 34.867187-31.296875 40.429687-73.421875 1.003907-7.589843 7.53125-13.316406 15.191407-13.316406 8.449218 0 15.320312 6.875 15.320312 15.324219 0 21.175781 1.019531 32.835937-4.554688 49.847656l-7.042968 21.5c-2.28125 6.964844 2.921875 14.152344 10.257812 14.152344h80.371094c6.511719 0 11.808594 5.269531 11.8125 11.746094.003906 6.515624-5.289062 11.820312-11.796875 11.824218-11.011719.011719 17.074219.007813-32.316406.007813-4.144531 0-7.5 3.359375-7.5 7.503906 0 4.140625 3.355469 7.5 7.5 7.5.515625 0 31.066406 0 30.722656 0 6.773437 0 12.285156 5.667969 12.066406 12.46875-.203125 6.28125-5.71875 11.390625-12.296875 11.390625-14.644531 0 7.035156.007812-30.492187.007812-4.144531 0-7.5 3.359376-7.5 7.503907 0 4.140625 3.355469 7.5 7.5 7.5 6.175781 0-14.585938-.007813 25.800781-.007813 6.632812 0 12.007812 5.46875 11.78125 12.199219-.207031 6.273437-5.71875 11.378906-12.285156 11.378906 0 0-1.644532.007813-25.296875.007813-4.144531 0-7.5 3.359375-7.5 7.5 0 4.144531 3.355469 7.5 7.5 7.5h22.050781c6.429688.085937 11.636719 5.335937 11.636719 11.785156 0 6.5-5.285157 11.789062-11.789063 11.789062h-66.828125c-4.140625 0-7.5 3.359376-7.5 7.5 0 4.140626 3.359375 7.5 7.5 7.5h66.828125c14.773438 0 26.792969-12.019531 26.792969-26.789062 0-6.71875-2.484375-12.863281-6.582031-17.570312 6.132812-4.746094 10.195312-11.996094 10.46875-20.101563.21875-6.59375-1.917969-12.867187-6.050782-17.890625 6.574219-4.730469 10.980469-12.257812 11.253907-20.71875.238281-7.375-2.46875-14.371094-7.621094-19.695312-.019531-.015626-.035156-.035157-.050781-.050782 5.527344-4.917968 9.011718-12.085937 9.007812-20.050781-.015625-14.75-12.042968-26.738281-26.808594-26.738281-.007812 0-.015624 0-.023437 0h-74.550781l5.234375-15.980469c6.414062-19.570313 5.300781-32.910156 5.300781-54.519531 0-16.71875-13.601562-30.324219-30.324219-30.324219-15.152343 0-28.078125 11.332031-30.0625 26.355469-1.601562 12.117187-2.558593 32.414062-21.304687 50.464844l-14.65625 14.113281c-6.800782 6.546875-15.746094 10.152343-25.1875 10.152343h-8.367188c-2.480468-6.636718-8.867187-11.382812-16.363281-11.382812h-127.15625l-1.523437-1.484375c-7.4375-7.246094-3.359376-19.84375 6.933593-21.339844l137.042969-19.914062c8.960938-1.300781 16.703125-6.929688 20.714844-15.050781l61.285156-124.179688c4.597656-9.3125 17.835938-9.328125 22.4375 0l61.289062 124.179688c4.007813 8.121093 11.75 13.746093 20.714844 15.050781l137.042969 19.914062c10.277344 1.492188 14.378906 14.082031 6.933594 21.339844l-99.164063 96.660156c-6.488281 6.324219-9.445312 15.425781-7.914062 24.351563l6.425781 37.464844c.699219 4.082031 4.578125 6.824218 8.660156 6.125 4.085938-.699219 6.824219-4.578126 6.125-8.660157l-6.425781-37.464843c-.695312-4.058594.648438-8.199219 3.597656-11.074219l99.164063-96.660157c16.324219-15.910156 7.304687-43.652343-15.246094-46.925781l-137.042969-19.914062c-4.074218-.59375-7.597656-3.152344-9.421875-6.84375l-61.285156-124.183594c-10.089844-20.441406-39.257813-20.433594-49.34375 0l-61.285156 124.179687c-1.824219 3.695313-5.34375 6.253907-9.421875 6.847657l-137.042969 19.914062c-22.558594 3.277344-31.5625 31.019531-15.246094 46.925781zm139.15625 5.742188c1.367188 0 2.480469 1.113281 2.480469 2.480469v131.976562c0 1.367188-1.113281 2.480469-2.480469 2.480469h-27.167969l5.558594-32.40625c1.53125-8.929688-1.425781-18.03125-7.910156-24.355469l-82.253906-80.171875h111.773437zm0 0"/></svg>