<svg height="512pt" viewBox="-80 0 512 512" width="512pt" xmlns="http://www.w3.org/2000/svg"><path d="m252.421875 43.800781c-.105469-.128906-.199219-.261719-.300781-.390625-19.390625 6.804688-58.382813 16.359375-91.015625-1.476562-37.941407-20.734375-77.34375-9.238282-89.308594-4.882813-2.203125.800781-3.65625 2.863281-3.65625 5.15625v112.222657c0 3.746093 3.75 6.410156 7.394531 5.238281 15.089844-4.839844 50.9375-12.765625 85.574219 6.160156 32.800781 17.929687 72.027344 8.179687 91.3125 1.371094zm0 0" fill="#ff6b6b"/><path d="m98.144531 149.722656v-115.546875c0-1.292969.460938-2.507812 1.242188-3.484375-12.625 1.425782-22.546875 4.523438-27.585938 6.359375-2.207031.800781-3.65625 2.863281-3.65625 5.15625v112.222657c0 3.746093 3.746094 6.410156 7.394531 5.238281 5.769532-1.847657 14.585938-4.148438 25.199219-5.226563-1.539062-1.003906-2.59375-2.707031-2.59375-4.71875zm0 0" fill="#ee5253"/><path d="m247.878906 469.503906v17.421875c0 9.710938 7.871094 17.585938 17.585938 17.585938 9.710937 0 17.582031-7.875 17.582031-17.585938v-17.421875zm0 0" fill="#ce7132"/><path d="m270.292969 486.925781v-17.421875h-22.414063v17.421875c0 9.710938 7.871094 17.585938 17.585938 17.585938 4.257812 0 8.164062-1.515625 11.207031-4.035157-3.894531-3.226562-6.378906-8.097656-6.378906-13.550781zm0 0" fill="#b2581b"/><path d="m265.464844 47.34375c-7.136719 0-13.484375-3.347656-17.585938-8.542969v253.382813c0 4.769531 3.867188 8.636718 8.636719 8.636718h26.53125v-262.019531c-4.105469 5.195313-10.449219 8.542969-17.582031 8.542969zm0 0" fill="#ce7132"/><path d="m270.292969 292.183594v-245.371094c-1.554688.34375-3.167969.53125-4.828125.53125-7.136719 0-13.480469-3.347656-17.585938-8.542969v253.382813c0 4.769531 3.867188 8.636718 8.636719 8.636718h22.417969c-4.773438 0-8.640625-3.867187-8.640625-8.636718zm0 0" fill="#b2581b"/><path d="m322.253906 341.410156h-.042968v-.007812h1.84375c12.050781-.011719 21.8125-9.792969 21.804687-21.839844-.007813-12.054688-9.789063-21.753906-21.839844-21.742188-6.167969 0-17.1875 0-40.972656 0h-26.53125c-4.769531 0-8.636719-3.867187-8.636719-8.640624v-44.578126l-5.652344.671876c-16.613281 1.96875-32.636718 7.382812-47.039062 15.886718-8.070312 4.761719-15.554688 10.453125-22.304688 16.949219l-6.398437 6.164063c-9.222656 8.882812-21.53125 13.84375-34.335937 13.84375h-22.664063v143.140624c5.917969-.003906 18.71875-.003906 18.726563-.003906 31.613281-.019531 28.722656 31.285156 68.039062 31.25h116.035156c12.039063 0 21.796875-9.757812 21.796875-21.796875 0-12.035156-9.761719-21.796875-21.796875-21.796875h3.839844c11.84375 0 21.957031-9.207031 22.351562-21.046875.414063-12.378906-9.496093-22.542969-21.78125-22.542969h5.300782c11.855468 0 21.976562-9.222656 22.359375-21.074218.40625-12.476563-9.6875-22.835938-22.101563-22.835938zm0 0" fill="#ffcdbf"/><path d="m312.285156 445.785156h-116.035156c-39.316406.035156-36.425781-31.273437-68.039062-31.253906-.007813 0-12.808594.003906-18.726563.007812v26.71875c5.917969-.003906 18.71875-.003906 18.726563-.003906 31.613281-.019531 28.722656 31.285156 68.039062 31.25h116.035156c12.039063 0 21.796875-9.757812 21.796875-21.796875 0-5.035156-1.714843-9.667969-4.582031-13.359375-3.988281 5.132813-10.214844 8.4375-17.214844 8.4375zm0 0" fill="#ffbeab"/><path d="m115.484375 445.421875v-152.78125c0-6.382813-5.171875-11.554687-11.550781-11.554687h-84.507813c-6.382812 0-11.554687 5.175781-11.554687 11.554687v152.78125c0 6.378906 5.171875 11.550781 11.554687 11.550781h84.507813c6.378906 0 11.550781-5.171875 11.550781-11.550781zm0 0" fill="#54a0ff"/><path d="m37.871094 445.421875v-152.78125c0-6.382813 5.175781-11.554687 11.554687-11.554687h-30c-6.382812 0-11.554687 5.175781-11.554687 11.554687v152.777344c0 6.382812 5.171875 11.554687 11.554687 11.554687h30c-6.382812 0-11.554687-5.171875-11.554687-11.550781zm0 0" fill="#338def"/><path d="m287.878906 29.929688c0 12.378906-10.035156 22.414062-22.414062 22.414062-12.382813 0-22.417969-10.035156-22.417969-22.414062 0-12.378907 10.035156-22.417969 22.417969-22.417969 12.378906 0 22.414062 10.039062 22.414062 22.417969zm0 0" fill="#e4eaf8"/><path d="m269.046875 29.929688c0-7.53125 3.71875-14.191407 9.417969-18.257813-3.667969-2.613281-8.152344-4.160156-13-4.160156-12.382813 0-22.417969 10.035156-22.417969 22.417969 0 12.378906 10.035156 22.414062 22.417969 22.414062 4.847656 0 9.332031-1.542969 13-4.160156-5.699219-4.066406-9.417969-10.722656-9.417969-18.253906zm0 0" fill="#c7d2e5"/><path d="m162.113281 35.378906c-39.988281-22.40625-81.597656-9.773437-93.398437-5.367187-5.050782 1.886719-8.441406 6.78125-8.441406 12.183593v112.222657c0 8.84375 8.664062 15.125 17.054687 12.363281 12.789063-4.203125 45.933594-12.078125 77.453125 5.582031 25.816406 14.464844 56.820312 13.460938 85.226562 5.160157v60.414062c-17.402343 2.199219-33.886718 7.824219-49.003906 16.75-14.363281 8.480469-22.257812 16.632812-30.09375 24.171875-7.863281 7.574219-18.210937 11.746094-29.132812 11.746094h-9.273438c-1.011718-9.558594-9.121094-17.03125-18.941406-17.03125h-84.507812c-10.507813 0-19.054688 8.550781-19.054688 19.054687v152.777344c0 10.507812 8.546875 19.054688 19.054688 19.054688h24.753906c4.140625 0 7.5-3.355469 7.5-7.5 0-4.140626-3.359375-7.5-7.5-7.5h-24.753906c-2.234376 0-4.054688-1.816407-4.054688-4.054688v-152.777344c0-2.234375 1.820312-4.054687 4.054688-4.054687h84.507812c2.234375 0 4.054688 1.820312 4.054688 4.054687v152.777344c0 2.234375-1.820313 4.054688-4.054688 4.054688h-24.753906c-4.144532 0-7.5 3.359374-7.5 7.5 0 4.144531 3.355468 7.5 7.5 7.5h24.753906c9.367188 0 17.15625-6.800782 18.742188-15.71875h5.542968.015625c11.898438 0 17.21875 5.136718 24.570313 12.246093 8.765625 8.46875 19.664062 19.003907 43.375 19.003907h.074218 44.125v6.921874c0 13.832032 11.253907 25.085938 25.085938 25.085938s25.085938-11.253906 25.085938-25.085938v-6.921874h21.734374c16.152344 0 29.296876-13.144532 29.296876-29.296876 0-7.71875-3-14.75-7.898438-19.988281 7.175781-5.167969 11.980469-13.378906 12.289062-22.605469.253907-7.5625-2.328124-14.746093-7.300781-20.367187 7.675781-5.125 12.871094-13.636719 13.183594-23.253906.261719-8.070313-2.703125-15.722657-8.339844-21.542969-.261719-.269531-.523437-.53125-.789062-.789062 6.496093-5.386719 10.640625-13.523438 10.636719-22.605469-.015626-16.125-13.167969-29.234375-29.320313-29.234375 0 0-.011719 0-.019531 0h-33.472656v-95.488282c0-4.140624-3.355469-7.5-7.5-7.5-4.144532 0-7.5 3.359376-7.5 7.5v95.488282h-19.03125c-.628907 0-1.140626-.511719-1.140626-1.136719v-231.082031c6.449219 2.308594 13.714844 2.316406 20.171876 0v101.726562c0 4.140625 3.355468 7.5 7.5 7.5 4.144531 0 7.5-3.359375 7.5-7.5v-113.628906c3.050781-4.6875 4.832031-10.273438 4.832031-16.273438 0-16.496093-13.421875-29.914062-29.917969-29.914062s-29.917969 13.417969-29.917969 29.917969c0 3.164062.5 6.214843 1.414063 9.078125-19.460938 5.808594-49.296875 10.492187-74.476563-3.617188zm113.066407 451.535156c0 5.5625-4.523438 10.085938-10.085938 10.085938s-10.085938-4.527344-10.085938-10.085938v-6.921874h20.171876zm-10.085938-471.914062c8.226562 0 14.914062 6.691406 14.914062 14.917969 0 8.210937-6.730468 14.914062-14.914062 14.914062-8.320312 0-14.914062-6.835937-14.914062-14.914062 0-8.226563 6.6875-14.917969 14.914062-14.917969zm-8.949219 290.304688h67.511719.011719c7.890625 0 14.316406 6.390624 14.324219 14.25.003906 7.898437-6.417969 14.328124-14.308594 14.332031-24.621094.015625 28.964844.011719-36.511719.011719-4.144531 0-7.5 3.355468-7.5 7.5 0 4.140624 3.355469 7.5 7.5 7.5h34.710937c8.207032 0 14.871094 6.855468 14.605469 15.09375-.246093 7.617187-6.914062 13.816406-14.863281 13.816406-2.023438 0-23.828125.007812-34.453125.007812-4.144531 0-7.5 3.359375-7.5 7.5 0 4.144532 3.355469 7.5 7.5 7.5h27.308594c.320312 0 .636719-.027344.953125-.066406.292968.035156.589844.058594.890625.058594 8.054687 0 14.558593 6.644531 14.285156 14.792968-.253906 7.609376-6.917969 13.796876-14.855469 13.796876 0 0-.976562.011718-28.582031.011718-4.140625 0-7.5 3.355469-7.5 7.5 0 4.140625 3.359375 7.5 7.5 7.5h24.925781c7.796875.097656 14.113282 6.464844 14.113282 14.285156 0 7.882813-6.414063 14.296876-14.296876 14.296876-12.515624 0-104.175781 0-116.039062 0-.019531 0-.042969 0-.0625 0-17.648438 0-24.738281-6.855469-32.949219-14.792969-7.984375-7.714844-17.03125-16.457031-34.984375-16.457031-.011718 0-.023437 0-.035156 0h-5.226562v-128.136719h9.164062c14.820312 0 28.859375-5.664063 39.535156-15.941407 7.59375-7.308593 14.484375-14.484374 27.316406-22.058593 12.800782-7.558594 26.707032-12.441407 41.375-14.539063v36.101563c0 8.898437 7.238282 16.136719 16.136719 16.136719zm-16.136719-251.675782v108.203125c-19.335937 6.269531-51.214843 12.390625-77.894531-2.558593-26.582031-14.894532-58.179687-16.222657-86.839843-7.570313v-108.113281c11.765624-4.167969 46.480468-13.632813 79.507812 4.875 29.425781 16.488281 63.144531 11.613281 85.226562 5.164062zm0 0"/></svg>