<svg height="511pt" viewBox="0 -7 511.99988 511" width="511pt" xmlns="http://www.w3.org/2000/svg"><path d="m349.765625 233.046875-3.992187 3.992187v.003907c-2.011719 1.972656-3.902344 4.050781-5.695313 5.839843l.003906.003907c-8 7.859375-15.328125 13.753906-23.191406 13.714843 0 0-14.917969-.074218-15.035156-.074218h-.003907c-10.386718-.050782-20.820312 3.695312-20.949218 3.742187l-76.949219 30.148438c-18.359375 6.773437-12.835937 36.339843 10.726563 32.414062l33.976562-4.597656 96.875 109.109375 46.390625-46.511719c21.417969-21.375 2.808594-36.839843 20.023437-54.03125.007813-.011719 13.484376-13.472656 13.484376-13.476562l2.308593-2.304688c-15.996093-15.996093-60.394531-60.394531-77.972656-77.972656zm0 0" fill="#ffbeab"/><path d="m214.320312 308.871094c83.664063-32.78125 87.996094-35.867188 103.390626-35.792969l.003906-.003906c.121094.003906 15.875.078125 15.875.078125 8.304687.042968 16.046875-6.183594 24.496094-14.484375h-.003907c1.890625-1.890625 3.890625-4.085938 6.011719-6.171875l2.5625-2.5625-16.890625-16.890625-3.992187 3.996093c-2.011719 1.976563-3.90625 4.054688-5.695313 5.84375h.003906c-8 7.859376-15.328125 13.753907-23.191406 13.71875 0 0-14.917969-.074218-15.035156-.074218h-.003907c-10.386718-.050782-20.820312 3.691406-20.949218 3.738281l-76.949219 30.152344c-14.828125 5.472656-14.070313 25.804687-.8125 31.355469 1.105469-5.503907 4.746094-10.53125 11.179687-12.902344zm0 0" fill="#f7af9f"/><path d="m344.1875 437.433594c6.554688-6.566406 6.511719-17.164063-.050781-23.71875l-94.929688-95.503906c-.289062-.292969-.703125-.429688-1.113281-.371094l-33.46875 4.820312c-23.5625 3.929688-28.394531-25.03125-10.667969-31.242187l52.566407-21.597657-24.378907-9.550781c-.128906-.046875-10.5625-3.792969-20.949219-3.742187-.117187 0-15.035156.074218-15.035156.074218-7.863281.039063-15.195312-5.855468-23.191406-13.714843v-.003907c-1.789062-1.789062-3.683594-3.867187-5.691406-5.839843v-.003907l-4.148438-4.148437c-85.894531 85.890625-26.820312 26.820313-77.972656 77.972656 3.679688 3.679688 15.945312 15.9375 15.945312 15.9375 17.214844 17.191407-1.394531 32.65625 20.023438 54.03125l50.144531 50.070313-.039062.039062 56.195312 56.195313c6.5625 6.5625 17.203125 6.5625 23.765625 0s6.5625-17.207031 0-23.765625l21.324219 21.320312c6.667969 6.667969 17.785156 6.875 24.328125.082032 6.339844-6.585938 6.261719-17.0625-.230469-23.558594l8.683594 8.683594c6.667969 6.667968 17.785156 6.871093 24.324219.078124 6.34375-6.585937 6.265625-17.066406-.226563-23.558593l-8.78125-8.777344.015625-.015625c6.578125 6.371094 17.066406 6.308594 23.558594-.191406zm0 0" fill="#ffcdbf"/><path d="m202.964844 435.617188.042968-.042969-61.054687-60.96875c-26.078125-26.027344-3.417969-44.859375-24.378906-65.792969-.007813-.011719-11.386719-11.375-15.191407-15.175781-5.636718 5.636719-2.601562 2.601562-17.226562 17.226562 3.679688 3.679688 15.945312 15.933594 15.945312 15.933594 17.214844 17.195313-1.394531 32.660156 20.023438 54.035156l50.144531 50.070313-.039062.039062 56.195312 56.191406c6.5625 6.5625 17.203125 6.566407 23.765625.003907.558594-.558594 1.054688-1.160157 1.519532-1.773438zm0 0" fill="#ffbeab"/><path d="m438.820312 323.097656c2.441407 2.445313 6.402344 2.445313 8.84375 0l55.371094-55.367187c2.441406-2.445313 2.441406-6.402344 0-8.84375-2.164062-2.164063-101.507812-101.503907-100.824218-100.824219-2.441407-2.441406-6.402344-2.441406-8.84375 0l-55.371094 55.371094c-2.441406 2.441406-2.441406 6.402344 0 8.84375 3.332031 3.332031 103.917968 103.917968 100.824218 100.820312zm0 0" fill="#54a0ff"/><path d="m350.949219 227.492188 56.476562-56.476563c1.644531-1.648437 3.964844-2.199219 6.070313-1.667969l-11.285156-11.285156c-2.441407-2.441406-6.402344-2.441406-8.84375 0l-55.371094 55.371094c-2.441406 2.441406-2.441406 6.402344 0 8.84375l11.285156 11.285156c-.53125-2.105469.019531-4.425781 1.667969-6.070312zm0 0" fill="#338def"/><path d="m73.917969 323.097656c-2.441407 2.445313-6.402344 2.445313-8.84375 0l-55.371094-55.367187c-2.441406-2.445313-2.441406-6.402344 0-8.84375 2.164063-2.164063 101.503906-101.503907 100.824219-100.824219 2.441406-2.441406 6.402344-2.441406 8.84375 0l55.371094 55.371094c2.441406 2.441406 2.441406 6.402344 0 8.84375-3.332032 3.332031-103.917969 103.917968-100.824219 100.820312zm0 0" fill="#576574"/><path d="m82.582031 310.070312-59.847656-59.847656c-.785156-.789062-1.332031-1.722656-1.652344-2.714844l-11.378906 11.378907c-2.441406 2.441406-2.441406 6.402343 0 8.84375l55.371094 55.371093c2.441406 2.441407 6.402343 2.441407 8.84375 0l11.378906-11.378906c-.992187-.320312-1.925781-.867187-2.714844-1.652344zm0 0" fill="#3e4b5a"/><path d="m481.539062 61.71875c3.039063-2.898438 1.363282-7.953125-2.835937-8.550781l-32.421875-4.613281c-1.667969-.238282-3.105469-1.265626-3.851562-2.742188l-14.5-28.78125c-1.878907-3.726562-7.300782-3.726562-9.179688 0l-14.5 28.78125c-.742188 1.480469-2.183594 2.503906-3.851562 2.742188l-32.421876 4.613281c-4.199218.597656-5.875 5.652343-2.835937 8.550781l23.460937 22.402344c1.203126 1.152344 1.757813 2.8125 1.472657 4.4375l-5.539063 31.632812c-.71875 4.09375 3.671875 7.21875 7.425782 5.285156l29-14.9375c1.488281-.765624 3.269531-.765624 4.761718 0l29 14.9375c3.753906 1.929688 8.140625-1.191406 7.425782-5.285156l-5.539063-31.632812c-.285156-1.625.265625-3.285156 1.472656-4.4375zm0 0" fill="#feca57"/><path d="m425.476562 82.769531c.285157-1.625-.265624-3.285156-1.46875-4.4375l-23.460937-22.398437c-2.328125-2.222656-1.882813-5.699219.335937-7.476563-.160156.039063-.320312.074219-.484374.097657l-32.425782 4.617187c-4.195312.597656-5.871094 5.648437-2.835937 8.550781l23.460937 22.402344c1.207032 1.152344 1.757813 2.808594 1.472656 4.4375l-5.535156 31.628906c-.71875 4.097656 3.667969 7.21875 7.421875 5.285156l28.625-14.742187zm0 0" fill="#f4b537"/><path d="m403.382812 47.378906 32.421876-4.613281c1.613281-.230469 3.011718-1.203125 3.773437-2.609375l-11.648437-23.121094c-1.878907-3.726562-7.300782-3.726562-9.179688 0l-14.5 28.777344c-.332031.664062-.8125 1.226562-1.382812 1.679688.167968-.042969.335937-.085938.515624-.113282zm0 0" fill="#f4b537"/><path d="m147.597656 61.71875c3.039063-2.898438 1.363282-7.953125-2.835937-8.550781l-32.421875-4.613281c-1.667969-.238282-3.109375-1.265626-3.851563-2.742188l-14.503906-28.777344c-1.875-3.726562-7.300781-3.726562-9.175781 0l-14.5 28.777344c-.746094 1.480469-2.1875 2.503906-3.855469 2.742188l-32.421875 4.617187c-4.199219.59375-5.875 5.648437-2.835938 8.550781l23.460938 22.398438c1.207031 1.152344 1.757812 2.8125 1.472656 4.4375l-5.539062 31.632812c-.714844 4.09375 3.671875 7.21875 7.425781 5.285156l29-14.9375c1.492187-.765624 3.273437-.765624 4.761719 0l29 14.9375c3.753906 1.933594 8.144531-1.191406 7.425781-5.285156l-5.539063-31.632812c-.285156-1.625.265626-3.285156 1.472657-4.4375zm0 0" fill="#feca57"/><path d="m91.535156 82.769531c.285156-1.625-.265625-3.285156-1.472656-4.4375l-23.460938-22.398437c-2.324218-2.222656-1.878906-5.699219.335938-7.476563-.15625.039063-.320312.074219-.484375.097657l-32.421875 4.617187c-4.195312.597656-5.875 5.648437-2.835938 8.550781l23.460938 22.402344c1.207031 1.152344 1.757812 2.808594 1.472656 4.4375l-5.539062 31.628906c-.714844 4.097656 3.671875 7.21875 7.425781 5.285156l28.625-14.742187zm0 0" fill="#f4b537"/><path d="m69.4375 47.378906 32.425781-4.613281c1.613281-.230469 3.007813-1.203125 3.773438-2.609375l-11.652344-23.121094c-1.875-3.726562-7.300781-3.726562-9.175781 0l-14.5 28.777344c-.335938.664062-.816406 1.226562-1.386719 1.679688.171875-.042969.339844-.085938.515625-.113282zm0 0" fill="#f4b537"/><path d="m343.265625 78.90625c4.535156-4.332031 2.035156-11.875-4.234375-12.769531l-48.410156-6.890625c-2.488282-.351563-4.636719-1.882813-5.75-4.09375l-21.652344-42.96875c-2.800781-5.5625-10.898438-5.5625-13.703125 0l-21.648437 42.96875c-1.113282 2.210937-3.265626 3.742187-5.753907 4.09375l-48.410156 6.890625c-6.265625.894531-8.769531 8.4375-4.234375 12.769531l35.03125 33.445312c1.800781 1.71875 2.621094 4.199219 2.195312 6.625l-8.269531 47.230469c-1.070312 6.113281 5.480469 10.777344 11.085938 7.890625l43.300781-22.300781c2.222656-1.144531 4.882812-1.144531 7.109375 0l43.296875 22.300781c5.605469 2.886719 12.160156-1.777344 11.089844-7.890625l-8.269532-47.230469c-.425781-2.425781.394532-4.90625 2.195313-6.625zm0 0" fill="#feca57"/><path d="m254.808594 53.902344c2.488281-.355469 4.640625-1.886719 5.753906-4.09375l10.808594-21.453125-8.148438-16.171875c-2.804687-5.5625-10.902344-5.5625-13.703125 0l-21.652343 42.96875c-.621094 1.234375-1.574219 2.246094-2.726563 2.972656zm0 0" fill="#f4b537"/><path d="m231.121094 160.859375 8.269531-47.226563c.425781-2.429687-.394531-4.90625-2.195313-6.625l-35.027343-33.449218c-3.691407-3.519532-2.722657-9.167969 1.136719-11.632813l-29.597657 4.214844c-6.265625.890625-8.769531 8.433594-4.234375 12.765625l35.027344 33.445312c1.800781 1.722657 2.625 4.199219 2.199219 6.625l-8.269531 47.230469c-1.074219 6.113281 5.480468 10.777344 11.085937 7.890625l21.542969-11.09375c-.078125-.6875-.066406-1.40625.0625-2.144531zm0 0" fill="#f4b537"/><path d="m478.28125 45.734375-30.464844-4.425781-13.625-27.605469c-4.589844-9.300781-17.855468-9.296875-22.441406 0l-13.625 27.605469-30.464844 4.425781c-10.261718 1.492187-14.359375 14.109375-6.9375 21.34375l22.046875 21.488281-5.207031 30.34375c-1.757812 10.257813 9.023438 17.996094 18.160156 13.191406l27.246094-14.328124 27.25 14.328124c9.171875 4.824219 19.910156-2.972656 18.15625-13.191406l-5.203125-30.34375 22.046875-21.488281c7.421875-7.234375 3.320312-19.851563-6.9375-21.34375zm-26.515625 33.003906c-2.953125 2.878907-4.296875 7.019531-3.597656 11.078125l4.570312 26.664063-23.945312-12.589844c-3.644531-1.917969-8-1.917969-11.648438 0l-23.945312 12.589844 4.574219-26.664063c.695312-4.058594-.648438-8.199218-3.597657-11.078125l-19.375-18.882812 26.773438-3.890625c4.074219-.589844 7.597656-3.152344 9.421875-6.84375l11.972656-24.261719 11.972656 24.257813c1.820313 3.695312 5.34375 6.253906 9.421875 6.847656l26.773438 3.890625zm0 0"/><path d="m151.277344 67.078125c7.421875-7.238281 3.320312-19.851563-6.9375-21.34375l-30.464844-4.425781-13.625-27.605469c-4.59375-9.308594-17.859375-9.296875-22.445312 0l-13.625 27.605469-30.464844 4.425781c-10.257813 1.492187-14.355469 14.109375-6.933594 21.34375l22.042969 21.488281-5.203125 30.34375c-1.75 10.214844 8.980468 18.015625 18.15625 13.191406l27.25-14.324218 27.25 14.324218c9.171875 4.824219 19.910156-2.972656 18.15625-13.191406l-5.203125-30.339844zm-33.453125 11.660156c-2.953125 2.878907-4.296875 7.019531-3.601563 11.078125l4.574219 26.664063-23.949219-12.589844c-3.644531-1.917969-7.996094-1.917969-11.644531 0l-23.945313 12.589844 4.574219-26.664063c.695313-4.0625-.648437-8.203125-3.597656-11.078125l-19.375-18.882812 26.773437-3.890625c4.078126-.59375 7.601563-3.152344 9.421876-6.847656l11.972656-24.257813 11.976562 24.261719c1.824219 3.691406 5.34375 6.25 9.421875 6.84375l26.769531 3.890625zm0 0"/><path d="m338.054688 58.703125-47.410157-6.882813-21.207031-42.972656c-5.492188-11.132812-21.382812-11.128906-26.875 0l-21.195312 42.964844-47.421876 6.890625c-12.285156 1.785156-17.195312 16.894531-8.308593 25.558594l34.3125 33.4375-8.101563 47.226562c-2.097656 12.234375 10.753906 21.574219 21.746094 15.796875l28.394531-14.929687c3.667969-1.925781 5.078125-6.460938 3.148438-10.128907-1.925781-3.664062-6.460938-5.074218-10.128907-3.148437l-28.375 14.945313 8.101563-47.226563c.832031-4.863281-.777344-9.824219-4.3125-13.265625l-34.320313-33.421875 47.421876-6.890625c4.882812-.707031 9.097656-3.773438 11.28125-8.195312l21.179687-42.972657 21.207031 42.96875c2.183594 4.421875 6.402344 7.488281 11.285156 8.199219l47.410157 6.863281-34.3125 33.449219c-3.535157 3.441406-5.144531 8.402344-4.308594 13.261719l8.121094 47.214843-28.398438-14.929687c-3.671875-1.929687-8.203125-.515625-10.128906 3.148437-1.929687 3.667969-.519531 8.203126 3.148437 10.128907l28.394532 14.929687c11.011718 5.785156 23.839844-3.59375 21.746094-15.796875l-8.105469-47.214843 34.3125-33.449219c8.894531-8.667969 3.980469-23.773438-8.300781-25.558594zm0 0"/><path d="m469.222656 212.824219c-2.929687-2.925781-7.675781-2.925781-10.605468 0-2.929688 2.933593-2.929688 7.679687 0 10.609375l37.859374 37.859375-53.605468 53.609375c-3.429688-3.429688-97.5-97.5-99.058594-99.058594l53.605469-53.609375 36.449219 36.449219c2.929687 2.929687 7.675781 2.929687 10.605468 0 2.929688-2.929688 2.929688-7.679688 0-10.609375l-37.332031-37.328125c-5.359375-5.363282-14.085937-5.363282-19.449219 0l-55.371094 55.371094c-5.359374 5.363281-5.359374 14.085937 0 19.449218l6.472657 6.472656c-4.40625 4.5-14.695313 16.046876-22.199219 16.046876-.015625 0-.027344 0-.039062 0-28.070313-.132813-24.527344-1.390626-60.402344 12.667968l-21.644532-8.480468c-.050781-.023438-.101562-.042969-.15625-.0625-.113281-.039063-11.589843-4.195313-23.324218-4.195313-.023438 0-.046875 0-.070313 0-.066406 0-.132812-.003906-.203125-.003906-.460937.007812-15 .074219-15 .074219-.015625 0-.027344 0-.039062 0-7.421875 0-17.445313-11.207032-22.355469-16.203126 6.179687-6.179687 10.34375-9.09375 10.34375-16.042968 0-3.671875-1.429687-7.125-4.027344-9.726563l-55.371093-55.371093c-5.363282-5.359376-14.085938-5.359376-19.449219 0l-100.824219 100.828124c-5.375 5.375-5.375 14.074219 0 19.449219l55.371094 55.371094c5.363281 5.363281 14.085937 5.363281 19.449218 0l5.933594-5.933594c15.191406 15.175781 16.605469 14.6875 16.859375 29.488281.164063 9.699219.371094 21.769532 13.808594 35.183594 37.703125 37.644532 67.671875 67.667969 106.300781 106.296875 12.148438 12.148438 32.992188 8.1875 39.652344-7.878906l5.746094 5.75c12.753906 12.75 34.703125 7.699219 40.324218-9.671875 8.882813 3.832031 19.605469 2.121094 26.851563-5.125 7.371094-7.367188 8.917969-18.117188 5.140625-26.851562 3.535156-1.148438 6.855469-3.125 9.65625-5.929688h.003906c4.417969-4.429688 6.734375-10.15625 7.011719-15.96875.445313-.394531 40.289063-40.199219 40.710937-40.621094 13.441407-13.417968 13.648438-25.484375 13.8125-35.183594.261719-15.1875 2.113282-14.691406 16.703126-29.335937 5.65625 5.65625 8.609374 9.808594 15.503906 9.808594 3.675781 0 7.128906-1.429688 9.726562-4.027344l55.367188-55.371094c5.378906-5.375 5.378906-14.074219.003906-19.449219zm-400.097656 102.078125-53.605469-53.605469 99.058594-99.0625 53.609375 53.609375c-2.464844 2.460938-94.355469 94.351562-99.0625 99.058594zm269.386719 116.21875c-3.546875 3.550781-9.261719 3.617187-12.902344.230468l-75.148437-76.175781c-2.910157-2.949219-7.65625-2.980469-10.605469-.070312-2.949219 2.90625-2.980469 7.65625-.070313 10.605469 14.667969 14.875 69.144532 70.210937 83.9375 85 3.652344 3.652343 3.636719 9.550781 0 13.183593-3.632812 3.632813-9.546875 3.632813-13.179687 0-15.621094-15.621093 2.113281 2.320313-85.042969-86.320312-2.902344-2.957031-7.652344-2.996094-10.605469-.089844-2.953125 2.902344-2.992187 7.652344-.089843 10.605469.023437.023437 76.136718 77.417968 76.136718 77.417968 3.636719 3.632813 3.636719 9.546876 0 13.183594-3.632812 3.632813-9.542968 3.632813-13.179687-.003906-13.179688-13.175781-.289063.003906-75.476563-77.40625-2.886718-2.96875-7.632812-3.039062-10.605468-.152344-2.972657 2.886719-3.039063 7.632813-.152344 10.605469l52.804687 54.367187c1.03125 1.785157 3.914063 3.484376 3.910157 8.140626 0 2.484374-.96875 4.820312-2.726563 6.578124-3.625 3.632813-9.527344 3.628907-13.15625 0-93.523437-93.527343-21.992187-22.117187-106.308594-106.308593-9.140625-9.125-9.257812-16.050781-9.410156-24.820313-.363281-21.378906-6.007813-24.617187-21.246094-39.839844l67.359375-67.363281c7.488282 7.640625 18.972656 20.601563 32.957032 20.601563h.113281c11.367187-.054688 14.15625-.066406 14.867187-.070313h.132813.214843c8.53125 0 17.375 3.011719 18.105469 3.265625l6.449219 2.527344-34.683594 13.585938c-26.621094 9.910156-17.941406 52.140624 14.511719 46.839843l30.1875-4.082031 92.855469 92.859375c3.628906 3.617187 3.648437 9.496094.046875 13.105469zm67.765625-110.640625h-.003906c-10.285157 10.269531-10.460938 20.773437-10.605469 29.210937-.148438 8.769532-.269531 15.695313-9.414063 24.820313l-35.058594 35.011719c-.332031-.332032-95.535156-95.535157-97.605468-97.605469-1.566406-1.566407-3.910156-2.449219-6.308594-2.128907l-33.976562 4.597657c-.074219.007812-.152344.019531-.230469.03125-14.492188 2.417969-16.855469-14.300781-6.894531-17.976563.046874-.015625.09375-.035156.140624-.050781 92.941407-36.417969 79.328126-33.453125 110.160157-33.304687h.113281c13.183594 0 23.714844-11.136719 32.804688-20.441407l67.359374 67.359375c-.570312.574219-9.914062 9.90625-10.480468 10.476563zm0 0"/></svg>