<svg height="512pt" viewBox="-42 0 512 512.0007" width="512pt" xmlns="http://www.w3.org/2000/svg"><path d="m176.015625 5.851562c-45.214844 0-81.863281 36.652344-81.863281 81.863282v33.101562c5.472656-5.074218 13.253906-7.828125 20.851562-6.8125v-4.082031c0-3.242187 2.769532-5.804687 5.980469-5.558594 31.652344 2.273438 63.863281-7.785156 88.21875-23.695312 2.273437-1.484375 5.28125-1.117188 7.128906.871093 20.824219 22.378907 20.699219 21.515626 20.699219 24.4375v8.007813c8.328125-1.246094 15.714844 1.328125 20.847656 6.097656v-32.367187c0-45.210938-36.648437-81.863282-81.863281-81.863282zm0 0" fill="#576574"/><path d="m124.253906 87.714844c0-40.070313 28.792969-73.390625 66.8125-80.460938-4.882812-.90625-9.90625-1.402344-15.050781-1.402344-45.214844 0-81.863281 36.652344-81.863281 81.863282v33.101562c5.472656-5.074218 13.253906-7.828125 20.851562-6.8125v-4.082031c0-3.242187 2.769532-5.804687 5.980469-5.5625 1.089844.082031 2.179687.140625 3.269531.191406zm0 0" fill="#3e4b5a"/><path d="m236.921875 111.023438v45.015624c0 .488282-.027344.972657-.039063 1.457032 15.933594 2.414062 28.410157-9.097656 28.410157-23.234375 0-14.164063-12.488281-25.621094-28.371094-23.238281zm0 0" fill="#ffbeab"/><path d="m257.972656 117.117188c-5.152344-4.773438-12.558594-7.347657-20.90625-6.09375v45.015624c0 .488282-.023437.972657-.035156 1.457032 8.371094 1.265625 15.785156-1.3125 20.941406-6.09375zm0 0" fill="#f7af9f"/><path d="m115.1875 156.09375v-45.113281c-13.90625-1.859375-28.445312 8.8125-28.445312 23.28125 0 14.152343 12.480468 25.714843 28.480468 23.292969-.011718-.488282-.035156-.972657-.035156-1.460938zm0 0" fill="#ffbeab"/><path d="m115.1875 151.496094c-4.699219-4.335938-7.542969-10.488282-7.542969-17.234375 0-6.550781 2.988281-12.320313 7.542969-16.503907v-6.777343c-13.90625-1.859375-28.445312 8.8125-28.445312 23.28125 0 14.152343 12.480468 25.714843 28.480468 23.292969-.011718-.488282-.035156-.972657-.035156-1.460938zm0 0" fill="#f7af9f"/><path d="m176.886719 213.222656c-13.222657 0-24.847657-3.632812-34.351563-9.703125v33.535157l34.207032 42.226562 34.207031-42.226562v-34.441407c-9.691407 6.683594-21.425781 10.609375-34.0625 10.609375zm0 0" fill="#ffbeab"/><path d="m173.050781 213.109375c-11.640625-.632813-21.941406-4.113281-30.515625-9.589844v33.535157l30.515625 37.671874zm0 0" fill="#f7af9f"/><path d="m166.65625 347.320312c6.300781-5.460937 15.796875-4.949218 21.472656 1.164063l61.242188 65.980469 85.539062-81.679688c0-4.316406 0-8.238281 0-11.640625 0-38.15625-33.46875-51.917969-33.46875-51.917969l-90.496094-35.046874-34.203124 42.226562-34.210938-42.226562-90.398438 35.046874s-33.46875 13.761719-33.46875 51.917969v149.683594c0 1.453125.285157 2.835937.792969 4.109375zm0 0" fill="#e4eaf8"/><path d="m48.765625 305.089844c0-20.136719 9.320313-33.472656 18.125-41.582032l-14.753906 5.71875s-33.472657 13.761719-33.472657 51.917969v149.683594c0 1.453125.285157 2.835937.792969 4.109375l29.308594-25.410156c0-41.25 0-116.066406 0-144.4375zm0 0" fill="#c7d2e5"/><path d="m216.332031 78.664062c-1.847656-1.984374-4.855469-2.355468-7.128906-.871093-24.355469 15.910156-56.566406 25.96875-88.21875 23.695312-3.210937-.242187-5.980469 2.316407-5.980469 5.558594v48.90625c0 31.433594 24.628906 60.140625 61.882813 60.140625 33.164062 0 60.144531-26.976562 60.144531-60.140625v-52.851563c0-2.921874.125-2.054687-20.699219-24.4375zm0 0" fill="#ffcdbf"/><path d="m145.105469 155.957031v-55.023437c-7.984375.910156-16.070313 1.132812-24.121094.554687-3.210937-.242187-5.980469 2.316407-5.980469 5.5625v48.90625c0 31.429688 24.628906 60.140625 61.882813 60.140625 5.019531 0 9.890625-.628906 14.554687-1.792968-28.398437-6.714844-46.335937-31.53125-46.335937-58.347657zm0 0" fill="#ffbeab"/><path d="m218.042969 298.101562 25.578125-51.265624-32.675782-12.652344-34.203124 42.222656 33.347656 23.683594c2.703125 1.917968 6.472656.976562 7.953125-1.988282zm0 0" fill="#c7d2e5"/><path d="m135.484375 298.101562-25.578125-51.265624 32.675781-12.652344 34.207031 42.222656-33.351562 23.683594c-2.699219 1.917968-6.472656.976562-7.953125-1.988282zm0 0" fill="#c7d2e5"/><path d="m156.222656 356.367188 10.433594-9.046876c6.300781-5.460937 15.796875-4.949218 21.472656 1.164063l9.59375 10.335937-8.148437-48.214843h-25.621094zm0 0" fill="#ff6b6b"/><path d="m176.785156 276.433594v-.027344l-.019531.015625-.023437-.015625v.027344l-24.253907 17.230468 11.464844 17.253907h25.621094l11.46875-17.253907zm0 0" fill="#ee5253"/><path d="m186.027344 310.605469h-22.074219l-7.730469 45.761719 10.433594-9.046876c3.90625-3.386718 9.042969-4.472656 13.734375-3.351562zm0 0" fill="#ee5253"/><path d="m187.800781 284.257812-11.015625-7.824218v-.027344l-.019531.015625-.023437-.015625v.027344l-24.257813 17.230468 11.46875 17.253907h22.074219l-6.625-9.964844c-2.699219-4.0625-1.683594-9.535156 2.292968-12.355469zm0 0" fill="#d83941"/><path d="m420.621094 271.46875c-.035156-1.957031-1.652344-3.519531-3.609375-3.484375l-55 .972656c-3.160157.058594-4.675781 3.902344-2.40625 6.097657l13.382812 12.953124c1.535157 1.484376 1.527344 3.949219-.015625 5.425782l-123.601562 118.023437-61.242188-65.984375c-5.675781-6.109375-15.171875-6.625-21.472656-1.164062l-153.433594 133.023437c-6.457031 5.597657-7.152344 15.367188-1.554687 21.824219 5.597656 6.457031 15.371093 7.144531 21.824219 1.554688l142.132812-123.226563 61.746094 66.519531c5.84375 6.296875 15.761718 6.640625 22.023437.664063l136.039063-129.90625c1.460937-1.394531 3.765625-1.386719 5.214844.019531l14.929687 14.449219c2.273437 2.199219 6.074219.550781 6.019531-2.613281zm0 0" fill="#feca57"/><g fill="#f4b537"><path d="m40.886719 477.332031 149.402343-129.527343-2.160156-2.332032c-5.675781-6.109375-15.171875-6.625-21.472656-1.164062l-153.433594 133.023437c-6.457031 5.597657-7.152344 15.367188-1.554687 21.824219 5.601562 6.457031 15.371093 7.144531 21.824219 1.554688l4.285156-3.71875c-3.816406-6.324219-2.664063-14.65625 3.109375-19.660157zm0 0"/><path d="m400.652344 288.011719-13.382813-12.953125s-.066406-.070313-.175781-.195313c-.09375-.109375-.1875-.214843-.269531-.332031-.820313-1.046875-2.429688-3.515625-1.730469-5.980469l-23.082031.40625c-3.160157.058594-4.675781 3.902344-2.40625 6.097657l13.382812 12.953124c1.535157 1.484376 1.527344 3.949219-.015625 5.425782l-123.601562 118.023437 3.039062 3.125c5.699219 5.875 15.074219 6.050781 20.992188.398438l127.230468-121.546875c1.546876-1.472656 1.554688-3.9375.019532-5.421875zm0 0"/><path d="m201.6875 375.757812c-5.703125-6.144531-15.171875-6.875-21.753906-1.679687l-4.308594 3.40625 61.746094 66.519531c5.84375 6.296875 15.761718 6.640625 22.023437.664063l3.316407-3.167969zm0 0"/></g><path d="m49.058594 262.304688c-.046875.019531-.09375.035156-.140625.058593-1.558594.640625-38.148438 16.171875-38.148438 58.894531v147.910157l-2.847656 2.46875c-9.582031 8.304687-10.617187 22.855469-2.3125 32.433593 8.378906 9.671876 22.921875 10.5625 32.4375 2.316407l136.640625-118.464844 56.796875 61.191406c8.667969 9.335938 23.421875 9.875 32.734375.984375l62.800781-59.96875c3.003907-2.871094 3.113281-7.632812.246094-10.640625-2.871094-3.007812-7.636719-3.117187-10.640625-.242187l-62.800781 59.964844c-3.15625 3.011718-8.25 2.957031-11.308594-.339844l-61.746094-66.519532c-2.761719-2.972656-7.382812-3.222656-10.445312-.566406l-142.136719 123.226563c-3.394531 2.945312-8.394531 2.445312-11.203125-.796875-2.871094-3.3125-2.511719-8.339844.796875-11.207032 2.605469-2.261718 140.257812-121.601562 153.433594-133.023437.007812-.007813.011718-.011719.019531-.015625 3.242187-2.792969 8.140625-2.472656 11.007813.613281l8.980468 9.675781 52.261719 56.304688c2.898437 3.121094 7.730469 3.171875 10.714844.324219 6.375-6.089844 118.945312-113.578125 123.597656-118.023438 4.625-4.417969 4.652344-11.820312.054687-16.273437l-6.5-6.289063 41.445313-.734375.734375 41.554688-8.019531-7.757813c-4.371094-4.234375-11.242188-4.257812-15.644531-.054687l-47.84375 45.683594c-3.003907 2.871093-3.117188 7.632812-.246094 10.640624 2.867187 3.003907 7.632812 3.113282 10.640625.242188l45.226562-43.183594 12.328125 11.933594c7.082032 6.851562 18.949219 1.707031 18.777344-8.152344l-.976562-55.148437c-.109376-6.105469-5.199219-10.964844-11.269532-10.875l-55 .972656c-9.832031.171875-14.578125 12.179687-7.503906 19.03125l10.570312 10.230469-22.925781 21.890625c-4.492187-36.15625-36.152343-49.617188-37.601562-50.210938-.046875-.023437-.09375-.039062-.140625-.058593l-85.726563-33.199219v-19.761719c13.582031-10.609375 23.015625-26.277344 25.453125-44.148438 16.765625-1.316406 28.914063-14.980468 28.914063-30.894531 0-7.425781-2.664063-14.523437-7.414063-20.066406v-26.5c0-20.328125-7.011718-40.226563-19.742187-56.03125-12.53125-15.554687-30.101563-26.589844-49.472657-31.070313-4.042968-.933593-8.089843 1.589844-9.027343 5.640626-.933594 4.046874 1.589843 8.089843 5.636719 9.023437 33.886718 7.835937 57.554687 37.625 57.554687 72.441406v16.835938c-1.882813-.542969-3.824219-.914063-5.808594-1.109375 0-6.742188-.644531-6.175782-22.722656-29.910156-4.355469-4.679688-11.40625-5.542969-16.757813-2.042969-24.980468 16.320312-55.453124 24.515625-83.566406 22.5-6.375-.484375-12.011718 3.714843-13.621094 9.65625-1.832031.222656-4.183593.714843-6.265624 1.386719v-17.320313c0-35.128906 24.933593-65.765625 59.285156-72.839844 4.070312-.835937 6.691406-4.816406 5.851562-8.886719-.839844-4.070312-4.820312-6.691406-8.886718-5.851562-41.316407 8.507812-71.300782 45.339844-71.300782 87.582031v27.195313c-4.804687 5.484375-7.414062 12.222656-7.414062 19.367187 0 16.03125 12.265625 29.597657 28.929687 30.898438 2.46875 17.363281 11.839844 34.128906 26.882813 45.230469v18.675781zm195.214844-143.632813c7.933593 1.472656 13.222656 8.128906 13.222656 15.628906 0 7.566407-5.324219 14.175781-13.222656 15.640625zm-137.125 31.269531c-7.882813-1.460937-13.222657-8.050781-13.222657-15.640625 0-7.429687 6.078125-13.429687 13.222657-15.253906zm42.46875 198.847656-66.808594 57.921876v-72.332032c0-4.160156-3.367188-7.527344-7.527344-7.527344-4.15625 0-7.523438 3.367188-7.523438 7.527344v85.378906l-41.9375 36.359376v-134.859376c0-32.125 27.097657-44.242187 28.773438-44.957031l51.304688-19.890625 22.53125 45.15625c3.527343 7.070313 12.5625 9.371094 19.042968 4.765625l2.726563-1.933593 5.523437 8.3125zm17.617187-13.902343 2.761719-16.332031h12.917968l2.769532 16.359374c-6.039063-2.671874-12.777344-2.519531-18.449219-.027343zm18.003906-31.382813h-17.5625l-5.199219-7.824218 13.980469-9.929688 13.980469 9.925781zm-35.5-71.964844v-12.789062c17.488281 6.894531 37.414063 6.402344 53.390625-.484375v13.328125l-26.671875 32.925781zm148.621094 44.757813c1.878906.808594 28.785156 12.953125 28.785156 44.960937v5.164063l-41.9375 40.046875v-32.089844c0-4.160156-3.371093-7.527344-7.527343-7.527344s-7.523438 3.367188-7.523438 7.527344v46.460938l-20.832031 19.890625-45.542969-49.066407-6.589844-38.953124 5.523438-8.316407 2.726562 1.9375c6.453125 4.585938 15.5 2.332031 19.042969-4.765625l22.53125-45.15625zm-65.441406-25.34375-20.789063 41.667969c-1.15625-.816406-23.648437-16.792969-24.800781-17.613282l25.722656-31.746093zm-110.71875-94.949219c0-8.496094 0-34.996094 0-46.851562 29.824219 1.65625 62.265625-6.816406 89.445312-24.152344 9.945313 10.679688 15.695313 16.667969 17.578125 18.949219 0 60.476562.007813 50.976562-.019531 52.851562-.980469 30.789063-25.503906 51.84375-52.621094 51.84375-32.730469 0-54.382812-25.441406-54.382812-52.640625zm17.628906 87.269532 25.726563 31.753906c-10.523438 7.476562-23.957032 17.019531-24.769532 17.59375l-20.789062-41.667969zm0 0"/></svg>