<svg height="512pt" viewBox="-50 0 512 512.002" width="512pt" xmlns="http://www.w3.org/2000/svg"><path d="m235.078125 7.511719c-93.382813 0-169.285156 75.679687-169.285156 169.28125v25.164062c0 27.140625-10.78125 53.171875-29.976563 72.363281l-23.304687 23.308594c-9.871094 9.867188-2.878907 26.746094 11.078125 26.746094h33.523437c4.792969 0 8.679688 3.890625 8.679688 8.683594v28.753906c0 42.972656 35.160156 78.132812 78.132812 78.132812 16.753907 0 30.382813 13.574219 30.382813 30.382813v24.957031c0 5.097656 4.128906 9.226563 9.222656 9.226563h144.1875c5.171875 0 9.359375-4.191407 9.359375-9.359375v-64.011719c0-25.097656 8.367187-49.800781 24.972656-68.621094 26.328125-29.832031 42.308594-69.011719 42.308594-111.933593v-73.789063c0-93.492187-75.789063-169.285156-169.28125-169.285156zm0 0" fill="#e4eaf8"/><path d="m42.097656 297.628906 23.304688-23.308594c19.195312-19.191406 29.976562-45.222656 29.976562-72.363281v-25.164062c0-88.609375 68.019532-161.140625 154.492188-168.628907-4.875-.421874-9.808594-.652343-14.792969-.652343-93.382813 0-169.285156 75.675781-169.285156 169.28125v25.160156c0 27.144531-10.78125 53.175781-29.972657 72.367187l-23.308593 23.304688c-9.871094 9.871094-2.878907 26.75 11.082031 26.75h29.582031c-13.957031 0-20.949219-16.875-11.078125-26.746094zm0 0" fill="#c7d2e5"/><path d="m203.890625 495.285156v-24.957031c0-16.804687-13.625-30.382813-30.382813-30.382813-42.96875 0-78.128906-35.160156-78.128906-78.128906v-28.757812c0-4.792969-3.886718-8.683594-8.679687-8.683594h-29.585938c4.792969 0 8.679688 3.890625 8.679688 8.683594v28.757812c0 42.96875 35.160156 78.128906 78.132812 78.128906 16.753907 0 30.382813 13.578126 30.382813 30.382813v24.960937c0 5.09375 4.128906 9.222657 9.222656 9.222657h29.585938c-5.09375 0-9.226563-4.128907-9.226563-9.226563zm0 0" fill="#c7d2e5"/><path d="m278.890625 98.144531c2.195313-2.097656.984375-5.75-2.050781-6.183593l-23.453125-3.339844c-1.207031-.171875-2.25-.914063-2.789063-1.984375l-10.484375-20.816407c-1.359375-2.695312-5.28125-2.695312-6.640625 0l-10.488281 20.816407c-.539063 1.070312-1.578125 1.8125-2.785156 1.984375l-23.453125 3.339844c-3.035156.429687-4.246094 4.085937-2.050782 6.183593l16.96875 16.203125c.871094.832032 1.273438 2.035156 1.066407 3.210938l-4.007813 22.878906c-.519531 2.960938 2.65625 5.21875 5.371094 3.820312l20.976562-10.800781c1.078126-.554687 2.367188-.554687 3.445313 0l20.976563 10.800781c2.714843 1.398438 5.886718-.859374 5.371093-3.820312l-4.007812-22.878906c-.207031-1.175782.191406-2.378906 1.066406-3.210938zm0 0" fill="#feca57"/><path d="m242.730469 113.390625c.207031-1.175781-.191407-2.375-1.0625-3.210937l-16.972657-16.203126c-2.195312-2.097656-.984374-5.75 2.054688-6.183593l22.796875-3.246094-9.433594-18.726563c-1.359375-2.695312-5.28125-2.695312-6.640625 0l-10.488281 20.816407c-.539063 1.070312-1.578125 1.8125-2.785156 1.984375l-23.453125 3.339844c-3.035156.429687-4.25 4.085937-2.050782 6.183593l16.96875 16.203125c.871094.832032 1.273438 2.035156 1.066407 3.210938l-4.007813 22.878906c-.519531 2.960938 2.65625 5.21875 5.371094 3.820312l20.976562-10.800781c1.078126-.554687 2.367188-.554687 3.445313 0l.644531.332031zm0 0" fill="#f4b537"/><path d="m151.308594 216.789062c-3.109375 0-5.628906 2.519532-5.628906 5.628907v59.308593c0 3.109376 2.519531 5.625 5.628906 5.625h57.113281v-70.5625zm0 0" fill="#e59d1f"/><path d="m176.050781 281.726562v-59.308593c0-3.109375 2.519531-5.628907 5.628907-5.628907h-30.371094c-3.109375 0-5.628906 2.519532-5.628906 5.628907v59.308593c0 3.109376 2.519531 5.625 5.628906 5.625h30.371094c-3.109376 0-5.628907-2.515624-5.628907-5.625zm0 0" fill="#dd8e10"/><path d="m322.277344 240.992188h-57.113282v46.359374h57.113282c3.109375 0 5.625-2.515624 5.625-5.625v-35.105468c0-3.109375-2.515625-5.628906-5.625-5.628906zm0 0" fill="#ce7132"/><path d="m265.164062 240.992188h30.367188v46.359374h-30.367188zm0 0" fill="#b2581b"/><path d="m261.535156 180.734375h-49.484375c-3.109375 0-5.628906 2.519531-5.628906 5.625v100.992187h60.742187v-100.992187c0-3.105469-2.519531-5.625-5.628906-5.625zm0 0" fill="#feca57"/><path d="m242.417969 180.734375h-30.367188c-3.109375 0-5.628906 2.519531-5.628906 5.625v100.992187h30.371094v-100.992187c0-3.105469 2.519531-5.625 5.625-5.625zm0 0" fill="#f4b537"/><path d="m283.699219 103.554688c6.71875-6.414063 3.0625-17.71875-6.175781-19.035157l-21.496094-3.058593-9.585938-19.027344c-4.128906-8.191406-15.910156-8.1875-20.035156 0l-9.589844 19.027344-21.496094 3.058593c-9.234374 1.316407-12.894531 12.621094-6.175781 19.035157l15.464844 14.765624-3.644531 20.808594c-1.589844 9.078125 7.988281 16.007813 16.191406 11.785156l19.265625-9.921874 19.265625 9.921874c8.242188 4.242188 17.777344-2.738281 16.191406-11.785156l-3.644531-20.808594zm-27.328125 5.355468c-2.691406 2.570313-3.910156 6.28125-3.273438 9.929688l2.671875 15.242187-14.191406-7.304687c-3.226563-1.664063-7.082031-1.664063-10.3125 0l-14.1875 7.304687 2.667969-15.234375c.640625-3.652344-.582032-7.367187-3.273438-9.9375l-11.160156-10.660156 15.570312-2.214844c3.636719-.515625 6.789063-2.773437 8.429688-6.035156l7.109375-14.105469 7.109375 14.105469c1.640625 3.261719 4.792969 5.519531 8.429688 6.035156l15.574218 2.21875zm0 0"/><path d="m137.808594 222.40625v59.308594c0 7.238281 5.890625 13.128906 13.128906 13.128906h170.96875c7.238281 0 13.128906-5.890625 13.128906-13.128906v-35.105469c0-7.238281-5.890625-13.128906-13.128906-13.128906h-47.613281v-47.132813c0-7.238281-5.886719-13.128906-13.128907-13.128906h-49.484374c-7.238282 0-13.128907 5.890625-13.128907 13.128906v22.929688h-47.613281c-7.238281 0-13.128906 5.890625-13.128906 13.128906zm136.484375 26.074219h45.742187v31.359375h-45.742187zm-60.738281-60.257813h45.738281v91.617188h-45.738281c0-9.667969 0-80.394532 0-91.617188zm-60.742188 36.054688h45.738281v55.5625h-45.738281zm0 0"/><path d="m329.210938 495.140625c0 1.023437-.835938 1.859375-1.859376 1.859375h-55.925781c-4.144531 0-7.5 3.355469-7.5 7.5s3.355469 7.5 7.5 7.5h55.925781c9.296876 0 16.859376-7.5625 16.859376-16.859375v-64.011719c0-24.175781 8.203124-46.78125 23.09375-63.65625 28.496093-32.289062 44.1875-73.804687 44.1875-116.898437 0-4.144531-3.355469-7.5-7.5-7.5-4.144532 0-7.5 3.355469-7.5 7.5 0 39.4375-14.359376 77.425781-40.433594 106.972656-17.3125 19.617187-26.847656 45.75-26.847656 73.582031zm0 0"/><path d="m234.707031 0c-97.480469 0-176.785156 79.304688-176.785156 176.78125v25.160156c0 25.335938-9.863281 49.152344-27.777344 67.0625l-23.304687 23.308594c-14.597656 14.59375-4.285156 39.550781 16.382812 39.550781h33.519532c.652343 0 1.179687.53125 1.179687 1.183594v28.757813c0 47.214843 38.414063 85.628906 85.632813 85.628906 12.617187 0 22.882812 10.265625 22.882812 22.882812v24.960938c0 9.222656 7.503906 16.726562 16.726562 16.726562h53.261719c4.140625 0 7.5-3.359375 7.5-7.503906 0-4.140625-3.359375-7.5-7.5-7.5h-53.261719c-.949218 0-1.726562-.773438-1.726562-1.722656v-24.960938c0-20.886718-16.992188-37.882812-37.882812-37.882812-38.945313 0-70.628907-31.683594-70.628907-70.628906v-28.757813c0-8.921875-7.261719-16.183594-16.183593-16.183594h-33.519532c-7.273437 0-10.921875-8.796875-5.777344-13.941406l23.308594-23.308594c20.746094-20.746093 32.171875-48.328125 32.171875-77.667969v-25.164062c-.003906-89.207031 72.574219-161.78125 161.78125-161.78125s161.78125 72.578125 161.78125 161.785156v37.433594c0 4.140625 3.359375 7.5 7.503907 7.5 4.140624 0 7.5-3.359375 7.5-7.5v-37.433594c0-97.480468-79.304688-176.785156-176.785157-176.785156zm0 0"/></svg>