<svg height="511pt" viewBox="-65 0 511 511.99912" width="511pt" xmlns="http://www.w3.org/2000/svg"><path d="m216.910156 402.886719c-32.257812-45.671875-2.964844-122.273438 62.707032-117.277344 3.460937.28125 4.96875.601563 5.96875.726563v-205.320313l-73.503907-73.503906h-192.164062c-6.378907 0-11.550781 5.171875-11.550781 11.550781v380.800781c0 6.378907 5.171874 11.550781 11.550781 11.550781h192.09375zm0 0" fill="#fff6e9"/><path d="m38.371094 399.863281v-380.800781c0-6.378906 5.171875-11.550781 11.550781-11.550781h-30c-6.378906 0-11.550781 5.171875-11.550781 11.550781v380.800781c0 6.378907 5.171875 11.550781 11.550781 11.550781h30c-6.378906 0-11.550781-5.171874-11.550781-11.550781zm0 0" fill="#f9e4c7"/><path d="m223.632812 81.015625h61.953126l-73.503907-73.503906v61.953125c0 6.382812 5.171875 11.550781 11.550781 11.550781zm0 0" fill="#f9e4c7"/><path d="m242.082031 69.464844v-31.949219l-30-30.003906v61.953125c0 6.382812 5.171875 11.550781 11.550781 11.550781h30c-6.378906 0-11.550781-5.167969-11.550781-11.550781zm0 0" fill="#f2d5b1"/><path d="m374.09375 470.765625-39.304688-69.683594c-13.125 17.644531-33.527343 29.367188-56.660156 30.527344l40.410156 71.636719c1.011719 1.792968 3.597657 1.660156 4.421876-.230469l13.394531-30.675781c.441406-1.003906 1.46875-1.605469 2.542969-1.484375l32.773437 3.679687c2.015625.226563 3.433594-1.976562 2.421875-3.769531zm0 0" fill="#ff6b6b"/><path d="m325.6875 429.167969c7.148438-1.914063 13.886719-4.863281 20.042969-8.6875l-10.941407-19.398438c-13.125 17.644531-33.527343 29.367188-56.660156 30.527344l40.410156 71.636719c1.011719 1.792968 3.597657 1.660156 4.421876-.230469l11.984374-27.445313-16.464843-29.191406c-3.789063-6.714844-.242188-15.214844 7.207031-17.210937zm0 0" fill="#ee5253"/><path d="m213.890625 401.082031-39.304687 69.683594c-1.011719 1.792969.40625 3.996094 2.425781 3.769531l32.773437-3.679687c1.074219-.121094 2.101563.480469 2.539063 1.484375l13.398437 30.675781c.824219 1.890625 3.410156 2.027344 4.421875.230469l40.410157-71.636719c-23.132813-1.160156-43.539063-12.882813-56.664063-30.527344zm0 0" fill="#ff6b6b"/><path d="m204.589844 470.765625 28.898437-51.230469c-7.554687-4.933594-14.191406-11.1875-19.597656-18.453125l-39.304687 69.683594c-1.011719 1.792969.40625 3.996094 2.425781 3.769531l27.304687-3.066406c.054688-.238281.144532-.472656.273438-.703125zm0 0" fill="#ee5253"/><path d="m350.125 357.214844c0 41.855468-33.929688 75.785156-75.785156 75.785156-41.855469 0-75.785156-33.929688-75.785156-75.785156 0-41.855469 33.929687-75.785156 75.785156-75.785156 41.855468 0 75.785156 33.929687 75.785156 75.785156zm0 0" fill="#feca57"/><path d="m228.558594 357.214844c0-36.71875 26.117187-67.332032 60.785156-74.292969-4.851562-.976563-9.867188-1.492187-15.003906-1.492187-41.851563 0-75.785156 33.929687-75.785156 75.785156 0 41.855468 33.933593 75.785156 75.785156 75.785156 5.136718 0 10.152344-.515625 15.003906-1.492188-34.667969-6.960937-60.785156-37.574218-60.785156-74.292968zm0 0" fill="#f4b537"/><path d="m309.214844 350.695312c1.820312-1.773437.816406-4.863281-1.699219-5.230468l-19.425781-2.820313c-1-.144531-1.863282-.773437-2.3125-1.679687l-8.6875-17.605469c-1.125-2.277344-4.375-2.277344-5.5 0l-8.6875 17.605469c-.449219.90625-1.3125 1.53125-2.308594 1.679687l-19.429688 2.820313c-2.515624.367187-3.519531 3.457031-1.699218 5.230468l14.058594 13.707032c.722656.703125 1.054687 1.71875.882812 2.710937l-3.320312 19.351563c-.429688 2.503906 2.203124 4.414062 4.449218 3.234375l17.378906-9.136719c.894532-.46875 1.960938-.46875 2.855469 0l17.375 9.136719c2.25 1.183593 4.878907-.730469 4.449219-3.234375l-3.316406-19.351563c-.171875-.992187.160156-2.007812.882812-2.710937zm0 0" fill="#f4b537"/><path d="m278.117188 362.613281c.167968-.992187-.160157-2.007812-.882813-2.710937l-14.058594-13.707032c-1.820312-1.773437-.816406-4.863281 1.699219-5.230468l19.425781-2.820313c.027344-.003906.050781-.015625.074219-.019531l-7.285156-14.765625c-1.125-2.277344-4.375-2.277344-5.5 0l-8.6875 17.605469c-.449219.90625-1.3125 1.535156-2.3125 1.679687l-19.425782 2.824219c-2.515624.363281-3.519531 3.457031-1.699218 5.230469l14.058594 13.703125c.722656.703125 1.050781 1.71875.882812 2.714844l-3.320312 19.347656c-.429688 2.507812 2.199218 4.417968 4.449218 3.234375l17.378906-9.136719c.671876-.351562 1.445313-.4375 2.167969-.257812zm0 0" fill="#e59d1f"/><path d="m224.109375 111.40625h-155.003906c-4.140625 0-7.5 3.359375-7.5 7.5 0 4.144531 3.359375 7.503906 7.5 7.503906h155.003906c4.144531 0 7.5-3.359375 7.5-7.503906 0-4.140625-3.355469-7.5-7.5-7.5zm0 0"/><path d="m224.109375 147.625h-155.003906c-4.140625 0-7.5 3.359375-7.5 7.5 0 4.144531 3.359375 7.5 7.5 7.5h155.003906c4.144531 0 7.5-3.355469 7.5-7.5 0-4.140625-3.355469-7.5-7.5-7.5zm0 0"/><path d="m224.109375 183.839844h-155.003906c-4.140625 0-7.5 3.359375-7.5 7.503906 0 4.140625 3.359375 7.5 7.5 7.5h155.003906c4.144531 0 7.5-3.359375 7.5-7.5 0-4.144531-3.355469-7.503906-7.5-7.503906zm0 0"/><path d="m224.109375 220.058594h-155.003906c-4.140625 0-7.5 3.359375-7.5 7.5 0 4.144531 3.359375 7.5 7.5 7.5h155.003906c4.144531 0 7.5-3.355469 7.5-7.5 0-4.140625-3.355469-7.5-7.5-7.5zm0 0"/><path d="m224.109375 256.277344h-155.003906c-4.140625 0-7.5 3.355468-7.5 7.5 0 4.140625 3.359375 7.5 7.5 7.5h155.003906c4.144531 0 7.5-3.359375 7.5-7.5 0-4.144532-3.355469-7.5-7.5-7.5zm0 0"/><path d="m307.277344 337.976562-17.132813-2.488281-7.65625-15.519531c-3.875-7.855469-15.082031-7.851562-18.957031 0l-7.660156 15.519531-17.125 2.488281c-8.664063 1.257813-12.128906 11.917969-5.859375 18.027344l12.394531 12.082032-2.925781 17.0625c-1.480469 8.628906 7.585937 15.210937 15.335937 11.140624l15.320313-8.054687 15.320312 8.054687c7.746094 4.074219 16.8125-2.511718 15.332031-11.140624l-2.925781-17.058594 12.394531-12.085938c6.269532-6.113281 2.804688-16.769531-5.855468-18.027344zm-18.679688 20.992188c-2.492187 2.429688-3.628906 5.925781-3.039062 9.355469l1.800781 10.503906-9.433594-4.960937c-3.078125-1.617188-6.753906-1.617188-9.835937 0l-9.433594 4.960937 1.804688-10.511719c.585937-3.425781-.550782-6.921875-3.039063-9.347656l-7.632813-7.4375 10.542969-1.535156c3.445313-.5 6.421875-2.660156 7.960938-5.78125l4.714843-9.554688 4.71875 9.558594c1.542969 3.121094 4.515626 5.28125 7.957032 5.777344l10.546875 1.535156zm0 0"/><path d="m19.550781 418.902344h175.136719l-27.96875 48.703125c-4.074219 7.089843 1.65625 15.800781 9.75 14.894531l29.140625-3.210938 11.910156 26.785157c3.316407 7.460937 13.71875 7.996093 17.78125.917969l37.707031-65.660157 37.710938 65.660157c4.0625 7.078124 14.464844 6.542968 17.78125-.917969l11.910156-26.789063 29.132813 3.214844c8.097656.898438 13.832031-7.800781 9.757812-14.894531l-36.945312-64.335938c5.722656-8.605469 9.851562-18.238281 12.054687-28.390625.878906-4.046875-1.691406-8.042968-5.738281-8.917968-4.050781-.878907-8.042969 1.691406-8.921875 5.738281-6.1875 28.535156-30.574219 50.578125-60.289062 53.441406-39.828126 3.734375-72.914063-26.957031-74.671876-64.515625-1.917968-38.117188 27.824219-70.660156 66.300782-71.738281 31.820312-.878907 60.15625 20.253906 68.097656 51.261719 1.027344 4.011718 5.105469 6.433593 9.125 5.402343 4.015625-1.023437 6.433594-5.113281 5.40625-9.125-7.761719-30.308593-31.597656-53.085937-61.003906-60.222656v-195.199219c0-2.023437-.855469-3.960937-2.195313-5.300781l-73.503906-73.507813c-1.429687-1.429687-3.414063-2.195312-5.304687-2.195312h-59.59375c-4.140626 0-7.5 3.359375-7.5 7.5 0 4.144531 3.359374 7.5 7.5 7.5h52.09375v54.453125c0 10.507813 8.546874 19.054687 19.050781 19.054687h54.453125v185.46875c-21.605469-1.160156-41.554688 5.824219-57.167969 18.515626h-151.441406c-4.140625 0-7.5 3.359374-7.5 7.503906 0 4.140625 3.359375 7.5 7.5 7.5h137.050781c-4.785156 6.425781-8.664062 13.558594-11.453125 21.214844h-125.597656c-4.140625 0-7.5 3.359374-7.5 7.5 0 4.140624 3.359375 7.5 7.5 7.5h121.691406c-3.332031 20.460937 1 41.785156 12.847656 59.59375-.265625.464843-.238281.417968-.34375.597656h-183.75c-2.234375 0-4.050781-1.816406-4.050781-4.050782v-380.800781c0-2.234375 1.816406-4.050781 4.050781-4.050781h97.566407c4.144531 0 7.5-3.355469 7.5-7.5 0-4.140625-3.355469-7.5-7.5-7.5h-97.566407c-10.503906 0-19.050781 8.546875-19.050781 19.050781v380.800781c0 10.503907 8.546875 19.050782 19.050781 19.050782zm312.675781-3.148438 29.144532 50.753906-22.960938-2.53125c-4.332031-.480468-8.445312 1.878907-10.21875 5.867188l-9.386718 21.109375-29.871094-52.015625c16.429687-3.179688 31.492187-11.242188 43.292968-23.183594zm-108.964843-342.25c-2.230469 0-4.050781-1.816406-4.050781-4.050781v-43.84375c7.085937 7.082031 40.816406 40.8125 47.898437 47.894531zm-9.46875 342.25c12.179687 12.328125 27.464843 20.117188 43.292969 23.183594l-29.871094 52.015625-9.386719-21.109375c-1.789063-4.023438-5.921875-6.347656-10.21875-5.867188l-22.964844 2.53125zm0 0"/></svg>