<svg height="512pt" viewBox="0 -32 512 511" width="512pt" xmlns="http://www.w3.org/2000/svg"><path d="m486.203125 384.792969h-459.667969c-10.308594 0-18.664062-8.359375-18.664062-18.667969v54.5c0 10.308594 8.355468 18.664062 18.664062 18.664062h459.667969c10.308594 0 18.664063-8.355468 18.664063-18.664062v-54.5c0 10.308594-8.355469 18.667969-18.664063 18.667969zm0 0" fill="#1dd1a1"/><path d="m486.203125 384.792969h-73.269531v54.496093h73.269531c10.308594 0 18.664063-8.355468 18.664063-18.664062v-54.5c0 10.308594-8.355469 18.667969-18.664063 18.667969zm0 0" fill="#15ba8b"/><path d="m412.933594 384.792969h30.003906v54.496093h-30.003906zm0 0" fill="#09a877"/><path d="m26.535156 384.792969c-10.308594 0-18.664062-8.359375-18.664062-18.667969v54.5c0 10.308594 8.355468 18.664062 18.664062 18.664062h73.269532v-54.496093zm0 0" fill="#15ba8b"/><path d="m37.871094 420.621094v-35.828125h-11.335938c-10.308594 0-18.667968-8.359375-18.667968-18.667969v54.496094c0 10.3125 8.359374 18.667968 18.667968 18.667968h30.003906c-10.308593 0-18.667968-8.355468-18.667968-18.667968zm0 0" fill="#09a877"/><path d="m486.203125 99.011719h-459.667969c-10.308594 0-18.664062 8.359375-18.664062 18.667969v251.445312c0 10.308594 8.355468 18.664062 18.664062 18.664062h459.667969c10.308594 0 18.664063-8.355468 18.664063-18.664062v-251.445312c0-10.308594-8.355469-18.667969-18.664063-18.667969zm0 0" fill="#4ef4c0"/><path d="m37.871094 369.125v-251.445312c0-10.308594 8.359375-18.664063 18.667968-18.664063h-30.003906c-10.308594 0-18.664062 8.355469-18.664062 18.664063v251.445312c0 10.308594 8.355468 18.667969 18.664062 18.667969h30.003906c-10.308593 0-18.667968-8.359375-18.667968-18.667969zm0 0" fill="#1dd1a1"/><path d="m345.519531 243.402344c0 49.234375-39.914062 89.148437-89.152343 89.148437-49.234376 0-89.148438-39.914062-89.148438-89.148437 0-49.238282 39.914062-89.152344 89.148438-89.152344 49.238281 0 89.152343 39.914062 89.152343 89.152344zm0 0" fill="#1dd1a1"/><path d="m197.222656 243.402344c0-44.125 32.054688-80.753906 74.148438-87.886719-4.878906-.828125-9.886719-1.265625-15-1.265625-49.238282 0-89.152344 39.914062-89.152344 89.152344 0 49.238281 39.914062 89.148437 89.152344 89.148437 5.113281 0 10.121094-.4375 15-1.261719-42.09375-7.132812-74.148438-43.765624-74.148438-87.886718zm0 0" fill="#15ba8b"/><path d="m26.535156 99.011719c-10.308594 0-18.664062 8.359375-18.664062 18.667969v74.277343h52.804687c21.519531 0 39.128907-17.609375 39.128907-39.128906v-53.816406zm0 0" fill="#1dd1a1"/><path d="m7.871094 117.679688v74.277343h30v-74.277343c0-10.308594 8.359375-18.667969 18.667968-18.667969h-30.003906c-10.308594 0-18.664062 8.359375-18.664062 18.667969zm0 0" fill="#15ba8b"/><path d="m26.535156 387.792969c-10.308594 0-18.664062-8.359375-18.664062-18.667969v-74.277344h52.804687c21.519531 0 39.128907 17.609375 39.128907 39.128906v53.816407zm0 0" fill="#1dd1a1"/><path d="m37.871094 369.125v-74.277344h-30v74.277344c0 10.308594 8.355468 18.667969 18.664062 18.667969h30.003906c-10.308593 0-18.667968-8.359375-18.667968-18.667969zm0 0" fill="#15ba8b"/><path d="m486.203125 99.011719c10.308594 0 18.664063 8.359375 18.664063 18.667969v74.277343h-52.804688c-21.519531 0-39.128906-17.609375-39.128906-39.128906v-53.816406zm0 0" fill="#1dd1a1"/><path d="m442.9375 152.828125v-53.816406h-30.003906v53.816406c0 21.519531 17.609375 39.128906 39.128906 39.128906h30c-21.519531 0-39.125-17.609375-39.125-39.128906zm0 0" fill="#15ba8b"/><path d="m486.203125 387.792969c10.308594 0 18.664063-8.359375 18.664063-18.667969v-74.277344h-52.804688c-21.519531 0-39.128906 17.609375-39.128906 39.128906v53.816407zm0 0" fill="#1dd1a1"/><path d="m482.066406 294.847656h-30.003906c-21.519531 0-39.128906 17.609375-39.128906 39.128906v53.816407h30.003906v-53.816407c0-21.523437 17.605469-39.128906 39.128906-39.128906zm0 0" fill="#15ba8b"/><path d="m263.5 52.332031v-44.332031c0-4.144531-3.355469-7.5-7.5-7.5s-7.5 3.355469-7.5 7.5v44.332031c0 4.144531 3.355469 7.5 7.5 7.5s7.5-3.355469 7.5-7.5zm0 0"/><path d="m314.753906 72.488281 26.566406-35.492187c2.484376-3.316406 1.808594-8.015625-1.507812-10.5s-8.019531-1.804688-10.5 1.507812l-26.570312 35.492188c-2.480469 3.316406-1.804688 8.015625 1.511718 10.5 3.3125 2.480468 8.015625 1.804687 10.5-1.507813zm0 0"/><path d="m207.746094 73.996094c3.316406-2.484375 3.992187-7.183594 1.507812-10.5l-26.566406-35.492188c-2.484375-3.3125-7.183594-3.988281-10.5-1.507812-3.316406 2.484375-3.992188 7.183594-1.511719 10.5l26.570313 35.492187c2.476562 3.308594 7.179687 3.992188 10.5 1.507813zm0 0"/><path d="m159.347656 243.390625c0 53.292969 43.359375 96.648437 96.652344 96.648437s96.652344-43.355468 96.652344-96.648437c0-53.296875-43.359375-96.652344-96.652344-96.652344s-96.652344 43.359375-96.652344 96.652344zm178.300782 0c0 45.019531-36.628907 81.648437-81.648438 81.648437-45.023438 0-81.652344-36.628906-81.652344-81.648437 0-45.023437 36.628906-81.652344 81.652344-81.652344 45.019531.003907 81.648438 36.628907 81.648438 81.652344zm0 0"/><path d="m252.261719 196.789062v3.355469c-13.816407 1.820313-23.234375 9.25-23.234375 23.355469 0 14.535156 10.65625 19.273438 23.234375 24.070312v23.835938c-6.375-.769531-9.425781-3.296875-15.328125-7.726562-2.953125-2.210938-5.878906-1.414063-8.085938 1.683593-7.617187 10.695313 9.097656 20.234375 23.414063 20.234375v3.386719c0 1.777344 2.042969 3.019531 4.074219 3.019531 1.855468 0 4.070312-1.222656 4.070312-2.992187v-3.714844c12.546875-1.9375 22.636719-9.882813 22.636719-25.390625 0-14.488281-9.054688-20.6875-22.636719-25.628906v-21.078125c4.449219.355469 6.742188 1.398437 11.617188 3.832031 8.15625 4.097656 19.394531-17.066406-11.617188-17.066406v-3.144532c0-1.789062-2.214844-3.027343-4.070312-3.027343-2.015626 0-4.074219 1.226562-4.074219 2.996093zm.960937 34.851563c-2.796875-1.117187-5.089844-2.355469-6.890625-3.710937-3.625-2.738282-5.628906-12.398438 6.890625-14.375zm6.226563 18.804687c2.554687 1.117188 4.691406 2.496094 6.40625 4.132813 3.746093 3.574219 4.96875 14.300781-6.40625 16.707031zm0 0"/><path d="m485.832031 91.5c-17 0-448.433593 0-459.664062 0-14.429688 0-26.167969 11.738281-26.167969 26.167969v177.167969 125.777343c0 14.425781 11.738281 26.164063 26.167969 26.164063h212.332031c4.140625 0 7.5-3.355469 7.5-7.5 0-4.144532-3.359375-7.5-7.5-7.5h-131.566406v-36.496094h298.132812v36.496094h-131.566406c-4.144531 0-7.5 3.355468-7.5 7.5 0 4.144531 3.355469 7.5 7.5 7.5h212.332031c14.429688 0 26.167969-11.738282 26.167969-26.164063 0-3.617187 0-123.769531 0-125.777343v-34.945313c0-4.140625-3.359375-7.5-7.5-7.5-4.144531 0-7.5 3.359375-7.5 7.5v27.445313h-45.308594c-25.710937 0-46.628906 20.917968-46.628906 46.628906v46.316406h-298.128906v-46.316406c0-25.710938-20.917969-46.628906-46.628906-46.628906h-45.304688v-87.890626h45.304688c25.710937 0 46.628906-20.917968 46.628906-46.628906v-46.316406h298.132812v46.316406c0 25.710938 20.914063 46.628906 46.625 46.628906h45.308594v25.441407c0 4.144531 3.355469 7.503906 7.5 7.503906s7.5-3.359375 7.5-7.503906v-107.21875c0-14.429688-11.738281-26.167969-26.167969-26.167969zm-65.765625 242.464844c0-17.441406 14.1875-31.628906 31.625-31.628906h45.308594v66.777343c0 6.15625-5.011719 11.164063-11.167969 11.164063h-65.765625zm0 61.316406h65.765625c3.917969 0 7.769531-.898438 11.167969-2.503906v27.832031c0 6.15625-5.011719 11.167969-11.167969 11.167969h-65.765625zm-328.132812 36.496094h-65.765625c-6.15625 0-11.167969-5.011719-11.167969-11.167969v-27.832031c3.351562 1.585937 7.242188 2.503906 11.167969 2.503906h65.765625zm-31.628906-129.441406c17.441406 0 31.628906 14.1875 31.628906 31.628906v46.316406h-65.765625c-6.15625 0-11.167969-5.011719-11.167969-11.167969v-66.777343zm31.628906-149.519532c0 17.4375-14.1875 31.628906-31.628906 31.628906h-45.304688v-66.777343c0-6.15625 5.011719-11.167969 11.167969-11.167969h65.765625zm405.066406 31.628906h-45.308594c-17.4375 0-31.625-14.191406-31.625-31.628906v-46.316406h65.765625c6.15625 0 11.167969 5.007812 11.167969 11.167969zm0 0"/></svg>