<svg height="512pt" viewBox="0 -11 512.00035 512" width="512pt" xmlns="http://www.w3.org/2000/svg"><path d="m498.800781 207.835938c11.878907-11.578126 5.324219-31.75-11.089843-34.132813l-137.039063-19.914063c-6.519531-.945312-12.15625-5.039062-15.070313-10.945312l-61.285156-124.183594c-7.34375-14.875-28.550781-14.875-35.890625 0l-61.289062 124.183594c-2.914063 5.90625-8.550781 10-15.066407 10.945312l-137.042968 19.914063c-16.414063 2.386719-22.96875 22.554687-11.089844 34.132813l99.164062 96.664062c4.714844 4.597656 6.867188 11.21875 5.753907 17.710938l-23.410157 136.488281c-2.804687 16.347656 14.355469 28.816406 29.035157 21.097656l122.574219-64.441406c5.832031-3.066407 12.796874-3.066407 18.625 0l122.578124 64.441406c14.679688 7.71875 31.839844-4.75 29.035157-21.097656l-23.410157-136.488281c-1.113281-6.492188 1.039063-13.117188 5.753907-17.710938zm0 0" fill="#feca57"/><path d="m192.070312 148.789062c6.519532-.949218 12.152344-5.039062 15.070313-10.945312l61.285156-124.183594c.257813-.519531.535157-1.015625.824219-1.5-9.367188-7.894531-24.785156-5.734375-30.824219 6.5l-61.289062 124.183594c-2.160157 4.378906-5.824219 7.761719-10.226563 9.601562zm0 0" fill="#f4b537"/><path d="m125.449219 453.699219 23.410156-136.488281c1.109375-6.492188-1.039063-13.117188-5.757813-17.710938l-99.164062-96.664062c-10.605469-10.335938-6.507812-27.519532 6.179688-32.777344l-25.089844 3.644531c-16.414063 2.386719-22.96875 22.558594-11.089844 34.132813l99.164062 96.664062c4.714844 4.597656 6.867188 11.21875 5.753907 17.710938l-23.410157 136.488281c-2.804687 16.347656 14.355469 28.816406 29.035157 21.097656l10.484375-5.511719c-6.664063-3.976562-11.039063-11.703125-9.515625-20.585937zm0 0" fill="#f4b537"/><path d="m255.75 146.476562c-36.152344 0-65.457031 29.304688-65.457031 65.457032v26.464844c4.378906-4.054688 10.601562-6.257813 16.675781-5.445313v-3.265625c0-2.589844 2.214844-4.640625 4.78125-4.445312 25.308594 1.820312 51.0625-6.222657 70.539062-18.945313 1.816407-1.1875 4.222657-.890625 5.699219.695313 16.648438 17.898437 16.550781 17.203124 16.550781 19.539062v6.40625c6.65625-1 12.566407 1.058594 16.667969 4.875v-25.878906c0-36.152344-29.304687-65.457032-65.457031-65.457032zm0 0" fill="#576574"/><path d="m220.296875 211.933594c0-30.988282 21.539063-56.925782 50.457031-63.710938-4.820312-1.128906-9.835937-1.746094-15-1.746094-36.152344 0-65.457031 29.304688-65.457031 65.457032v26.464844c4.375-4.054688 10.597656-6.257813 16.671875-5.445313v-3.261719c0-2.59375 2.214844-4.640625 4.78125-4.449218 2.847656.207031 5.699219.28125 8.546875.242187zm0 0" fill="#3e4b5a"/><path d="m304.449219 230.566406v36c0 .390625-.019531.773438-.027344 1.164063 12.738281 1.929687 22.714844-7.277344 22.714844-18.582031 0-11.324219-9.988281-20.484376-22.6875-18.582032zm0 0" fill="#ffbeab"/><path d="m320.953125 235.253906c-4.109375-3.695312-9.941406-5.667968-16.503906-4.6875v36c0 .390625-.019531.773438-.027344 1.164063 6.578125.996093 12.417969-.984375 16.53125-4.683594zm0 0" fill="#f7af9f"/><path d="m207.113281 230.535156c-11.117187-1.484375-22.742187 7.046875-22.742187 18.613282 0 11.320312 9.980468 20.5625 22.773437 18.625-.042969-1.691407-.03125 3.738281-.03125-37.238282zm0 0" fill="#ffbeab"/><path d="m207.113281 263.121094c-7.597656-6.796875-9.027343-19.296875 0-27.359375v-5.226563c-11.117187-1.484375-22.742187 7.046875-22.742187 18.613282 0 11.320312 9.980468 20.5625 22.773437 18.625-.035156-1.394532-.03125.296874-.03125-4.652344zm0 0" fill="#f7af9f"/><path d="m256.449219 312.285156c-10.574219 0-19.867188-2.902344-27.46875-7.757812v26.816406l27.351562 33.761719 27.351563-33.761719v-27.542969c-7.75 5.347657-17.128906 8.484375-27.234375 8.484375zm0 0" fill="#ffbeab"/><path d="m258.980469 312.210938c-.835938.046874-1.679688.074218-2.53125.074218-10.574219 0-19.867188-2.902344-27.46875-7.757812v26.816406l27.351562 33.761719 2.648438-3.273438zm0 0" fill="#f7af9f"/><path d="m356.039062 357.066406-72.355468-28.023437-27.351563 33.761719-27.351562-33.761719-72.28125 28.023437s-26.761719 11.003906-26.761719 41.511719v78.351563l117.121094-61.574219c5.828125-3.066407 12.792968-3.066407 18.625 0l117.121094 61.574219c0-28.117188 0-61.289063 0-78.351563-.003907-30.507813-26.765626-41.511719-26.765626-41.511719zm0 0" fill="#e4eaf8"/><path d="m159.9375 383.578125c0-16.296875 7.636719-27.023437 14.75-33.484375l-17.988281 6.972656s-26.765625 11.003906-26.765625 41.511719v78.351563l30.003906-15.773438c0-27.777344 0-63.40625 0-77.578125zm0 0" fill="#c7d2e5"/><path d="m287.988281 204.695312c-1.476562-1.585937-3.882812-1.882812-5.699219-.695312-19.476562 12.722656-45.230468 20.765625-70.539062 18.945312-2.566406-.195312-4.78125 1.855469-4.78125 4.445313v39.105469c0 25.132812 19.691406 48.089844 49.480469 48.089844 26.515625 0 48.089843-21.574219 48.089843-48.089844v-42.261719c0-2.335937.097657-1.644531-16.550781-19.539063zm0 0" fill="#ffcdbf"/><path d="m236.96875 266.496094v-44.835938c-8.289062 1.398438-16.777344 1.894532-25.21875 1.285156-2.566406-.195312-4.78125 1.855469-4.78125 4.445313v39.105469c0 25.132812 19.691406 48.089844 49.480469 48.089844 5.058593 0 9.933593-.792969 14.515625-2.246094-20.933594-6.355469-33.996094-25.375-33.996094-45.84375zm0 0" fill="#ffbeab"/><path d="m289.355469 380.15625 20.453125-40.992188-26.125-10.117187-27.351563 33.761719 26.667969 18.9375c2.15625 1.53125 5.175781.777344 6.355469-1.589844zm0 0" fill="#c7d2e5"/><path d="m223.34375 380.15625-20.453125-40.992188 26.128906-10.117187 27.351563 33.761719-26.667969 18.9375c-2.160156 1.53125-5.175781.777344-6.359375-1.589844zm0 0" fill="#c7d2e5"/><path d="m247.058594 415.355469c5.828125-3.066407 12.792968-3.066407 18.625 0l5.671875 2.980469-4.761719-28.183594h-20.488281l-4.765625 28.207031zm0 0" fill="#ff6b6b"/><path d="m256.367188 362.828125v-.019531l-.015626.011718-.019531-.011718v.019531l-19.394531 13.777344 9.167969 13.796875h20.488281l9.167969-13.796875zm0 0" fill="#ee5253"/><path d="m488.421875 166.269531-137.042969-19.914062c-4.074218-.59375-7.597656-3.152344-9.417968-6.84375l-61.289063-124.183594c-10.085937-20.441406-39.257813-20.433594-49.34375 0l-61.285156 124.183594c-1.824219 3.691406-5.34375 6.25-9.421875 6.84375l-137.042969 19.914062c-22.558594 3.277344-31.5625 31.019531-15.246094 46.925781l99.164063 96.660157c2.949218 2.875 4.292968 7.015625 3.597656 11.074219l-23.40625 136.488281c-3.855469 22.46875 19.746094 39.609375 39.917969 29.003906l122.574219-64.441406c3.429687-1.800781 7.878906-1.980469 11.640624 0 2.097657 1.105469 120.460938 63.332031 122.578126 64.441406 20.175781 10.609375 43.769531-6.542969 39.917968-29l-21.597656-125.914063c-.699219-4.082031-4.582031-6.835937-8.660156-6.125-4.082032.699219-6.824219 4.578126-6.125 8.660157l21.597656 125.914062c1.753906 10.234375-8.949219 18.03125-18.152344 13.1875l-1.445312-.757812v-73.121094c0-35.128906-30.128906-47.917969-31.410156-48.445313-.046876-.019531-.09375-.039062-.144532-.058593-15.191406-5.882813-53.511718-20.722657-67.5625-26.167969v-14.054688c10.558594-8.472656 17.96875-20.710937 20.167969-34.664062 13.667969-1.667969 23.28125-13.011719 23.28125-26.035156 0-6.105469-2.121094-11.945313-5.925781-16.578125v-20.640625c0-32.34375-21.699219-61.171875-52.765625-70.105469-3.980469-1.144531-8.136719 1.152344-9.28125 5.136719-1.144531 3.980468 1.152343 8.136718 5.136719 9.28125 24.675781 7.09375 41.910156 29.996094 41.910156 55.6875v11.578125c-.203125-.042969-1.625-.296875-1.6875-.308594-.214844-4.84375-2.226563-6.078125-18.539063-23.613281l-.003906-.003906c-3.972656-4.269532-10.410156-5.054688-15.292969-1.863282-18.777344 12.265625-42.453125 19.296875-65.96875 17.742188-3.507812-.234375-6.992187 1.230468-8.917968 3.15625-1.441407 1.339844-2.539063 3.113281-3.113282 4.707031-.4375.066406-2.105468.410156-2.390625.480469v-11.875c0-26.230469 17.683594-49.257813 43.003907-56 4.003906-1.066406 6.382812-5.175782 5.316406-9.175782-1.066406-4.003906-5.171875-6.390624-9.175782-5.320312-31.878906 8.488281-54.144531 37.476562-54.144531 70.496094v21.175781c-3.847656 4.578125-5.925781 10.144531-5.925781 16.039063 0 13.09375 9.6875 24.402343 23.324219 26.042968 2.226562 13.621094 9.613281 26.6875 21.285156 35.554688v13.164062l-67.492187 26.164063c-.046876.019531-.09375.039062-.140626.058593-1.28125.527344-31.410156 13.316407-31.410156 48.445313v73.121094l-1.445312.757812c-9.191406 4.832031-19.910156-2.9375-18.152344-13.1875l23.410156-136.492187c1.53125-8.925782-1.425781-18.027344-7.910156-24.351563l-99.164062-96.660156c-7.4375-7.246094-3.359376-19.84375 6.933593-21.339844l137.042969-19.914062c8.960938-1.304688 16.703125-6.929688 20.714844-15.050781l61.285156-124.183594c4.597656-9.3125 17.835938-9.324219 22.4375 0l61.289062 124.183594c4.007813 8.121093 11.75 13.746093 20.714844 15.050781l137.039063 19.914062c10.277343 1.492188 14.382812 14.082031 6.9375 21.339844l-92.28125 89.949219c-2.964844 2.890625-3.023438 7.640625-.132813 10.605468 2.890625 2.964844 7.640625 3.027344 10.605469.136719l92.277344-89.949219c16.324219-15.910156 7.304687-43.652343-15.246094-46.925781zm-176.753906 73.011719c4.722656 1.640625 7.597656 5.914062 7.597656 10.558594 0 4.726562-2.957031 8.976562-7.597656 10.574218zm-112.570313 21.136719c-4.628906-1.597657-7.59375-5.835938-7.59375-10.578125 0-4.597656 3.355469-8.375 7.59375-10.128906zm51.71875 145.617187 1.257813-7.441406h7.8125l1.257812 7.433594c-3.429687-.648438-7.007812-.625-10.328125.007812zm11.386719-22.441406h-12.445313l-2.917968-4.394531 9.140625-6.492188 9.140625 6.492188zm-26.089844-56.5625v-7.554688c11.972657 4.183594 26.691407 4.652344 39.699219-.320312v7.921875l-19.832031 24.480469zm76.988281 22.28125 39.746094 15.394531c1.5625.679688 22.085938 10.078125 22.085938 34.558594v65.234375l-30.546875-16.058594v-38.6875c0-4.144531-3.355469-7.5-7.5-7.5s-7.5 3.355469-7.5 7.5v30.800782l-51.792969-27.230469-3.476562-20.554688 3.242187-4.878906.929687.660156c5.914063 4.199219 14.175782 2.121094 17.410157-4.359375zm-14.050781-5.441406-15.113281 30.292968c-.285156-.203124-15.15625-10.765624-17.117188-12.160156l18.882813-23.300781zm-84.949219-76.683594c0-3.96875 0-31.925781 0-35.886719 23.613282.960938 48.738282-5.84375 69.753907-18.953125 6.875 7.375 11.09375 11.792969 12.8125 13.777344 0 1.511719.003906 40.917969-.023438 42.097656-.679687 26.894532-26.980469 46.210938-54.410156 37.441406-17.410156-5.601562-28.132813-21.871093-28.132813-38.476562zm12.132813 71.527344 18.882813 23.308594c-9.582032 6.808593-16.714844 11.875-17.089844 12.140624l-15.117188-30.292968zm-89.167969 60.550781c0-24.605469 20.738282-33.976563 22.074219-34.554687l39.71875-15.398438 17.40625 34.878906c3.238281 6.488282 11.507813 8.550782 17.410156 4.355469l.929688-.65625 3.242187 4.878906-3.484375 20.574219-51.746093 27.207031v-30.800781c0-4.140625-3.359376-7.5-7.503907-7.5-4.140625 0-7.5 3.359375-7.5 7.5v38.6875c-12.726562 6.691406-8.539062 4.488281-30.546875 16.058594zm0 0"/></svg>