<svg height="511pt" viewBox="0 -11 511.99935 511" width="511pt" xmlns="http://www.w3.org/2000/svg"><path d="m498.800781 208.335938c11.878907-11.578126 5.324219-31.75-11.089843-34.136719l-137.042969-19.914063c-6.515625-.945312-12.152344-5.039062-15.066407-10.945312l-61.289062-124.179688c-7.339844-14.875-28.546875-14.875-35.886719 0l-61.289062 124.179688c-2.914063 5.90625-8.550781 10-15.066407 10.949218l-137.042968 19.910157c-16.414063 2.386719-22.96875 22.558593-11.089844 34.136719l99.164062 96.660156c4.714844 4.597656 6.867188 11.222656 5.753907 17.710937l-23.40625 136.492188c-2.804688 16.347656 14.351562 28.8125 29.035156 21.09375l122.570313-64.441407c5.832031-3.0625 12.796874-3.0625 18.628906 0l122.574218 64.441407c14.679688 7.71875 31.839844-4.746094 29.035157-21.09375l-23.410157-136.488281c-1.113281-6.492188 1.039063-13.117188 5.753907-17.714844zm0 0" fill="#feca57"/><path d="m192.070312 149.453125c6.519532-.945313 12.152344-5.039063 15.070313-10.945313l61.285156-124.183593c.277344-.558594.578125-1.089844.890625-1.605469-9.359375-7.964844-24.839844-5.824219-30.890625 6.441406l-61.289062 124.179688c-2.273438 4.605468-6.203125 8.101562-10.910157 9.871094zm0 0" fill="#f4b537"/><path d="m125.449219 454.363281 23.410156-136.488281c1.113281-6.492188-1.039063-13.113281-5.757813-17.710938l-99.164062-96.664062c-10.78125-10.507812-6.375-28.09375 6.804688-33.035156l-25.714844 3.734375c-16.414063 2.386719-22.96875 22.558593-11.089844 34.136719l99.164062 96.660156c4.714844 4.597656 6.867188 11.222656 5.753907 17.710937l-23.40625 136.492188c-2.804688 16.347656 14.351562 28.8125 29.035156 21.09375l10.332031-5.429688c-6.582031-4.003906-10.878906-11.683593-9.367187-20.5zm0 0" fill="#f4b537"/><path d="m256.371094 147.675781c-37.152344 0-67.265625 30.113281-67.265625 67.265625v94.871094c0 4.925781 3.992187 8.917969 8.917969 8.917969h30.917968 54.707032 31.070312c4.925781 0 8.917969-3.992188 8.917969-8.917969 0-8.992188 0-26.203125 0-43.964844v-25.105468c0-10.523438 0-19.78125 0-25.800782 0-37.152344-30.117188-67.265625-67.265625-67.265625zm0 0" fill="#576574"/><path d="m219.109375 309.8125c0-.988281 0-93.886719 0-94.871094 0-31.992187 22.335937-58.746094 52.261719-65.566406-4.828125-1.101562-9.84375-1.699219-15-1.699219-37.152344 0-67.265625 30.113281-67.265625 67.261719v94.875c0 4.925781 3.996093 8.917969 8.917969 8.917969h30.003906c-4.925782 0-8.917969-3.992188-8.917969-8.917969zm0 0" fill="#3e4b5a"/><path d="m305.054688 234.824219v35.894531c0 .347656-.019532.695312-.027344 1.039062 12.804687 2.457032 23.46875-6.746093 23.46875-18.464843 0-11.707031-10.648438-20.902344-23.441406-18.46875zm0 0" fill="#ffbeab"/><path d="m323.660156 240.738281c-4.308594-4.753906-11.085937-7.34375-18.605468-5.914062v35.894531c0 .347656-.019532.691406-.027344 1.039062 7.53125 1.445313 14.316406-1.148437 18.632812-5.90625zm0 0" fill="#f7af9f"/><path d="m257.066406 317.191406c-10.863281 0-20.375-3.0625-28.085937-8.160156v24.980469l27.351562 33.761719 27.351563-33.761719v-24.886719c-7.628906 5.089844-16.78125 8.066406-26.617188 8.066406zm0 0" fill="#ffbeab"/><path d="m258.980469 317.152344c-.632813.023437-1.273438.039062-1.914063.039062-10.863281 0-20.375-3.0625-28.085937-8.160156v24.980469l27.351562 33.761719 2.648438-3.273438zm0 0" fill="#f7af9f"/><path d="m301.992188 225.808594c-5.988282-1.816406-17.71875-6.609375-29.023438-18.265625-1.84375-1.902344-4.863281-1.761719-6.554688.164062-7.917968 9.03125-29.21875 31.101563-55.914062 40.957031-1.753906.648438-2.914062 2.316407-2.914062 4.183594v17.792969c0 25.125 19.683593 48.089844 49.476562 48.089844 26.519531 0 48.089844-21.570313 48.089844-48.089844v-40.566406c0-1.960938-1.28125-3.695313-3.160156-4.265625zm0 0" fill="#ffcdbf"/><path d="m237.585938 270.640625v-36.710937c-8.015626 5.734374-17.179688 11.074218-27.085938 14.734374-1.75.648438-2.914062 2.316407-2.914062 4.183594v17.792969c0 25.125 19.683593 48.089844 49.476562 48.089844 4.980469 0 9.785156-.761719 14.308594-2.171875-19.554688-6.105469-33.785156-24.378906-33.785156-45.917969zm0 0" fill="#ffbeab"/><path d="m356.039062 360.492188-72.355468-28.023438-27.351563 33.761719-27.351562-33.761719-72.28125 28.023438s-26.761719 11.003906-26.761719 41.511718v75.421875l117.121094-61.574219c5.828125-3.066406 12.792968-3.066406 18.625 0l117.121094 61.574219c0-27.457031 0-58.949219 0-75.421875-.003907-30.507812-26.765626-41.511718-26.765626-41.511718zm0 0" fill="#e4eaf8"/><g fill="#c7d2e5"><path d="m159.9375 387.003906c0-16.296875 7.636719-27.023437 14.75-33.484375l-17.988281 6.972657s-26.761719 11.003906-26.761719 41.511718v75.421875l30-15.773437c0-26.929688 0-61.035156 0-74.648438zm0 0"/><path d="m289.355469 383.582031 20.453125-40.992187-26.125-10.117188-27.351563 33.757813 26.667969 18.941406c2.15625 1.53125 5.175781.777344 6.355469-1.589844zm0 0"/><path d="m223.34375 383.582031-20.453125-40.992187 26.128906-10.117188 27.351563 33.757813-26.667969 18.941406c-2.160156 1.53125-5.175781.777344-6.359375-1.589844zm0 0"/></g><path d="m256.351562 366.246094-18.960937 13.464844c2.382813 8.214843 9.960937 14.21875 18.941406 14.21875 8.992188 0 16.570313-6.015626 18.945313-14.242188zm0 0" fill="#ee5253"/><path d="m259.5625 384.144531c-1.355469-2.316406-.703125-5.289062 1.488281-6.84375l5.433594-3.859375-10.132813-7.195312-18.960937 13.464844c2.382813 8.214843 9.960937 14.222656 18.941406 14.222656 3.710938 0 7.171875-1.039063 10.132813-2.820313-2.84375-1.707031-5.222656-4.105469-6.902344-6.96875zm0 0" fill="#d83941"/><path d="m397.894531 295.847656c-2.964843 2.890625-3.023437 7.640625-.132812 10.605469s7.640625 3.027344 10.605469.136719l95.300781-92.898438c16.320312-15.910156 7.304687-43.648437-15.25-46.925781l-137.039063-19.914063c-4.078125-.59375-7.597656-3.152343-9.421875-6.84375l-61.285156-124.179687c-10.089844-20.441406-39.257813-20.433594-49.34375 0l-61.285156 124.179687c-1.824219 3.695313-5.347657 6.253907-9.421875 6.84375l-137.042969 19.914063c-22.558594 3.277344-31.5625 31.019531-15.246094 46.929687l99.164063 96.660157c2.949218 2.871093 4.296875 7.015625 3.597656 11.074219l-23.40625 136.488281c-3.855469 22.464843 19.746094 39.605469 39.917969 29.003906 5.597656-2.941406 113.605469-59.726563 122.574219-64.441406 3.644531-1.921875 7.996093-1.917969 11.644531 0l117.117187 61.574219c.003906 0 .007813 0 .007813.003906l5.449219 2.859375c20.179687 10.609375 43.765624-6.5625 39.917968-29l-21.09375-122.964844c-.699218-4.085937-4.582031-6.824219-8.65625-6.125-4.085937.699219-6.824218 4.578125-6.125 8.660156l21.089844 122.964844c1.753906 10.234375-8.949219 18.03125-18.152344 13.1875l-1.445312-.757813v-70.890624c0-35.132813-30.128906-47.921876-31.410156-48.449219-.046876-.019531-.097657-.039063-.144532-.058594l-67.566406-26.164063v-1.101562h23.535156c9.054688 0 16.417969-7.363281 16.417969-16.417969v-41.335937c3.132813-4.382813 4.863281-9.660156 4.863281-15.183594 0-5.519531-1.730468-10.796875-4.863281-15.179688v-23.175781c0-33.75-22.746094-63.4375-55.316406-72.191406-3.996094-1.074219-8.117188 1.292969-9.191407 5.296875-1.074218 4 1.296876 8.113281 5.296876 9.1875 26.03125 6.996094 44.210937 30.726562 44.210937 57.707031v12.941407c-1.070313-.269532-2.539063-.550782-3.828125-.695313-.988281-4.027344-4.066406-7.316406-8.132812-8.550781-8.492188-2.582032-17.800782-8.042969-25.816407-16.316406-4.882812-5.027344-13-4.769532-17.578125.445312-7.542968 8.597656-27.792968 29.601562-52.875 38.863281-4.644531 1.714844-7.816406 6.226563-7.816406 11.222657v17.792968c0 15.308594 6.269531 30.046875 17.632812 40.589844h-19.695312c-.78125 0-1.417969-.636719-1.417969-1.417969v-94.875c0-26.980469 18.179688-50.710937 44.210938-57.707031 4-1.074219 6.371093-5.1875 5.296875-9.1875-1.078125-4.003906-5.1875-6.371094-9.191406-5.296875-32.570313 8.753906-55.316407 38.441406-55.316407 72.191406v94.875c0 9.054688 7.363281 16.417969 16.417969 16.417969h23.457031v1.101562l-67.492187 26.164063c-.046875.019531-.09375.039063-.140625.058594-1.28125.527343-31.410157 13.316406-31.410157 48.449219v70.890624l-1.445312.757813c-9.191406 4.835937-19.910156-2.9375-18.152344-13.1875l23.410156-136.488281c1.53125-8.925782-1.429687-18.03125-7.914062-24.351563l-99.164062-96.660156c-7.4375-7.25-3.359376-19.847656 6.933593-21.34375l137.042969-19.914063c8.964844-1.300781 16.707031-6.925781 20.714844-15.046874l61.289062-124.183594c4.597656-9.3125 17.835938-9.320313 22.4375 0l61.289063 124.183594c4.007812 8.121093 11.75 13.746093 20.714843 15.046874l137.042969 19.914063c10.273438 1.496094 14.378907 14.082031 6.929688 21.34375zm-98.84375 50.75-15.113281 30.292969-17.117188-12.160156 18.882813-23.304688zm-43.070312 7.683594-19.867188-24.527344v-7.046875c11.828125 4.292969 26.570313 4.949219 39.699219.125v6.96875zm8.726562 27.351562c-4.648437 5.273438-12.800781 5.300782-17.476562.015626l8.75-6.214844zm47.578125-139.164062c5.003906 1.398438 8.34375 5.804688 8.34375 10.8125 0 5.1875-3.53125 9.484375-8.34375 10.816406zm-.703125 36.960938c1.253907-.121094 2.816407-.382813 4.183594-.730469v31.101562c0 .78125-.636719 1.417969-1.417969 1.417969h-19.714844c9.007813-8.421875 15.007813-19.640625 16.949219-31.789062zm-96.867187-8.800782v-15.699218c20.601562-8.109376 40.097656-23.75 54.816406-39.878907 8.480469 8.089844 18.292969 13.953125 27.753906 17.222657v38.355468c0 22.085938-17.972656 40.589844-40.589844 40.589844-25.949218 0-41.980468-20.304688-41.980468-40.589844zm11.519531 70.808594 18.882813 23.3125-17.09375 12.140625-15.113282-30.292969zm-89.164063 60.554688c0-24.613282 20.742188-33.984376 22.074219-34.558594l39.714844-15.398438 17.40625 34.878906v.003907c1.542969 3.089843 4.351563 5.347656 7.703125 6.183593 4.542969 1.140626 7.660156-.371093 11.023438-2.765624 10.78125 13.714843 31.25 13.632812 41.953124-.015626l1.339844.953126c5.90625 4.195312 14.175782 2.128906 17.414063-4.359376v.003907l17.402343-34.878907 39.742188 15.390626c1.5625.675781 22.085938 10.078124 22.085938 34.5625v63.003906l-30.542969-16.058594v-36.601562c0-4.140626-3.359375-7.5-7.5-7.5-4.144531 0-7.5 3.359374-7.5 7.5v28.714843l-60.582031-31.847656c-8.019532-4.214844-17.589844-4.21875-25.605469 0l-60.582031 31.847656v-28.714843c0-4.140626-3.355469-7.5-7.5-7.5-4.144532 0-7.5 3.359374-7.5 7.5v36.601562l-30.546876 16.058594zm0 0"/></svg>