<svg height="511pt" viewBox="-54 0 511 511.9988" width="511pt" xmlns="http://www.w3.org/2000/svg"><path d="m160.003906 5.609375c-44.546875 0-80.65625 36.113281-80.65625 80.65625v113.761719c0 5.90625 4.789063 10.691406 10.695313 10.691406h37.074219 65.59375 37.257812c5.90625 0 10.691406-4.785156 10.691406-10.691406 0-10.785156 0-31.421875 0-52.71875v-30.101563c0-12.617187 0-23.722656 0-30.941406 0-44.542969-36.109375-80.65625-80.65625-80.65625zm0 0" fill="#576574"/><path d="m109.464844 200.023438c0-1.183594 0-112.574219 0-113.757813 0-39.398437 28.25-72.175781 65.597656-79.230469-4.882812-.921875-9.910156-1.425781-15.058594-1.425781-44.546875 0-80.65625 36.113281-80.65625 80.65625v113.761719c0 5.90625 4.789063 10.691406 10.695313 10.691406h30.117187c-5.90625 0-10.695312-4.789062-10.695312-10.695312zm0 0" fill="#3e4b5a"/><path d="m218.378906 110.109375v43.035156c0 .421875-.023437.835938-.03125 1.25 15.355469 2.945313 28.140625-8.089843 28.140625-22.140625 0-14.039062-12.769531-25.0625-28.109375-22.144531zm0 0" fill="#ffbeab"/><path d="m240.691406 117.199219c-5.167968-5.699219-13.292968-8.804688-22.3125-7.089844v43.035156c0 .421875-.023437.835938-.03125 1.25 9.03125 1.730469 17.167969-1.375 22.34375-7.082031zm0 0" fill="#f7af9f"/><path d="m160.835938 208.871094c-13.023438 0-24.425782-3.671875-33.675782-9.785156v29.957031l32.796875 40.480469 32.796875-40.480469v-29.839844c-9.144531 6.101563-20.121094 9.667969-31.917968 9.667969zm0 0" fill="#ffbeab"/><path d="m157.277344 208.769531c-11.546875-.609375-21.722656-4.132812-30.117188-9.683593v29.957031l30.117188 37.171875zm0 0" fill="#f7af9f"/><path d="m214.707031 99.296875c-7.179687-2.179687-21.246093-7.925781-34.796875-21.902344-2.210937-2.28125-5.832031-2.113281-7.859375.195313-9.496093 10.832031-35.039062 37.292968-67.050781 49.113281-2.097656.773437-3.492188 2.777344-3.492188 5.015625v21.335938c0 30.128906 23.601563 57.664062 59.328126 57.664062 31.796874 0 57.664062-25.867188 57.664062-57.664062v-48.640626c0-2.351562-1.539062-4.429687-3.792969-5.117187zm0 0" fill="#ffcdbf"/><path d="m131.625 153.058594v-40.015625c-8.136719 5.316406-17.089844 10.140625-26.621094 13.660156-2.101562.773437-3.496094 2.777344-3.496094 5.015625v21.339844c0 30.125 23.601563 57.660156 59.328126 57.660156 4.910156 0 9.671874-.617188 14.226562-1.777344-24.941406-6.351562-43.4375-28.996094-43.4375-55.882812zm0 0" fill="#ffbeab"/><path d="m238.984375 404.507812c-9.046875-12.273437-14.402344-27.433593-14.402344-43.851562 0-40.867188 33.128907-74 74-74 2.65625 0 5.28125.148438 7.871094.421875-9.070313-18.929687-26.9375-26.285156-26.9375-26.285156l-86.761719-33.597657-32.792968 40.480469-32.796876-40.480469-86.671874 33.597657s-32.089844 13.195312-32.089844 49.777343v143.511719c0 5.902344 4.789062 10.691407 10.691406 10.691407h185.894531zm0 0" fill="#e4eaf8"/><g fill="#c7d2e5"><path d="m38.515625 454.082031c0-26.742187 0-124.46875 0-157.566406 0-22.429687 12.058594-36.054687 21.394531-43.25l-19.417968 7.527344s-32.089844 13.195312-32.089844 49.777343v143.511719c0 5.902344 4.789062 10.691407 10.691406 10.691407h30.117188c-5.90625 0-10.695313-4.789063-10.695313-10.691407zm0 0"/><path d="m199.558594 288.476562 24.523437-49.148437-31.328125-12.132813-32.796875 40.480469 31.976563 22.710938c2.589844 1.835937 6.207031.929687 7.625-1.910157zm0 0"/><path d="m120.402344 288.476562-24.523438-49.148437 31.328125-12.132813 32.796875 40.480469-31.976562 22.710938c-2.585938 1.835937-6.203125.929687-7.625-1.910157zm0 0"/></g><path d="m138.859375 285.949219c-13.671875 13.539062-21.804687 33.273437-24.765625 41.46875-.761719 2.101562.261719 4.421875 2.328125 5.269531l20.246094 8.300781c2.378906.976563 5.078125-.417969 5.632812-2.929687 3.695313-16.851563 10.480469-30.222656 15.351563-38.273438-8.476563-.847656-15.582032-6.308594-18.792969-13.835937zm0 0" fill="#ff6b6b"/><path d="m181.085938 285.882812c-3.1875 7.535157-10.269532 13.011719-18.734376 13.890626 4.871094 8.050781 11.660157 21.425781 15.359376 38.285156.550781 2.511718 3.253906 3.90625 5.628906 2.929687l20.246094-8.300781c2.066406-.847656 3.089843-3.171875 2.332031-5.269531-2.96875-8.207031-11.121094-27.996094-24.832031-41.535157zm0 0" fill="#ff6b6b"/><path d="m135.664062 332.6875c-2.066406-.847656-3.089843-3.171875-2.332031-5.269531 2.222657-6.140625 7.339844-18.753907 15.515625-30.386719-4.441406-2.46875-7.976562-6.371094-9.988281-11.082031-13.671875 13.535156-21.804687 33.273437-24.765625 41.46875-.761719 2.097656.265625 4.421875 2.328125 5.269531l20.246094 8.300781c2.378906.976563 5.078125-.417969 5.632812-2.929687.179688-.816406.371094-1.617188.5625-2.417969zm0 0" fill="#ee5253"/><path d="m184.546875 304.9375c-1.324219-2.449219-.148437-5.457031 2.464844-6.40625 1.167969-.425781 2.292969-.941406 3.363281-1.539062-2.75-3.910157-5.84375-7.707032-9.289062-11.109376-3.1875 7.535157-10.269532 13.011719-18.734376 13.890626 4.871094 8.050781 11.664063 21.429687 15.363282 38.292968.546875 2.507813 3.25 3.898438 5.625 2.921875l13.046875-5.347656c-3.035157-12.574219-7.71875-23.082031-11.839844-30.703125zm0 0" fill="#ee5253"/><path d="m159.980469 267.691406-22.734375 16.148438c2.859375 9.847656 11.941406 17.050781 22.714844 17.050781 10.78125 0 19.871093-7.214844 22.71875-17.078125zm0 0" fill="#ee5253"/><path d="m164.789062 289.410156c-1.75-2.90625-.859374-6.691406 1.90625-8.65625l5.839844-4.144531-12.554687-8.917969-22.734375 16.148438c2.859375 9.847656 11.941406 17.050781 22.710937 17.050781 4.617188 0 8.914063-1.332031 12.554688-3.617187-3.148438-1.976563-5.800781-4.675782-7.722657-7.863282zm0 0" fill="#d83941"/><path d="m395.976562 470.914062-39.09375-69.304687c-13.054687 17.550781-33.347656 29.207031-56.355468 30.359375l40.191406 71.253906c1.007812 1.78125 3.578125 1.648438 4.398438-.234375l13.324218-30.503906c.433594-1 1.457032-1.601563 2.527344-1.480469l32.59375 3.660156c2.007812.226563 3.417969-1.964843 2.414062-3.75zm0 0" fill="#ff6b6b"/><path d="m347.828125 429.546875c7.113281-1.90625 13.8125-4.839844 19.9375-8.640625l-10.882813-19.296875c-13.050781 17.550781-33.34375 29.207031-56.351562 30.359375l40.1875 71.253906c1.007812 1.785156 3.578125 1.648438 4.398438-.234375l11.921874-27.292969-16.378906-29.035156c-3.765625-6.679687-.238281-15.128906 7.167969-17.113281zm0 0" fill="#ee5253"/><path d="m236.640625 401.609375-39.09375 69.304687c-1.003906 1.785157.40625 3.976563 2.414063 3.75l32.59375-3.65625c1.070312-.121093 2.09375.476563 2.53125 1.476563l13.320312 30.507813c.820312 1.878906 3.390625 2.015624 4.398438.230468l40.191406-71.25c-23.007813-1.15625-43.300782-12.8125-56.355469-30.363281zm0 0" fill="#ff6b6b"/><path d="m227.390625 470.914062 28.738281-50.949218c-7.511718-4.90625-14.113281-11.128906-19.488281-18.355469l-39.09375 69.304687c-1.003906 1.785157.40625 3.976563 2.414063 3.75l27.15625-3.046874c.054687-.238282.140624-.472657.273437-.703126zm0 0" fill="#ee5253"/><path d="m372.136719 357.980469c0 41.628906-33.746094 75.375-75.375 75.375-41.628907 0-75.375-33.746094-75.375-75.375 0-41.628907 33.746093-75.375 75.375-75.375 41.628906 0 75.375 33.746093 75.375 75.375zm0 0" fill="#feca57"/><path d="m251.226562 357.980469c0-36.519531 25.972657-66.96875 60.453126-73.894531-4.820313-.96875-9.808594-1.480469-14.917969-1.480469-41.628907 0-75.375 33.746093-75.375 75.375 0 41.628906 33.746093 75.375 75.375 75.375 5.109375 0 10.097656-.515625 14.917969-1.484375-34.480469-6.925782-60.453126-37.371094-60.453126-73.890625zm0 0" fill="#f4b537"/><path d="m331.449219 351.496094c1.808593-1.761719.8125-4.835938-1.691407-5.203125l-19.324218-2.804688c-.992188-.144531-1.851563-.769531-2.296875-1.667969l-8.640625-17.511718c-1.117188-2.265625-4.351563-2.265625-5.46875 0l-8.644532 17.511718c-.441406.898438-1.300781 1.523438-2.296874 1.667969l-19.324219 2.804688c-2.5.367187-3.5 3.441406-1.6875 5.203125l13.980469 13.632812c.71875.699219 1.046874 1.710938.878906 2.699219l-3.300782 19.246094c-.429687 2.488281 2.1875 4.390625 4.425782 3.214843l17.28125-9.089843c.890625-.464844 1.953125-.464844 2.839844 0l17.285156 9.089843c2.234375 1.175782 4.851562-.726562 4.425781-3.214843l-3.300781-19.246094c-.171875-.992187.15625-2 .875-2.699219zm0 0" fill="#f4b537"/><path d="m300.515625 363.351562c.171875-.992187-.160156-2-.878906-2.699218l-13.980469-13.628906c-1.808594-1.765626-.8125-4.839844 1.691406-5.203126l19.324219-2.808593c.023437-.003907.046875-.015625.070313-.019531l-7.246094-14.683594c-1.117188-2.265625-4.351563-2.265625-5.46875 0l-8.640625 17.507812c-.445313.902344-1.304688 1.523438-2.296875 1.667969l-19.324219 2.808594c-2.503906.363281-3.5 3.4375-1.691406 5.203125l13.980469 13.628906c.71875.703125 1.050781 1.710938.878906 2.699219l-3.300782 19.246093c-.425781 2.492188 2.1875 4.394532 4.425782 3.214844l17.285156-9.085937c.667969-.351563 1.4375-.4375 2.15625-.257813zm0 0" fill="#e59d1f"/><path d="m330.46875 338.832031-16.992188-2.46875-7.597656-15.402343c-3.882812-7.855469-15.09375-7.855469-18.972656.003906l-7.601562 15.398437-16.992188 2.46875c-8.671875 1.261719-12.140625 11.929688-5.863281 18.042969l12.296875 11.988281-2.902344 16.921875c-1.480469 8.621094 7.578125 15.234375 15.347656 11.152344l15.199219-7.988281 15.199219 7.988281c7.753906 4.082031 16.832031-2.511719 15.351562-11.152344l-2.902344-16.921875 12.292969-11.984375c6.277344-6.117187 2.8125-16.785156-5.863281-18.046875zm-18.625 20.890625c-2.496094 2.429688-3.632812 5.929688-3.046875 9.363282l1.769531 10.300781-9.253906-4.863281c-3.082031-1.617188-6.757812-1.617188-9.84375 0l-9.25 4.863281 1.765625-10.300781c.589844-3.433594-.550781-6.933594-3.042969-9.363282l-7.484375-7.296875 10.339844-1.5c3.449219-.5 6.425781-2.664062 7.96875-5.789062l4.625-9.371094 4.625 9.371094c1.542969 3.125 4.523437 5.289062 7.96875 5.789062l10.339844 1.5zm0 0"/><path d="m200.414062 482.667969 28.921876-3.191407 11.820312 26.585938c3.324219 7.480469 13.734375 8.007812 17.804688.917969l37.429687-65.175781 37.429687 65.171874c4.074219 7.097657 14.484376 6.5625 17.808594-.914062l11.816406-26.585938 28.917969 3.191407c8.105469.90625 13.847657-7.8125 9.769531-14.917969l-36.667968-63.855469c5.253906-7.9375 9.222656-16.890625 11.542968-26.613281.96875-4.042969-1.527343-8.105469-5.574218-9.070312-4.050782-.964844-8.105469 1.53125-9.070313 5.574218-7.289062 30.519532-34.574219 52.027344-65.972656 52.027344-37.167969 0-67.847656-30.195312-67.847656-67.84375 0-37.414062 30.4375-67.847656 67.847656-67.847656 31.410156 0 58.636719 21.304687 65.972656 52.027344.964844 4.042968 5.027344 6.542968 9.070313 5.574218 4.046875-.964844 6.542968-5.027344 5.574218-9.070312-8.003906-33.511719-35.40625-57.960938-68.691406-62.726563-10.636718-15.519531-25.632812-21.828125-26.308594-22.105469-.046874-.019531-.097656-.039062-.144531-.058593l-81.953125-31.738281v-3.785157h29.683594c10.046875 0 18.222656-8.175781 18.222656-18.222656v-50.042969c3.75-5.082031 5.828125-11.257812 5.828125-17.730468 0-6.464844-2.074219-12.640626-5.828125-17.722657v-28.265625c0-41.867187-29.351562-77.28125-69.035156-86.074218-4.066406-.898438-8.078125 1.660156-8.976562 5.722656-.902344 4.058594 1.660156 8.078125 5.71875 8.976562 33.164062 7.347656 57.234374 37.367188 57.234374 71.375v17.464844c-2.304687-.742188-4.894531-1.242188-7.269531-1.421875-.796875-4.875-4.304687-8.800781-8.960937-10.214844h-.003906c-6.484376-1.96875-19.207032-7.179687-31.582032-19.941406-.039062-.039063-.085937-.074219-.125-.117187-5.375-5.394532-13.988281-4.890626-18.800781.589843-16.644531 18.984375-39.886719 38.113281-63.996094 47.015625-5.050781 1.867188-8.414062 6.746094-8.414062 12.078125v21.335938c0 18.617187 7.9375 36.363281 21.914062 48.683593.304688.273438.617188.542969.925781.808594.25.210938.488282.433594.738282.640625h-27.515625c-1.742188 0-3.164063-1.417969-3.164063-3.164062v-113.757813c0-33.96875 24.035156-63.976562 57.152344-71.355468 4.058594-.902344 6.617188-4.925782 5.710938-8.984376-.902344-4.058593-4.925782-6.613281-8.984376-5.710937-39.640624 8.832031-68.933593 44.226563-68.933593 86.050781v113.761719c0 10.046875 8.175781 18.222656 18.21875 18.222656h29.59375v3.789063l-81.867188 31.734375c-.046875.019531-.09375.039062-.140625.058593-1.5.617188-36.753906 15.582032-36.753906 56.738282v143.511718c0 10.046876 8.175781 18.21875 18.222656 18.21875h170.621094c-.273438 6.148438 4.980469 11.058594 11.070312 10.378907zm154.878907-66.25 28.820312 50.191406-22.6875-2.503906c-4.351562-.484375-8.457031 1.878906-10.234375 5.875l-9.273437 20.863281-29.582031-51.507812c16.492187-3.214844 31.375-11.234376 42.957031-22.917969zm-117.761719-.066407c12.058594 12.171876 27.199219 19.917969 42.914062 22.984376l-29.578124 51.503906-9.277344-20.859375c-1.761719-3.964844-5.851563-6.355469-10.230469-5.875l-22.6875 2.503906c16.238281-28.28125 12.511719-21.792969 28.859375-50.257813zm-24.246094-173-19.605468 39.289063c-19.214844-13.644531-13.542969-9.617187-23.191407-16.46875l24.292969-29.988281zm-15.953125 83.597657-13.5625 5.5625c-2.824219-11.160157-6.84375-20.742188-10.675781-28.25.207031-.105469.398438-.226563.601562-.332031.109376-.058594.210938-.117188.316407-.175782 2.765625-1.488281 5.300781-3.375 7.484375-5.636718 7.820312 10.085937 13.089844 21.8125 15.835937 28.832031zm-37.722656-50.035157c7.632813 5.421876 4.925781 3.496094 12.558594 8.917969-2.96875 4.203125-7.765625 6.539063-12.582031 6.539063-4.800782 0-9.578126-2.304688-12.5625-6.515625zm0-21.238281-25.289063-31.214843v-11.109376c8.394532 3.359376 17.332032 4.882813 26.144532 4.882813 8.472656 0 16.921875-1.710937 24.390625-4.734375v11.015625zm66.046875-138.222656c7.652344 1.175781 12.933594 7.535156 12.933594 14.789063 0 7.261718-5.292969 13.625-12.933594 14.792968zm-.65625 44.773437c2.433594-.148437 5.265625-.652343 7.761719-1.457031v39.246094c0 1.742187-1.417969 3.164063-3.164063 3.164063h-27.511718c12.164062-10.117188 20.589843-24.5625 22.914062-40.953126zm-116.335938-9.179687v-19.828125c25.101563-9.640625 49.121094-28.898438 67.125-48.925781 10.710938 10.539062 23.066407 17.835937 34.8125 21.707031 0 55.152344.003907 45.992188-.015624 47.671875-.878907 29.738281-24.605469 49.507813-50.121094 49.507813-31.34375 0-51.800782-24.449219-51.800782-50.132813zm15.742188 83.152344 24.296875 29.992187c-13.558594 9.628906-15.726563 11.167969-23.160156 16.449219l-19.605469-39.292969zm21.75 68.101562c-3.828125 7.503907-7.839844 17.070313-10.65625 28.210938l-13.5625-5.5625c2.738281-7.007813 7.996094-18.703125 15.792969-28.777344 2.207031 2.273437 4.769531 4.167969 7.566406 5.65625.046875.027344.09375.054687.144531.082031.242188.125.472656.269532.714844.390625zm20.960938 152.933594v-94.191406c0-4.160157-3.371094-7.53125-7.53125-7.53125-4.15625 0-7.527344 3.371093-7.527344 7.53125v94.191406h-81.882813v-134.273437c0-4.15625-3.371093-7.527344-7.527343-7.527344-4.160157 0-7.53125 3.371094-7.53125 7.527344v134.273437h-36.394532c-1.742187 0-3.164062-1.421875-3.164062-3.164063v-143.515624c0-30.5625 25.789062-42.105469 27.382812-42.789063l48.890625-18.957031 21.464844 43.015625v.003906c1.359375 2.722656 3.640625 4.824219 6.398437 6-6.785156 10.867187-11.09375 21.589844-13.054687 27.019531-2.136719 5.910156.742187 12.40625 6.554687 14.792969l20.246094 8.300781c6.726563 2.757813 14.292969-1.226562 15.839844-8.28125 2.511719-11.441406 6.539062-21.191406 10.351562-28.640625 3.816407 7.449219 7.84375 17.195313 10.355469 28.640625 1.550781 7.082032 9.140625 11.027344 15.839844 8.28125l20.246094-8.304687c5.808593-2.382813 8.6875-8.878907 6.550781-14.792969-1.964844-5.433594-6.277344-16.160156-13.066406-27.035156 2.746094-1.175782 5.011718-3.269532 6.363281-5.984375l21.464844-43.011719 48.914062 18.941406c.589844.261719 5.871094 2.667969 11.621094 7.738282-42.136719 4.324218-74.4375 40.039062-74.4375 82.472656 0 16.0625 4.5625 31.949218 13.863281 45.882812-3.410156 5.9375-27.269531 47.480469-30.660156 53.386719zm0 0"/></svg>