<svg height="512pt" viewBox="-98 0 512 512.00095" width="512pt" xmlns="http://www.w3.org/2000/svg"><path d="m73.023438 278.972656v217.601563c0 6.328125 7.054687 10.097656 12.316406 6.582031l68.628906-45.878906c2.664062-1.78125 6.136719-1.78125 8.800781 0l68.628907 45.878906c5.261718 3.515625 12.316406-.253906 12.316406-6.582031v-217.601563c-50.550782 34.871094-118.644532 35.902344-170.691406 0zm0 0" fill="#54a0ff"/><path d="m73.023438 278.976562v38.042969c52.757812 28.429688 117.054687 28.90625 170.691406 0v-38.042969c-50.550782 34.867188-118.648438 35.898438-170.691406 0zm0 0" fill="#338def"/><path d="m101.738281 294.476562v197.71875l52.230469-34.917968c2.664062-1.777344 6.136719-1.777344 8.800781 0l52.230469 34.917968v-197.71875c-35.273438 14.339844-76.152344 15.085938-113.261719 0zm0 0" fill="#338def"/><path d="m101.738281 294.476562v34.914063c36.699219 12.160156 76.554688 12.164063 113.261719 0v-34.914063c-37.328125 14.933594-75.707031 14.539063-113.261719 0zm0 0" fill="#117ac9"/><path d="m309.09375 158.125c0 83.179688-67.429688 150.609375-150.609375 150.609375s-150.613281-67.429687-150.613281-150.609375 67.433594-150.613281 150.613281-150.613281 150.609375 67.433593 150.609375 150.613281zm0 0" fill="#fcd486"/><path d="m265.726562 158.125c0 59.230469-48.011718 107.246094-107.242187 107.246094s-107.246094-48.015625-107.246094-107.246094 48.015625-107.246094 107.246094-107.246094 107.242187 48.015625 107.242187 107.246094zm0 0" fill="#feca57"/><path d="m37.464844 158.125c0-78.1875 59.578125-142.453125 135.816406-149.886719-4.871094-.476562-9.804688-.726562-14.796875-.726562-83.179687 0-150.613281 67.433593-150.613281 150.613281 0 88.667969 76.371094 158.570312 165.410156 149.886719-76.238281-7.433594-135.816406-71.699219-135.816406-149.886719zm0 0" fill="#feca57"/><path d="m80.832031 158.125c0-54.210938 40.222657-99.015625 92.449219-106.226562-4.839844-.667969-9.777344-1.019532-14.796875-1.019532-59.230469 0-107.246094 48.015625-107.246094 107.246094 0 64.738281 57.125 115.183594 122.039063 106.222656-52.226563-7.207031-92.445313-52.015625-92.445313-106.222656zm0 0" fill="#f4b537"/><path d="m163.011719 136.316406c-4.144531 0-7.5 3.355469-7.5 7.5 0 4.144532 3.355469 7.5 7.5 7.5h1.558593l-.460937 3.453125c-.546875 4.105469 2.335937 7.878907 6.441406 8.425781 4.105469.546876 7.878907-2.332031 8.425781-6.441406l.726563-5.4375h12.167969l-.460938 3.453125c-.546875 4.105469 2.339844 7.878907 6.445313 8.425781 4.101562.546876 7.878906-2.332031 8.425781-6.441406l.726562-5.4375h7.199219c4.140625 0 7.5-3.355468 7.5-7.5 0-4.144531-3.359375-7.5-7.5-7.5h-5.199219l1.640626-12.304687h3.558593c4.140625 0 7.5-3.355469 7.5-7.5s-3.359375-7.5-7.5-7.5h-1.558593l.460937-3.453125c.546875-4.105469-2.339844-7.878906-6.445313-8.425782-4.105468-.546874-7.878906 2.335938-8.425781 6.441407l-.726562 5.4375h-12.167969l.460938-3.453125c.546874-4.105469-2.339844-7.878906-6.445313-8.425782-4.101563-.546874-7.878906 2.335938-8.425781 6.441407l-.726563 5.4375h-7.195312c-4.144531 0-7.5 3.355469-7.5 7.5s3.355469 7.5 7.5 7.5h5.195312l-1.636719 12.304687zm20.332031-12.304687h12.167969l-1.640625 12.304687h-12.167969zm0 0"/><path d="m132.710938 227.839844c4.570312 0 9.316406-2.109375 9.316406-6.152344v-116.394531c0-5.25-8.84375-8.386719-13.011719-4.21875l-18.285156 17.582031c-2.285157 1.582031-3.691407 4.570312-3.691407 7.207031 0 5.847657 5.886719 10.113281 10.199219 5.804688l6.152344-7.738281v97.757812c0 4.042969 4.570313 6.152344 9.320313 6.152344zm0 0"/><path d="m245.097656 83.425781c-17.578125-20.511719-41.863281-34.207031-68.382812-38.5625-4.085938-.675781-7.945313 2.097657-8.613282 6.183594-.675781 4.089844 2.09375 7.945313 6.183594 8.617187 48.3125 7.9375 83.378906 49.292969 83.378906 98.335938 0 54.953125-44.707031 99.664062-99.664062 99.664062-54.953125 0-99.664062-44.710937-99.664062-99.664062 0-49.042969 35.066406-90.398438 83.378906-98.335938 4.089844-.671874 6.855468-4.527343 6.1875-8.617187-.671875-4.085937-4.53125-6.867187-8.617188-6.183594-54.621094 8.972657-95.949218 56.421875-95.949218 113.136719 0 63.226562 51.4375 114.664062 114.664062 114.664062 97.714844 0 150.617188-115.136718 87.097656-189.238281zm0 0"/><path d="m243.34375 383.226562c4.144531 0 7.503906-3.355468 7.503906-7.5v-89.972656c39.453125-28.753906 65.152344-75.304687 65.152344-127.753906 0-87.121094-70.878906-158-158-158s-158 70.878906-158 158c0 52.449219 25.695312 99 65.152344 127.753906v210.808594c0 5.699219 3.125 10.910156 8.152344 13.597656 5.011718 2.679688 11.082031 2.398438 15.832031-.777344l68.632812-45.878906c.140625-.09375.320313-.09375.460938 0 29.171875 19.5 64.207031 42.917969 68.628906 45.875 10.230469 6.84375 23.984375-.511718 23.984375-12.816406v-85.832031c0-4.144531-3.355469-7.5-7.5-7.5s-7.5 3.355469-7.5 7.5v85.832031c0 .125 0 .25-.222656.367188-.21875.117187-.320313.050781-.425782-.019532l-13.066406-8.734375v-185.738281c4.667969-2.078125 9.246094-4.386719 13.714844-6.925781v80.214843c0 4.144532 3.359375 7.5 7.5 7.5zm-149.476562 104.949219-13.066407 8.734375c-.097656.066406-.207031.136719-.425781.019532-.21875-.117188-.21875-.242188-.21875-.367188v-201.050781c4.46875 2.539062 9.042969 4.847656 13.710938 6.925781zm113.265624-10.03125-40.5625-27.113281c-5.207031-3.480469-11.933593-3.480469-17.136718 0l-40.566406 27.113281v-169.945312c15.226562 4.984375 31.835937 7.796875 49.132812 7.796875 16.730469 0 33.339844-2.625 49.128906-7.796875v169.945312zm-49.132812-177.148437c-78.863281 0-142.996094-64.164063-142.996094-142.996094-.003906-78.851562 64.144532-143 142.996094-143s143 64.148438 143 143c0 78.867188-64.175781 142.996094-143 142.996094zm0 0"/></svg>