<svg height="512pt" viewBox="-21 0 511 512" width="512pt" xmlns="http://www.w3.org/2000/svg"><path d="m405.675781 111.335938c3.886719 0 7.03125-3.148438 7.03125-7.03125v-31.179688h46.453125c3.1875 0 5.027344 3.617188 3.152344 6.195312l-21.625 29.722657c-.996094 1.367187-.996094 3.21875 0 4.585937l21.625 29.726563c1.875 2.574219.035156 6.191406-3.152344 6.191406h-91.242187c-3.917969 0-7.097657-3.179687-7.097657-7.097656v-31.113281zm0 0" fill="#ff6b6b"/><path d="m360.824219 142.449219v-31.113281h44.851562l-43.277343 35.566406c-.984376-1.21875-1.574219-2.765625-1.574219-4.453125zm0 0" fill="#ee5253"/><path d="m386.324219 111.335938h-25.5v31.113281c0 1.6875.589843 3.238281 1.574219 4.453125l23.925781-19.660156zm0 0" fill="#d83941"/><path d="m406.347656 37.253906c3.839844 0 6.949219 3.113282 6.949219 6.949219v61.628906c0 3.839844-3.109375 6.949219-6.949219 6.949219h-82.023437v-75.527344zm0 0" fill="#ff6b6b"/><path d="m324.324219 37.253906h32v75.527344h-32zm0 0" fill="#ee5253"/><path d="m326.324219 202.167969v-164.914063c-3.230469 3.453125-7.808594 5.621094-12.90625 5.621094-5.097657 0-9.679688-2.167969-12.90625-5.621094v164.914063zm0 0" fill="#e4eaf8"/><path d="m313.417969 42.875c-5.097657 0-9.679688-2.167969-12.90625-5.621094v164.914063h15.25v-159.464844c-.769531.101563-1.546875.171875-2.34375.171875zm0 0" fill="#c7d2e5"/><path d="m331.703125 25.796875c0 10.097656-8.1875 18.285156-18.285156 18.285156-10.097657 0-18.285157-8.1875-18.285157-18.285156s8.1875-18.285156 18.285157-18.285156c10.097656 0 18.285156 8.1875 18.285156 18.285156zm0 0" fill="#feca57"/><path d="m315.761719 25.796875c0-6.269531 3.160156-11.800781 7.96875-15.09375-2.9375-2.011719-6.484375-3.191406-10.3125-3.191406-10.101563 0-18.285157 8.1875-18.285157 18.285156s8.183594 18.285156 18.285157 18.285156c3.828125 0 7.378906-1.179687 10.3125-3.191406-4.808594-3.292969-7.96875-8.824219-7.96875-15.09375zm0 0" fill="#f4b537"/><path d="m16.796875 451.066406c-4.652344 0-8.425781 3.773438-8.425781 8.429688v36.589844c0 4.652343 3.773437 8.425781 8.425781 8.425781h80.472656v-53.441407h-80.472656zm0 0" fill="#fcd486"/><path d="m38.371094 496.085938v-36.589844c0-4.65625 3.773437-8.429688 8.429687-8.429688h-30.003906c-4.652344 0-8.425781 3.773438-8.425781 8.429688v36.589844c0 4.652343 3.773437 8.425781 8.425781 8.425781h30.003906c-4.65625 0-8.429687-3.773438-8.429687-8.425781zm0 0" fill="#feca57"/><path d="m103.695312 367.433594c-4.65625 0-8.429687 3.773437-8.429687 8.429687v128.648438h88.898437v-137.078125zm0 0" fill="#feca57"/><path d="m133.695312 367.433594h-30c-4.65625 0-8.429687 3.773437-8.429687 8.429687v128.648438h30.003906v-128.648438c0-4.65625 3.773438-8.429687 8.425781-8.429687zm0 0" fill="#f4b537"/><path d="m190.589844 283.800781c-4.652344 0-8.425782 3.773438-8.425782 8.429688v212.28125h88.894532v-220.710938zm0 0" fill="#f4b537"/><path d="m220.59375 283.800781h-30.003906c-4.652344 0-8.425782 3.773438-8.425782 8.429688v212.28125h30v-212.28125c0-4.65625 3.773438-8.429688 8.429688-8.429688zm0 0" fill="#e59d1f"/><path d="m347.53125 200.167969h-70.042969c-4.652343 0-8.425781 3.773437-8.425781 8.429687v295.914063h78.46875c4.652344 0 8.425781-3.773438 8.425781-8.425781v-287.492188c0-4.652344-3.773437-8.425781-8.425781-8.425781zm0 0" fill="#e59d1f"/><path d="m307.488281 200.167969h-30c-4.65625 0-8.429687 3.773437-8.429687 8.429687v295.914063h30.003906v-295.914063c0-4.65625 3.773438-8.429687 8.425781-8.429687zm0 0" fill="#dd8e10"/><path d="m16.429688 512h191.3125c4.144531 0 7.5-3.359375 7.5-7.5 0-4.144531-3.355469-7.5-7.5-7.5h-18.445313v-204.785156c0-.507813.414063-.925782.925781-.925782h70.96875v205.710938h-18.445312c-4.144532 0-7.5 3.355469-7.5 7.5 0 4.140625 3.355468 7.5 7.5 7.5h104.414062c8.785156 0 15.929688-7.144531 15.929688-15.929688v-121.421874c0-4.140626-3.355469-7.5-7.5-7.5-4.144532 0-7.5 3.359374-7.5 7.5v121.421874c0 .511719-.417969.929688-.929688.929688h-70.96875c0-7.742188 0-284.917969 0-288.414062 0-.511719.417969-.929688.925782-.929688h70.042968c.511719 0 .929688.417969.929688.929688v131.0625c0 4.140624 3.355468 7.5 7.5 7.5 4.140625 0 7.5-3.359376 7.5-7.5v-131.066407c0-8.78125-7.144532-15.925781-15.929688-15.925781h-13.707031v-72.386719h20.691406v23.25c0 8.007813 6.574219 14.515625 14.515625 14.515625h90.175782c9.273437 0 14.636718-10.535156 9.179687-18.035156l-19.808594-27.230469 19.808594-27.230469c5.457031-7.496093.09375-18.03125-9.179687-18.03125h-38.40625v-23.316406c0-7.96875-6.484376-14.449218-14.449219-14.449218h-68.171875c.273437-1.480469.421875-3.003907.421875-4.5625 0-13.882813-11.296875-25.179688-25.183594-25.179688s-25.183594 11.296875-25.183594 25.183594c0 5.496094 1.777344 10.582031 4.777344 14.726562v152.746094h-15.523437c-8.78125 0-15.925782 7.144531-15.925782 15.925781v67.707031h-70.972656c-8.78125 0-15.925781 7.144532-15.925781 15.925782v67.707031h-70.96875c-8.785157 0-15.929688 7.144531-15.929688 15.929687v67.703126h-70.964843c-8.785157 0-15.929688 7.144531-15.929688 15.929687v36.585937c0 8.785157 7.144531 15.929688 15.929688 15.929688zm392.652343-392.074219c6.480469-1.425781 11.34375-7.203125 11.34375-14.105469v-23.3125h31.246094l-17.160156 23.582032c-2.90625 3.996094-2.90625 9.363281 0 13.359375l17.160156 23.585937h-70.707031zm-39.933593 13.402344v-13.058594h15.890624zm-35.695313-88.585937h71.972656v60.527343c-7.230469 0-64.058593 0-71.972656 0zm-15 147.914062h-10.8125v-142.882812c3.492187.769531 7.136719.808593 10.8125 0zm-5.40625-177.65625c5.613281 0 10.183594 4.566406 10.183594 10.183594 0 5.523437-4.503907 10.179687-10.183594 10.179687-5.566406 0-10.179687-4.5625-10.179687-10.179687 0-5.617188 4.566406-10.183594 10.179687-10.183594zm-210.648437 360.851562c0-.511718.414062-.929687.925781-.929687h70.96875v122.078125h-71.894531c0-4.929688 0-115.261719 0-121.148438zm-86.898438 83.632813c0-.511719.417969-.929687.929688-.929687h70.96875v38.445312h-70.96875c-.511719 0-.929688-.417969-.929688-.929688zm0 0"/></svg>