<?xml version="1.0" ?><svg id="Icons" viewBox="0 0 48 48" xmlns="http://www.w3.org/2000/svg"><defs><style>.cls-1,.cls-5{fill:#45413c;}.cls-1{opacity:0.15;}.cls-2{fill:#ffe500;}.cls-3{fill:#fff48c;}.cls-4{fill:none;}.cls-4,.cls-5{stroke:#45413c;stroke-linecap:round;stroke-linejoin:round;}.cls-6{fill:#ff6242;}.cls-7{fill:#ffa694;}.cls-8{fill:#ffaa54;}.cls-9{fill:#724f3d;}.cls-10{fill:#a86c4d;}</style></defs><title/><ellipse class="cls-1" cx="24" cy="44.5" data-name="&lt;Ellipse&gt;" id="_Ellipse_" rx="13.5" ry="1.5"/><path class="cls-2" d="M40.88,22.75a3.27,3.27,0,0,0-2.8-3.23C36.71,12.37,30.93,7,24,7S11.29,12.37,9.92,19.52a3.27,3.27,0,0,0,0,6.47C11.29,33.13,17.07,38.5,24,38.5S36.71,33.13,38.08,26A3.28,3.28,0,0,0,40.88,22.75Z" data-name="&lt;Path&gt;" id="_Path_"/><path class="cls-3" d="M9.38,22.92a1,1,0,0,0,.68-.72,14.35,14.35,0,0,1,27.88,0,1,1,0,0,0,.68.72,3.24,3.24,0,0,1,1.85,1.41,3.23,3.23,0,0,0,.41-1.58,3.27,3.27,0,0,0-2.8-3.23C36.71,12.37,30.93,7,24,7S11.29,12.37,9.92,19.52a3.27,3.27,0,0,0-2.8,3.23,3.23,3.23,0,0,0,.41,1.58A3.24,3.24,0,0,1,9.38,22.92Z" data-name="&lt;Path&gt;" id="_Path_2"/><path class="cls-4" d="M40.88,22.75a3.27,3.27,0,0,0-2.8-3.23C36.71,12.37,30.93,7,24,7S11.29,12.37,9.92,19.52a3.27,3.27,0,0,0,0,6.47C11.29,33.13,17.07,38.5,24,38.5S36.71,33.13,38.08,26A3.28,3.28,0,0,0,40.88,22.75Z" data-name="&lt;Path&gt;" id="_Path_3"/><path class="cls-5" d="M15.55,21.9a1.2,1.2,0,1,0,1.2-1.2A1.2,1.2,0,0,0,15.55,21.9Z" data-name="&lt;Path&gt;" id="_Path_4"/><path class="cls-5" d="M32.45,21.9a1.2,1.2,0,1,1-1.2-1.2A1.2,1.2,0,0,1,32.45,21.9Z" data-name="&lt;Path&gt;" id="_Path_5"/><g data-name="&lt;Group&gt;" id="_Group_"><g data-name="&lt;Group&gt;" id="_Group_2"><path class="cls-6" d="M19.59,29.2a.69.69,0,0,0-.52.24.68.68,0,0,0-.16.55,5.16,5.16,0,0,0,10.18,0,.68.68,0,0,0-.16-.55.69.69,0,0,0-.52-.24Z" data-name="&lt;Path&gt;" id="_Path_6"/><path class="cls-7" d="M24,31.32a6.29,6.29,0,0,0-3.92,1.2,5.21,5.21,0,0,0,7.84,0A6.29,6.29,0,0,0,24,31.32Z" data-name="&lt;Path&gt;" id="_Path_7"/></g></g><g data-name="&lt;Group&gt;" id="_Group_3"><path class="cls-4" d="M19.59,29.2a.69.69,0,0,0-.52.24.68.68,0,0,0-.16.55,5.16,5.16,0,0,0,10.18,0,.68.68,0,0,0-.16-.55.69.69,0,0,0-.52-.24Z" data-name="&lt;Path&gt;" id="_Path_8"/></g><ellipse class="cls-8" cx="14.76" cy="27.01" data-name="&lt;Ellipse&gt;" id="_Ellipse_2" rx="1.55" ry="0.93"/><ellipse class="cls-8" cx="33.24" cy="27.01" data-name="&lt;Ellipse&gt;" id="_Ellipse_3" rx="1.55" ry="0.93"/><path class="cls-9" d="M28.53,10.6a4.5,4.5,0,0,0-7.66-3.22,2.72,2.72,0,0,1,.86-.14,2.67,2.67,0,1,1-2.12,4.3,4.51,4.51,0,0,0,8.92-.94Z" data-name="&lt;Path&gt;" id="_Path_9"/><g data-name="&lt;Group&gt;" id="_Group_4"><path class="cls-10" d="M24.12,8.72a4.52,4.52,0,0,1,3.35,4.36,3.71,3.71,0,0,1,0,.47,4.51,4.51,0,0,0-6.57-6.17,2.72,2.72,0,0,1,.86-.14A2.66,2.66,0,0,1,24.12,8.72Z" data-name="&lt;Path&gt;" id="_Path_10"/></g><path class="cls-4" d="M28.53,10.6a4.5,4.5,0,0,0-7.66-3.22,2.72,2.72,0,0,1,.86-.14,2.67,2.67,0,1,1-2.12,4.3,4.51,4.51,0,0,0,8.92-.94Z" data-name="&lt;Path&gt;" id="_Path_11"/></svg>