<?xml version="1.0" ?><!DOCTYPE svg  PUBLIC '-//W3C//DTD SVG 1.1//EN'  'http://www.w3.org/Graphics/SVG/1.1/DTD/svg11.dtd'><svg enable-background="new 0 0 512 512" height="512px" id="Layer_1" version="1.1" viewBox="0 0 512 512" width="512px" xml:space="preserve" xmlns="http://www.w3.org/2000/svg" xmlns:xlink="http://www.w3.org/1999/xlink"><path d="M256,54.872c-83.352,0-151.162,67.811-151.162,151.162c0,134.032,136.018,239.518,141.809,243.945l9.354,7.148l9.348-7.148  c5.791-4.428,141.814-109.913,141.814-243.945C407.162,122.682,339.353,54.872,256,54.872z M255.989,417.763  c-29.792-25.637-120.352-111.815-120.352-211.729c0-66.37,53.987-120.363,120.363-120.363c66.364,0,120.363,53.994,120.363,120.363  C376.364,305.734,285.768,392.086,255.989,417.763z"/><g><path d="M253.665,271.729c-38.672,0-70.135-31.459-70.135-70.129c0-38.672,31.462-70.135,70.135-70.135   c38.672,0,70.134,31.462,70.134,70.135C323.799,240.27,292.337,271.729,253.665,271.729z M253.665,154.466   c-25.99,0-47.135,21.145-47.135,47.135c0,25.987,21.145,47.129,47.135,47.129c25.989,0,47.134-21.142,47.134-47.129   C300.799,175.61,279.655,154.466,253.665,154.466z"/></g></svg>