<?xml version="1.0" encoding="UTF-8"?>
<svg xmlns="http://www.w3.org/2000/svg" xmlns:xlink="http://www.w3.org/1999/xlink" width="150pt" height="150pt" viewBox="0 0 150 150" version="1.1">
<g id="surface1">
<path style=" stroke:none;fill-rule:nonzero;fill:rgb(100%,100%,100%);fill-opacity:1;" d="M 150 75 C 150 116.144531 116.144531 150 75 150 C 33.855469 150 0 116.144531 0 75 C 0 33.855469 33.855469 0 75 0 C 116.144531 0 150 33.855469 150 75 Z M 150 75 "/>
<path style=" stroke:none;fill-rule:evenodd;fill:rgb(34.509804%,28.627451%,74.509804%);fill-opacity:1;" d="M 59.035156 17.65625 C 64.117188 16.242188 69.46875 15.484375 75 15.484375 C 107.847656 15.484375 134.515625 42.152344 134.515625 75 C 134.515625 107.847656 107.847656 134.515625 75 134.515625 C 42.152344 134.515625 15.484375 107.847656 15.484375 75 C 15.484375 69.46875 16.242188 64.117188 17.65625 59.035156 C 23.023438 66.832031 32.011719 71.945312 42.183594 71.945312 C 58.609375 71.945312 71.945312 58.609375 71.945312 42.183594 C 71.945312 32.011719 66.832031 23.023438 59.035156 17.65625 Z M 59.035156 17.65625 "/>
</g>
</svg>
